<?xml version="1.0" encoding="UTF-8"?>
<svg width="117px" height="116px" viewBox="0 0 117 116" version="1.1" xmlns="http://www.w3.org/2000/svg" xmlns:xlink="http://www.w3.org/1999/xlink">
    <!-- Generator: Sketch 58 (84663) - https://sketch.com -->
    <title>Recurso 1</title>
    <desc>Created with Sketch.</desc>
    <g id="Page-1_final" stroke="none" stroke-width="1" fill="none" fill-rule="evenodd">
        <g id="3-Magic-place-4" transform="translate(-562.000000, -721.000000)">
            <g id="Group-2" transform="translate(460.000000, 616.000000)">
                <g id="Recurso-1" transform="translate(102.400000, 105.600000)">
                    <path d="M115.856,58.216 L113.504,58.216 C113.345231,89.0475519 88.2645996,113.935199 57.4327411,113.856004 C26.6008825,113.77643 1.64874153,88.7599607 1.64874153,57.928 C1.64874153,27.0960393 26.6008825,2.0795699 57.4327411,1.999996 C88.2645996,1.92080087 113.345231,26.8084481 113.504,57.64 L114.992,57.64" id="Path" stroke="#00CFCF" stroke-width="0.52"></path>
                    <path d="M114.36,66.456 L112.888,66.24" id="Path" stroke="#00CFCF" stroke-width="0.52"></path>
                    <path d="M112.44,77.568 L110.232,76.768" id="Path" stroke="#00CFCF" stroke-width="0.52"></path>
                    <path d="M108.264,84.832 L106.952,84.136" id="Path" stroke="#00CFCF" stroke-width="0.52"></path>
                    <path d="M102.736,94.656 L100.92,93.168" id="Path" stroke="#00CFCF" stroke-width="0.52"></path>
                    <path d="M96.376,100.12 L95.376,99.016" id="Path" stroke="#00CFCF" stroke-width="0.52"></path>
                    <path d="M87.896,107.544 L86.68,105.536" id="Path" stroke="#00CFCF" stroke-width="0.52"></path>
                    <path d="M80.08,110.576 L79.504,109.2" id="Path" stroke="#00CFCF" stroke-width="0.52"></path>
                    <path d="M69.6,114.728 L69.128,112.424" id="Path" stroke="#00CFCF" stroke-width="0.52"></path>
                    <path d="M61.224,114.952 L61.136,113.464" id="Path" stroke="#00CFCF" stroke-width="0.52"></path>
                    <path d="M49.96,115.368 L50.28,113.04" id="Path" stroke="#00CFCF" stroke-width="0.52"></path>
                    <path d="M41.984,112.808 L42.392,111.376" id="Path" stroke="#00CFCF" stroke-width="0.52"></path>
                    <path d="M31.224,109.44 L32.304,107.352" id="Path" stroke="#00CFCF" stroke-width="0.52"></path>
                    <path d="M24.568,104.344 L25.44,103.136" id="Path" stroke="#00CFCF" stroke-width="0.52"></path>
                    <path d="M15.56,97.584 L17.272,95.976" id="Path" stroke="#00CFCF" stroke-width="0.52"></path>
                    <path d="M10.976,90.568 L12.192,89.72" id="Path" stroke="#00CFCF" stroke-width="0.52"></path>
                    <path d="M4.728,81.192 L6.88,80.248" id="Path" stroke="#00CFCF" stroke-width="0.52"></path>
                    <path d="M2.752,73.04 L4.192,72.648" id="Path" stroke="#00CFCF" stroke-width="0.52"></path>
                    <path d="M0.016,62.112 L2.36,61.944" id="Path" stroke="#00CFCF" stroke-width="0.52"></path>
                    <path d="M0.88,53.776 L2.36,53.88" id="Path" stroke="#00CFCF" stroke-width="0.52"></path>
                    <path d="M1.92,42.552 L4.192,43.176" id="Path" stroke="#00CFCF" stroke-width="0.52"></path>
                    <path d="M5.512,34.984 L6.88,35.576" id="Path" stroke="#00CFCF" stroke-width="0.52"></path>
                    <path d="M10.272,24.76 L12.192,26.104" id="Path" stroke="#00CFCF" stroke-width="0.52"></path>
                    <path d="M16.184,18.832 L17.272,19.848" id="Path" stroke="#00CFCF" stroke-width="0.52"></path>
                    <path d="M24.072,10.776 L25.44,12.688" id="Path" stroke="#00CFCF" stroke-width="0.52"></path>
                    <path d="M31.624,7.152 L32.304,8.472" id="Path" stroke="#00CFCF" stroke-width="0.52"></path>
                    <path d="M41.744,2.192 L42.392,4.448" id="Path" stroke="#00CFCF" stroke-width="0.52"></path>
                    <path d="M50.08,1.312 L50.28,2.784" id="Path" stroke="#00CFCF" stroke-width="0.52"></path>
                    <path d="M61.272,0.016 L61.136,2.36" id="Path" stroke="#00CFCF" stroke-width="0.52"></path>
                    <path d="M69.432,1.944 L69.128,3.4" id="Path" stroke="#00CFCF" stroke-width="0.52"></path>
                    <path d="M80.416,4.456 L79.504,6.624" id="Path" stroke="#00CFCF" stroke-width="0.52"></path>
                    <path d="M87.448,9.016 L86.68,10.288" id="Path" stroke="#00CFCF" stroke-width="0.52"></path>
                    <path d="M96.96,15.072 L95.376,16.808" id="Path" stroke="#00CFCF" stroke-width="0.52"></path>
                    <path d="M102.072,21.712 L100.92,22.656" id="Path" stroke="#00CFCF" stroke-width="0.52"></path>
                    <path d="M109.024,30.584 L106.952,31.696" id="Path" stroke="#00CFCF" stroke-width="0.52"></path>
                    <path d="M111.632,38.552 L110.232,39.056" id="Path" stroke="#00CFCF" stroke-width="0.52"></path>
                    <path d="M115.216,49.24 L112.888,49.584" id="Path" stroke="#00CFCF" stroke-width="0.52"></path>
                    <path d="M93.408,73.504 C96.0335854,68.1044652 97.4011787,62.180051 97.408,56.176 L98.568,56.176 C98.5521965,61.0311898 97.6829671,65.8457998 96,70.4 C95.568,70.944 95.2,71.48 94.728,72 C94.256,72.52 93.864,73.016 93.408,73.504 Z" id="Path" fill="#00CFCF" fill-rule="nonzero"></path>
                    <path d="M95.464,71.776 C93.3871692,76.799061 90.3178898,81.3512812 86.44,85.16 L85.64,84.36 C87.0481776,82.9506499 88.3604439,81.4486262 89.568,79.864 C90.748672,78.2591582 91.8178491,76.5752044 92.768,74.824 C93.224,74.344 93.704,73.864 94.152,73.36 C94.6,72.856 95.04,72.312 95.464,71.776 Z" id="Path" fill="#00CFCF" fill-rule="nonzero"></path>
                    <path d="M89.672,74.248 C91.2364573,71.5093397 92.4359656,68.5778059 93.24,65.528 C94.0342705,62.4738564 94.4401404,59.3317245 94.448,56.176 L96.44,56.176 C96.4365583,59.5026516 96.0200381,62.8160025 95.2,66.04 C94.3331353,69.2442533 93.0558953,72.3230739 91.4,75.2 L89.672,74.248 Z" id="Path" fill="#00CFCF" fill-rule="nonzero"></path>
                    <path d="M76.24,87.816 C78.965097,86.223705 81.4782961,84.2937832 83.72,82.072 C85.9483599,79.8370192 87.8814077,77.3259389 89.472,74.6 L91.2,75.6 C87.8381954,81.377911 83.0297647,86.1808274 77.248,89.536 L76.24,87.816 Z" id="Path" fill="#00CFCF" fill-rule="nonzero"></path>
                    <path d="M57.856,92.8 C61.0101223,92.7769775 64.1490434,92.3604255 67.2,91.56 C70.2521734,90.7591529 73.18642,89.5623246 75.928,88 L76.912,89.728 C74.0234056,91.3753327 70.9337388,92.6418541 67.72,93.496 C64.497359,94.3268296 61.1839873,94.7541014 57.856,94.768 L57.856,92.8 Z" id="Path" fill="#00CFCF" fill-rule="nonzero"></path>
                    <path d="M99.448,58.72 C99.512,57.872 99.504,57.024 99.536,56.176 L102.008,56.176 C102.008,57.072 102.008,57.976 101.92,58.872 L99.448,58.72 Z" id="Path" fill="#00CFCF" fill-rule="nonzero"></path>
                    <polygon id="Path" fill="#00CFCF" fill-rule="nonzero" points="99.152 61.768 99.312 60.504 99.408 59.24 101.88 59.416 101.776 60.76 101.608 62.096"></polygon>
                    <path d="M98.64,64.8 C98.808,64 98.952,63.136 99.088,62.296 L101.536,62.656 C101.4,63.544 101.24,64.432 101.064,65.312 L98.64,64.8 Z" id="Path" fill="#00CFCF" fill-rule="nonzero"></path>
                    <polygon id="Path" fill="#00CFCF" fill-rule="nonzero" points="97.896 67.752 98.24 66.528 98.52 65.288 100.944 65.832 100.64 67.144 100.272 68.44"></polygon>
                    <path d="M96.944,70.664 C97.224,69.864 97.504,69.064 97.744,68.264 L100.144,68.976 C99.888,69.84 99.592,70.688 99.288,71.536 L96.944,70.664 Z" id="Path" fill="#00CFCF" fill-rule="nonzero"></path>
                    <polygon id="Path" fill="#00CFCF" fill-rule="nonzero" points="95.768 73.488 96.288 72.328 96.752 71.144 99.064 72.04 98.568 73.288 98.016 74.52"></polygon>
                    <path d="M94.4,76.232 C94.792,75.48 95.2,74.728 95.552,73.96 L97.792,75.024 C97.408,75.824 96.992,76.624 96.568,77.424 L94.4,76.232 Z" id="Path" fill="#00CFCF" fill-rule="nonzero"></path>
                    <polygon id="Path" fill="#00CFCF" fill-rule="nonzero" points="92.816 78.856 93.504 77.784 94.136 76.68 96.296 77.904 95.624 79.064 94.896 80.2"></polygon>
                    <path d="M91.064,81.36 C91.576,80.688 92.056,79.992 92.536,79.288 L94.6,80.664 C94.096,81.408 93.576,82.144 93,82.856 L91.064,81.36 Z" id="Path" fill="#00CFCF" fill-rule="nonzero"></path>
                    <path d="M57.856,97.856 C70.6700459,97.8590053 82.7704334,91.9563773 90.656,81.856 L92.608,83.384 C84.2453508,94.0845205 71.4206863,100.337504 57.84,100.336 L57.856,97.856 Z" id="Path" fill="#00CFCF" fill-rule="nonzero"></path>
                    <polygon id="Path" fill="#00CFCF" fill-rule="nonzero" points="84.6 85.392 85.384 84.648 86.144 85.44 85.344 86.2"></polygon>
                    <polygon id="Path" fill="#00CFCF" fill-rule="nonzero" points="83.6 86.272 84.408 85.568 85.152 86.384 84.312 87.112"></polygon>
                    <path d="M82.576,87.12 C82.856,86.904 83.136,86.68 83.376,86.44 L84.088,87.24 C83.816,87.488 83.528,87.72 83.232,87.944 L82.576,87.12 Z" id="Path" fill="#00CFCF" fill-rule="nonzero"></path>
                    <polygon id="Path" fill="#00CFCF" fill-rule="nonzero" points="81.52 87.944 82.368 87.288 83.048 88.152 82.176 88.832"></polygon>
                    <polygon id="Path" fill="#00CFCF" fill-rule="nonzero" points="80.432 88.72 81.312 88.096 81.96 88.984 81.064 89.624"></polygon>
                    <path d="M79.32,89.464 C79.624,89.264 79.936,89.088 80.224,88.872 L80.84,89.776 C80.544,90 80.224,90.184 79.92,90.384 L79.32,89.464 Z" id="Path" fill="#00CFCF" fill-rule="nonzero"></path>
                    <path d="M78.192,90.176 C78.504,90 78.8,89.792 79.104,89.6 L79.696,90.528 C79.384,90.728 79.08,90.936 78.76,91.12 L78.192,90.176 Z" id="Path" fill="#00CFCF" fill-rule="nonzero"></path>
                    <polygon id="Path" fill="#00CFCF" fill-rule="nonzero" points="77.04 90.84 77.968 90.304 78.528 91.248 77.568 91.8"></polygon>
                    <polygon id="Path" fill="#00CFCF" fill-rule="nonzero" points="75.856 91.464 76.808 90.968 77.336 91.936 76.36 92.44"></polygon>
                    <path d="M74.664,92.056 C74.992,91.912 75.304,91.744 75.624,91.584 L76.12,92.56 C75.792,92.728 75.464,92.904 75.128,93.048 L74.664,92.056 Z" id="Path" fill="#00CFCF" fill-rule="nonzero"></path>
                    <polygon id="Path" fill="#00CFCF" fill-rule="nonzero" points="73.448 92.6 74.424 92.16 74.88 93.16 73.88 93.616"></polygon>
                    <polygon id="Path" fill="#00CFCF" fill-rule="nonzero" points="72.208 93.104 73.2 92.704 73.632 93.72 72.608 94.128"></polygon>
                    <path d="M70.952,93.6 C71.2950806,93.4976732 71.6316895,93.3747842 71.96,93.232 L72.352,94.264 C72.016,94.4 71.672,94.528 71.32,94.64 L70.952,93.6 Z" id="Path" fill="#00CFCF" fill-rule="nonzero"></path>
                    <polygon id="Path" fill="#00CFCF" fill-rule="nonzero" points="69.688 93.992 70.704 93.648 71.064 94.688 70.016 95.04"></polygon>
                    <polygon id="Path" fill="#00CFCF" fill-rule="nonzero" points="68.408 94.36 69.44 94.064 69.76 95.12 68.704 95.416"></polygon>
                    <path d="M67.112,94.688 C67.464,94.608 67.816,94.536 68.152,94.432 L68.44,95.496 C68.088,95.6 67.728,95.68 67.368,95.76 L67.112,94.688 Z" id="Path" fill="#00CFCF" fill-rule="nonzero"></path>
                    <polygon id="Path" fill="#00CFCF" fill-rule="nonzero" points="65.816 94.992 66.864 94.752 67.112 95.824 66.032 96.064"></polygon>
                    <polygon id="Path" fill="#00CFCF" fill-rule="nonzero" points="64.504 95.224 65.56 95.04 65.768 96.112 64.688 96.312"></polygon>
                    <path d="M63.2,95.424 C63.552,95.376 63.912,95.344 64.256,95.272 L64.432,96.36 C64.072,96.432 63.704,96.464 63.344,96.512 L63.2,95.424 Z" id="Path" fill="#00CFCF" fill-rule="nonzero"></path>
                    <polygon id="Path" fill="#00CFCF" fill-rule="nonzero" points="61.856 95.592 62.92 95.456 63.064 96.552 61.968 96.688"></polygon>
                    <polygon id="Path" fill="#00CFCF" fill-rule="nonzero" points="60.528 95.688 61.6 95.608 61.696 96.704 60.6 96.784"></polygon>
                    <path d="M59.2,95.76 C59.56,95.76 59.92,95.76 60.272,95.712 L60.336,96.808 C59.976,96.808 59.608,96.808 59.24,96.856 L59.2,95.76 Z" id="Path" fill="#00CFCF" fill-rule="nonzero"></path>
                    <polygon id="Path" fill="#00CFCF" fill-rule="nonzero" points="57.856 95.792 58.928 95.76 58.96 96.864 57.856 96.888"></polygon>
                    <path d="M40.528,91.736 C45.929388,94.356338 51.8525834,95.72365 57.856,95.736 L57.856,96.896 C53.0067042,96.8882788 48.1968633,96.024349 43.648,94.344 C43.104,93.912 42.56,93.544 42.048,93.072 C41.536,92.6 41.016,92.192 40.528,91.736 Z" id="Path" fill="#00CFCF" fill-rule="nonzero"></path>
                    <path d="M42.256,93.792 C37.2385649,91.7192372 32.6875676,88.6616634 28.872,84.8 L29.672,84 C32.4692092,86.847661 35.6849557,89.2513776 39.208,91.128 C39.688,91.584 40.16,92.072 40.672,92.52 C41.184,92.968 41.72,93.36 42.256,93.792 Z" id="Path" fill="#00CFCF" fill-rule="nonzero"></path>
                    <path d="M39.784,88 C42.5226603,89.5644573 45.4541941,90.7639656 48.504,91.568 C51.5580985,92.3653214 54.6996089,92.7791731 57.856,92.8 L57.856,94.784 C54.5296436,94.7622606 51.2189025,94.3269196 48,93.488 C44.7837033,92.6339087 41.6913841,91.3674023 38.8,89.72 L39.784,88 Z" id="Path" fill="#00CFCF" fill-rule="nonzero"></path>
                    <path d="M26.216,74.56 C29.3995207,80.044676 33.9572503,84.6051629 39.44,87.792 L38.4,89.512 C35.5289357,87.830294 32.8836672,85.7898888 30.528,83.44 C28.1784144,81.0850871 26.1429016,78.4365005 24.472,75.56 L26.216,74.56 Z" id="Path" fill="#00CFCF" fill-rule="nonzero"></path>
                    <path d="M21.264,56.176 C21.2758227,59.3314634 21.6816289,62.4731019 22.472,65.528 C23.2795722,68.5766202 24.4788969,71.5077053 26.04,74.248 L24.312,75.2 C22.6638536,72.31275 21.3998317,69.2226198 20.552,66.008 C19.7146974,62.7864297 19.2846761,59.4725778 19.272,56.144 L21.264,56.176 Z" id="Path" fill="#00CFCF" fill-rule="nonzero"></path>
                    <path d="M55.32,97.768 C56.12,97.832 57.008,97.824 57.856,97.856 L57.856,100.336 C56.96,100.336 56.064,100.336 55.168,100.24 L55.32,97.768 Z" id="Path" fill="#00CFCF" fill-rule="nonzero"></path>
                    <polygon id="Path" fill="#00CFCF" fill-rule="nonzero" points="52.272 97.472 53.536 97.632 54.8 97.736 54.624 100.2 53.28 100.096 51.944 99.928"></polygon>
                    <path d="M49.248,96.96 C50.048,97.128 50.92,97.28 51.752,97.408 L51.392,99.856 C50.512,99.72 49.624,99.56 48.744,99.384 L49.248,96.96 Z" id="Path" fill="#00CFCF" fill-rule="nonzero"></path>
                    <polygon id="Path" fill="#00CFCF" fill-rule="nonzero" points="46.28 96.216 47.504 96.56 48.744 96.848 48.208 99.264 46.896 98.96 45.592 98.592"></polygon>
                    <path d="M43.368,95.264 C44.168,95.544 44.968,95.824 45.768,96.064 L45.048,98.464 C44.192,98.208 43.344,97.912 42.496,97.608 L43.368,95.264 Z" id="Path" fill="#00CFCF" fill-rule="nonzero"></path>
                    <polygon id="Path" fill="#00CFCF" fill-rule="nonzero" points="40.544 94.088 41.704 94.608 42.888 95.072 42 97.384 40.744 96.888 39.512 96.336"></polygon>
                    <path d="M37.808,92.72 C38.552,93.12 39.304,93.52 40.072,93.872 L39.016,96.112 C38.216,95.728 37.416,95.312 36.616,94.888 L37.808,92.72 Z" id="Path" fill="#00CFCF" fill-rule="nonzero"></path>
                    <polygon id="Path" fill="#00CFCF" fill-rule="nonzero" points="35.184 91.136 36.256 91.824 37.36 92.456 36.136 94.616 34.968 93.944 33.832 93.216"></polygon>
                    <path d="M32.672,89.384 C33.352,89.896 34.048,90.384 34.744,90.856 L33.368,92.92 C32.632,92.416 31.896,91.896 31.176,91.32 L32.672,89.384 Z" id="Path" fill="#00CFCF" fill-rule="nonzero"></path>
                    <path d="M16.184,56.176 C16.1809947,68.9900459 22.0836227,81.0904334 32.184,88.976 L30.656,90.928 C19.955115,82.5726896 13.7014142,69.7524555 13.7039992,56.176 L16.184,56.176 Z" id="Path" fill="#00CFCF" fill-rule="nonzero"></path>
                    <polygon id="Path" fill="#00CFCF" fill-rule="nonzero" points="28.64 82.928 29.384 83.704 28.592 84.464 27.832 83.664"></polygon>
                    <polygon id="Path" fill="#00CFCF" fill-rule="nonzero" points="27.76 81.92 28.464 82.736 27.648 83.472 26.928 82.64"></polygon>
                    <path d="M26.912,80.896 C27.128,81.176 27.352,81.456 27.592,81.696 L26.752,82.408 C26.504,82.136 26.28,81.848 26.056,81.56 L26.912,80.896 Z" id="Path" fill="#00CFCF" fill-rule="nonzero"></path>
                    <polygon id="Path" fill="#00CFCF" fill-rule="nonzero" points="26.088 79.84 26.752 80.688 25.888 81.368 25.208 80.504"></polygon>
                    <polygon id="Path" fill="#00CFCF" fill-rule="nonzero" points="25.312 78.752 25.936 79.632 25.048 80.28 24.416 79.384"></polygon>
                    <path d="M24.576,77.648 C24.768,77.944 24.952,78.256 25.16,78.544 L24.256,79.2 C24.04,78.904 23.856,78.584 23.648,78.28 L24.576,77.648 Z" id="Path" fill="#00CFCF" fill-rule="nonzero"></path>
                    <path d="M23.864,76.512 C24.04,76.832 24.24,77.12 24.432,77.424 L23.504,78.016 C23.312,77.704 23.096,77.4 22.92,77.08 L23.864,76.512 Z" id="Path" fill="#00CFCF" fill-rule="nonzero"></path>
                    <polygon id="Path" fill="#00CFCF" fill-rule="nonzero" points="23.2 75.36 23.728 76.288 22.784 76.848 22.232 75.888"></polygon>
                    <polygon id="Path" fill="#00CFCF" fill-rule="nonzero" points="22.576 74.176 23.064 75.128 22.104 75.656 21.592 74.68"></polygon>
                    <path d="M21.984,72.984 C22.128,73.312 22.288,73.624 22.456,73.944 L21.472,74.44 C21.304,74.112 21.136,73.784 20.984,73.448 L21.984,72.984 Z" id="Path" fill="#00CFCF" fill-rule="nonzero"></path>
                    <polygon id="Path" fill="#00CFCF" fill-rule="nonzero" points="21.432 71.768 21.872 72.744 20.88 73.2 20.424 72.2"></polygon>
                    <polygon id="Path" fill="#00CFCF" fill-rule="nonzero" points="20.936 70.528 21.328 71.528 20.312 71.952 19.912 70.928"></polygon>
                    <path d="M20.472,69.272 C20.584,69.616 20.704,69.952 20.84,70.28 L19.816,70.672 C19.672,70.336 19.544,69.992 19.432,69.64 L20.472,69.272 Z" id="Path" fill="#00CFCF" fill-rule="nonzero"></path>
                    <polygon id="Path" fill="#00CFCF" fill-rule="nonzero" points="20.04 68.008 20.384 69.024 19.344 69.384 18.992 68.336"></polygon>
                    <polygon id="Path" fill="#00CFCF" fill-rule="nonzero" points="19.68 66.728 19.968 67.76 18.92 68.08 18.616 67.024"></polygon>
                    <path d="M19.344,65.44 C19.424,65.784 19.504,66.136 19.608,66.48 L18.544,66.76 C18.432,66.408 18.36,66.048 18.272,65.696 L19.344,65.44 Z" id="Path" fill="#00CFCF" fill-rule="nonzero"></path>
                    <polygon id="Path" fill="#00CFCF" fill-rule="nonzero" points="19.048 64.136 19.288 65.184 18.216 65.432 17.968 64.352"></polygon>
                    <polygon id="Path" fill="#00CFCF" fill-rule="nonzero" points="18.808 62.824 19 63.88 17.92 64.088 17.728 63.008"></polygon>
                    <path d="M18.608,61.504 C18.656,61.856 18.696,62.216 18.768,62.56 L17.68,62.736 C17.608,62.376 17.568,62.016 17.52,61.648 L18.608,61.504 Z" id="Path" fill="#00CFCF" fill-rule="nonzero"></path>
                    <polygon id="Path" fill="#00CFCF" fill-rule="nonzero" points="18.448 60.176 18.576 61.24 17.488 61.384 17.352 60.288"></polygon>
                    <polygon id="Path" fill="#00CFCF" fill-rule="nonzero" points="18.344 58.848 18.424 59.92 17.328 60.016 17.248 58.92"></polygon>
                    <path d="M18.28,57.512 C18.28,57.872 18.28,58.232 18.328,58.584 L17.224,58.648 C17.224,58.288 17.224,57.92 17.176,57.552 L18.28,57.512 Z" id="Path" fill="#00CFCF" fill-rule="nonzero"></path>
                    <polygon id="Path" fill="#00CFCF" fill-rule="nonzero" points="18.248 56.176 18.272 57.248 17.176 57.28 17.144 56.176"></polygon>
                    <path d="M22.304,38.848 C19.6799933,44.2480926 18.3124848,50.1721396 18.304,56.176 L17.144,56.176 C17.1557242,51.3270648 18.0195292,46.5179182 19.696,41.968 C20.128,41.424 20.536,40.88 20.968,40.368 C21.4,39.856 21.848,39.336 22.304,38.848 Z" id="Path" fill="#00CFCF" fill-rule="nonzero"></path>
                    <path d="M20.248,40.576 C22.3306022,35.5583913 25.3992161,31.0098785 29.272,27.2 L30.072,28 C28.6638224,29.4093501 27.3515561,30.9113738 26.144,32.496 C24.9614073,34.099527 23.892144,35.7836167 22.944,37.536 C22.48,38.016 22,38.496 21.552,39 C21.104,39.504 20.672,40.04 20.248,40.576 Z" id="Path" fill="#00CFCF" fill-rule="nonzero"></path>
                    <path d="M26.04,38.104 C24.4788969,40.8442947 23.2795722,43.7753798 22.472,46.824 C21.6826937,49.8791037 21.2769048,53.0206083 21.264,56.176 L19.272,56.176 C19.2846709,52.8500558 19.7146978,49.5388492 20.552,46.32 C21.399782,43.1028248 22.6637884,40.0100431 24.312,37.12 L26.04,38.104 Z" id="Path" fill="#00CFCF" fill-rule="nonzero"></path>
                    <path d="M39.48,24.544 C36.7486825,26.1270235 34.2343522,28.0578141 32,30.288 C29.7691566,32.5227906 27.8334381,35.0338477 26.24,37.76 L24.528,36.752 C27.887219,30.9768975 32.6930445,26.1765864 38.472,22.824 L39.48,24.544 Z" id="Path" fill="#00CFCF" fill-rule="nonzero"></path>
                    <path d="M57.856,19.584 C54.7002734,19.5995181 51.5587634,20.007995 48.504,20.8 C45.4553798,21.6075722 42.5242947,22.8068969 39.784,24.368 L38.8,22.632 C41.6900431,20.9837884 44.7828248,19.719782 48,18.872 C51.2191922,18.0373965 54.5303933,17.6100581 57.856,17.6 L57.856,19.584 Z" id="Path" fill="#00CFCF" fill-rule="nonzero"></path>
                    <path d="M16.264,53.64 C16.2,54.44 16.208,55.328 16.184,56.176 L13.704,56.176 C13.704,55.28 13.704,54.384 13.792,53.488 L16.264,53.64 Z" id="Path" fill="#00CFCF" fill-rule="nonzero"></path>
                    <polygon id="Path" fill="#00CFCF" fill-rule="nonzero" points="16.56 50.592 16.4 51.856 16.304 53.12 13.832 52.944 13.936 51.6 14.112 50.264"></polygon>
                    <path d="M17.072,47.576 C16.912,48.376 16.76,49.24 16.632,50.08 L14.176,49.72 C14.312,48.832 14.472,47.944 14.648,47.064 L17.072,47.576 Z" id="Path" fill="#00CFCF" fill-rule="nonzero"></path>
                    <polygon id="Path" fill="#00CFCF" fill-rule="nonzero" points="17.824 44.6 17.48 45.824 17.192 47.064 14.776 46.528 15.08 45.216 15.44 43.912"></polygon>
                    <path d="M18.768,41.688 C18.488,42.488 18.208,43.288 17.968,44.088 L15.568,43.368 C15.824,42.512 16.128,41.664 16.424,40.816 L18.768,41.688 Z" id="Path" fill="#00CFCF" fill-rule="nonzero"></path>
                    <polygon id="Path" fill="#00CFCF" fill-rule="nonzero" points="19.952 38.864 19.432 40.024 18.96 41.208 16.648 40.32 17.144 39.064 17.696 37.832"></polygon>
                    <path d="M21.32,36.128 C20.92,36.872 20.52,37.624 20.16,38.392 L17.92,37.336 C18.304,36.536 18.72,35.736 19.144,34.936 L21.32,36.128 Z" id="Path" fill="#00CFCF" fill-rule="nonzero"></path>
                    <polygon id="Path" fill="#00CFCF" fill-rule="nonzero" points="22.896 33.504 22.208 34.576 21.576 35.68 19.416 34.456 20.096 33.288 20.816 32.152"></polygon>
                    <path d="M24.656,31 C24.144,31.672 23.656,32.368 23.176,33.064 L21.112,31.688 C21.624,30.952 22.136,30.216 22.712,29.496 L24.656,31 Z" id="Path" fill="#00CFCF" fill-rule="nonzero"></path>
                    <path d="M57.856,14.504 C45.0419541,14.5009947 32.9415666,20.4036227 25.056,30.504 L23.112,28.968 C31.4592288,18.2594841 44.2784987,11.9989104 57.856,12 L57.856,14.504 Z" id="Path" fill="#00CFCF" fill-rule="nonzero"></path>
                    <polygon id="Path" fill="#00CFCF" fill-rule="nonzero" points="31.112 26.96 30.336 27.704 29.568 26.912 30.368 26.152"></polygon>
                    <polygon id="Path" fill="#00CFCF" fill-rule="nonzero" points="32.112 26.08 31.304 26.784 30.568 25.968 31.4 25.248"></polygon>
                    <path d="M33.144,25.232 C32.856,25.448 32.576,25.672 32.344,25.912 L31.632,25.072 C31.912,24.824 32.2,24.6 32.488,24.376 L33.144,25.232 Z" id="Path" fill="#00CFCF" fill-rule="nonzero"></path>
                    <polygon id="Path" fill="#00CFCF" fill-rule="nonzero" points="34.192 24.408 33.352 25.072 32.664 24.208 33.536 23.528"></polygon>
                    <polygon id="Path" fill="#00CFCF" fill-rule="nonzero" points="35.28 23.64 34.408 24.256 33.752 23.368 34.656 22.736"></polygon>
                    <path d="M36.392,22.896 C36.096,23.096 35.784,23.272 35.496,23.488 L34.872,22.576 C35.168,22.36 35.488,22.176 35.792,21.968 L36.392,22.896 Z" id="Path" fill="#00CFCF" fill-rule="nonzero"></path>
                    <path d="M37.52,22.184 C37.208,22.36 36.912,22.568 36.608,22.752 L36,21.824 C36.312,21.632 36.608,21.416 36.928,21.24 L37.52,22.184 Z" id="Path" fill="#00CFCF" fill-rule="nonzero"></path>
                    <polygon id="Path" fill="#00CFCF" fill-rule="nonzero" points="38.68 21.52 37.744 22.056 37.184 21.104 38.144 20.56"></polygon>
                    <polygon id="Path" fill="#00CFCF" fill-rule="nonzero" points="39.856 20.896 38.904 21.384 38.376 20.424 39.36 19.912"></polygon>
                    <path d="M41.056,20.304 C40.728,20.448 40.408,20.616 40.088,20.776 L39.6,19.792 C39.92,19.624 40.248,19.456 40.584,19.312 L41.056,20.304 Z" id="Path" fill="#00CFCF" fill-rule="nonzero"></path>
                    <polygon id="Path" fill="#00CFCF" fill-rule="nonzero" points="42.272 19.752 41.296 20.2 40.832 19.2 41.84 18.744"></polygon>
                    <polygon id="Path" fill="#00CFCF" fill-rule="nonzero" points="43.512 19.256 42.512 19.648 42.08 18.64 43.112 18.232"></polygon>
                    <path d="M44.8,18.792 C44.456,18.904 44.12,19.024 43.792,19.16 L43.4,18.136 C43.744,17.992 44.088,17.864 44.44,17.752 L44.8,18.792 Z" id="Path" fill="#00CFCF" fill-rule="nonzero"></path>
                    <polygon id="Path" fill="#00CFCF" fill-rule="nonzero" points="46.024 18.368 45.008 18.712 44.648 17.672 45.696 17.312"></polygon>
                    <polygon id="Path" fill="#00CFCF" fill-rule="nonzero" points="47.304 18 46.272 18.288 45.952 17.24 47.016 16.936"></polygon>
                    <path d="M48.6,17.664 C48.248,17.744 47.904,17.824 47.56,17.928 L47.272,16.864 C47.624,16.76 47.984,16.68 48.344,16.592 L48.6,17.664 Z" id="Path" fill="#00CFCF" fill-rule="nonzero"></path>
                    <polygon id="Path" fill="#00CFCF" fill-rule="nonzero" points="49.904 17.368 48.856 17.608 48.608 16.536 49.68 16.288"></polygon>
                    <polygon id="Path" fill="#00CFCF" fill-rule="nonzero" points="51.216 17.128 50.16 17.32 49.944 16.24 51.032 16.048"></polygon>
                    <path d="M52.536,16.936 C52.176,16.936 51.824,17.016 51.472,17.088 L51.296,16 C51.656,15.928 52.024,15.888 52.384,15.84 L52.536,16.936 Z" id="Path" fill="#00CFCF" fill-rule="nonzero"></path>
                    <polygon id="Path" fill="#00CFCF" fill-rule="nonzero" points="53.856 16.768 52.792 16.896 52.656 15.808 53.752 15.672"></polygon>
                    <polygon id="Path" fill="#00CFCF" fill-rule="nonzero" points="55.192 16.664 54.12 16.744 54.016 15.656 55.112 15.568"></polygon>
                    <path d="M56.52,16.6 C56.168,16.6 55.808,16.6 55.448,16.648 L55.384,15.544 C55.752,15.544 56.12,15.544 56.488,15.504 L56.52,16.6 Z" id="Path" fill="#00CFCF" fill-rule="nonzero"></path>
                    <polygon id="Path" fill="#00CFCF" fill-rule="nonzero" points="57.856 16.568 56.784 16.592 56.752 15.496 57.856 15.464"></polygon>
                    <path d="M75.2,20.624 C69.8005584,17.9981511 63.8760828,16.6305436 57.872,16.624 L57.872,15.464 C62.7242963,15.4751824 67.5366221,16.3417801 72.088,18.024 C72.632,18.448 73.168,18.824 73.688,19.288 C74.208,19.752 74.696,20.168 75.2,20.624 Z" id="Path" fill="#00CFCF" fill-rule="nonzero"></path>
                    <path d="M73.456,18.568 C78.4764641,20.6496658 83.0277727,23.7183305 86.84,27.592 L86.04,28.392 C84.6383734,26.9755805 83.1357566,25.6627961 81.544,24.464 C79.9438486,23.2805557 78.2623576,22.211245 76.512,21.264 C76.032,20.8 75.552,20.32 75.048,19.872 C74.544,19.424 73.992,18.992 73.456,18.568 Z" id="Path" fill="#00CFCF" fill-rule="nonzero"></path>
                    <path d="M75.928,24.36 C73.1847877,22.8010346 70.2509907,21.6043896 67.2,20.8 C64.1451019,20.0096289 61.0034634,19.6038227 57.848,19.592 L57.848,17.6 C61.1765778,17.6126761 64.4904297,18.0426974 67.712,18.88 C70.9266198,19.7278317 74.01675,20.9918536 76.904,22.64 L75.928,24.36 Z" id="Path" fill="#00CFCF" fill-rule="nonzero"></path>
                    <path d="M89.496,37.8 C86.3157962,32.3133973 81.7608238,27.7501531 76.28,24.56 L77.28,22.848 C83.0520431,26.212004 87.8492587,31.0202476 91.2,36.8 L89.496,37.8 Z" id="Path" fill="#00CFCF" fill-rule="nonzero"></path>
                    <path d="M94.448,56.176 C94.4393753,53.0203257 94.0335177,49.8782895 93.24,46.824 C92.4359656,43.7741941 91.2364573,40.8426603 89.672,38.104 L91.4,37.12 C93.058501,40.0097704 94.3357895,43.102153 95.2,46.32 C96.0308232,49.539922 96.4581002,52.8506471 96.472,56.176 L94.448,56.176 Z" id="Path" fill="#00CFCF" fill-rule="nonzero"></path>
                    <path d="M60.4,14.584 C59.552,14.528 58.704,14.528 57.856,14.504 L57.856,12 C58.752,12 59.648,12 60.544,12.088 L60.4,14.584 Z" id="Path" fill="#00CFCF" fill-rule="nonzero"></path>
                    <polygon id="Path" fill="#00CFCF" fill-rule="nonzero" points="63.448 14.888 62.184 14.728 60.912 14.624 61.096 12.152 62.44 12.256 63.776 12.432"></polygon>
                    <path d="M66.464,15.4 C65.6,15.2 64.8,15.08 64,14.952 L64.36,12.496 C65.248,12.632 66.128,12.792 67.016,12.968 L66.464,15.4 Z" id="Path" fill="#00CFCF" fill-rule="nonzero"></path>
                    <polygon id="Path" fill="#00CFCF" fill-rule="nonzero" points="69.432 16.144 68.208 15.8 66.968 15.512 67.512 13.096 68.824 13.4 70.12 13.76"></polygon>
                    <path d="M72.344,17.096 C71.544,16.808 70.744,16.528 69.944,16.296 L70.664,13.896 C71.528,14.152 72.376,14.456 73.224,14.752 L72.344,17.096 Z" id="Path" fill="#00CFCF" fill-rule="nonzero"></path>
                    <polygon id="Path" fill="#00CFCF" fill-rule="nonzero" points="75.168 18.272 74.008 17.752 72.824 17.28 73.72 14.968 74.968 15.464 76.2 16.016"></polygon>
                    <path d="M77.912,19.64 C77.16,19.24 76.408,18.84 75.64,18.48 L76.704,16.24 C77.504,16.632 78.304,17.04 79.104,17.464 L77.912,19.64 Z" id="Path" fill="#00CFCF" fill-rule="nonzero"></path>
                    <polygon id="Path" fill="#00CFCF" fill-rule="nonzero" points="80.536 21.216 79.464 20.528 78.36 19.896 79.576 17.744 80.744 18.416 81.88 19.144"></polygon>
                    <path d="M83.04,22.976 C82.36,22.464 81.672,21.976 80.968,21.496 L82.344,19.44 C83.088,19.944 83.824,20.456 84.536,21 L83.04,22.976 Z" id="Path" fill="#00CFCF" fill-rule="nonzero"></path>
                    <path d="M99.536,56.176 C99.5390053,43.3619541 93.6363773,31.2615666 83.536,23.376 L85.064,21.424 C95.767937,29.7795487 102.01979,42.604997 102.008017,56.184 L99.536,56.176 Z" id="Path" fill="#00CFCF" fill-rule="nonzero"></path>
                    <polygon id="Path" fill="#00CFCF" fill-rule="nonzero" points="87.072 29.432 86.328 28.656 87.12 27.888 87.88 28.688"></polygon>
                    <polygon id="Path" fill="#00CFCF" fill-rule="nonzero" points="87.952 30.432 87.248 29.624 88.064 28.888 88.784 29.72"></polygon>
                    <path d="M88.8,31.464 C88.584,31.184 88.36,30.896 88.12,30.664 L88.92,29.952 C89.168,30.232 89.4,30.52 89.624,30.808 L88.8,31.464 Z" id="Path" fill="#00CFCF" fill-rule="nonzero"></path>
                    <polygon id="Path" fill="#00CFCF" fill-rule="nonzero" points="89.624 32.512 88.968 31.672 89.824 30.984 90.512 31.856"></polygon>
                    <polygon id="Path" fill="#00CFCF" fill-rule="nonzero" points="90.4 33.6 89.776 32.728 90.664 32.072 91.304 32.976"></polygon>
                    <path d="M91.144,34.712 C90.944,34.416 90.768,34.104 90.552,33.816 L91.456,33.192 C91.68,33.488 91.864,33.808 92.064,34.112 L91.144,34.712 Z" id="Path" fill="#00CFCF" fill-rule="nonzero"></path>
                    <path d="M91.856,35.84 C91.68,35.528 91.472,35.232 91.28,34.928 L92.208,34.344 C92.4,34.656 92.616,34.952 92.792,35.272 L91.856,35.84 Z" id="Path" fill="#00CFCF" fill-rule="nonzero"></path>
                    <polygon id="Path" fill="#00CFCF" fill-rule="nonzero" points="92.52 37 91.984 36.072 92.928 35.512 93.48 36.464"></polygon>
                    <polygon id="Path" fill="#00CFCF" fill-rule="nonzero" points="93.144 38.176 92.648 37.224 93.616 36.696 94.12 37.68"></polygon>
                    <path d="M93.728,39.376 C93.592,39.048 93.424,38.728 93.256,38.408 L94.24,37.92 C94.408,38.248 94.584,38.568 94.728,38.912 L93.728,39.376 Z" id="Path" fill="#00CFCF" fill-rule="nonzero"></path>
                    <polygon id="Path" fill="#00CFCF" fill-rule="nonzero" points="94.28 40.592 93.84 39.616 94.84 39.152 95.288 40.16"></polygon>
                    <polygon id="Path" fill="#00CFCF" fill-rule="nonzero" points="94.776 41.832 94.384 40.832 95.4 40.408 95.8 41.432"></polygon>
                    <path d="M95.24,43.08 C95.136,42.736 95.008,42.4 94.872,42.072 L95.904,41.68 C96.04,42.024 96.168,42.368 96.28,42.72 L95.24,43.08 Z" id="Path" fill="#00CFCF" fill-rule="nonzero"></path>
                    <polygon id="Path" fill="#00CFCF" fill-rule="nonzero" points="95.672 44.344 95.328 43.328 96.368 42.976 96.72 44.016"></polygon>
                    <polygon id="Path" fill="#00CFCF" fill-rule="nonzero" points="96.04 45.624 95.744 44.592 96.8 44.272 97.096 45.336"></polygon>
                    <path d="M96.368,46.92 C96.288,46.568 96.216,46.224 96.112,45.88 L97.168,45.592 C97.28,45.944 97.36,46.304 97.44,46.664 L96.368,46.92 Z" id="Path" fill="#00CFCF" fill-rule="nonzero"></path>
                    <polygon id="Path" fill="#00CFCF" fill-rule="nonzero" points="96.672 48.224 96.432 47.176 97.504 46.928 97.744 48"></polygon>
                    <polygon id="Path" fill="#00CFCF" fill-rule="nonzero" points="96.904 49.536 96.712 48.48 97.792 48.264 97.992 49.352"></polygon>
                    <path d="M97.104,50.856 C97.056,50.496 97.024,50.144 96.952,49.792 L98.032,49.616 C98.112,49.976 98.144,50.344 98.192,50.704 L97.104,50.856 Z" id="Path" fill="#00CFCF" fill-rule="nonzero"></path>
                    <polygon id="Path" fill="#00CFCF" fill-rule="nonzero" points="97.272 52.176 97.136 51.112 98.224 50.976 98.36 52.072"></polygon>
                    <polygon id="Path" fill="#00CFCF" fill-rule="nonzero" points="97.368 53.512 97.288 52.44 98.384 52.336 98.464 53.44"></polygon>
                    <path d="M97.432,54.84 C97.432,54.488 97.432,54.128 97.392,53.768 L98.488,53.704 C98.488,54.072 98.488,54.44 98.536,54.808 L97.432,54.84 Z" id="Path" fill="#00CFCF" fill-rule="nonzero"></path>
                    <polygon id="Path" fill="#00CFCF" fill-rule="nonzero" points="97.472 56.176 97.44 55.104 98.544 55.072 98.568 56.176"></polygon>
                    <circle id="Oval" fill="#00CFCF" fill-rule="nonzero" opacity="0.2" cx="58.88" cy="57.2" r="29.256"></circle>
                    <circle id="Oval" fill="#00CFCF" fill-rule="nonzero" cx="58.88" cy="57.2" r="23.712"></circle>
                    <circle id="Oval" fill="#00CFCF" fill-rule="nonzero" cx="58.88" cy="57.2" r="18.16"></circle>
                    <circle id="Oval" fill="#00CFCF" fill-rule="nonzero" opacity="0.8" transform="translate(58.871847, 57.202590) rotate(-76.720000) translate(-58.871847, -57.202590) " cx="58.8718466" cy="57.2025899" r="12.616"></circle>
                    <circle id="Oval" fill="#00CFCF" fill-rule="nonzero" cx="58.88" cy="57.2" r="7.072"></circle>
                </g>
            </g>
        </g>
    </g>
</svg>