<?xml version="1.0" encoding="UTF-8"?>
<svg width="126px" height="190px" viewBox="0 0 126 190" version="1.1" xmlns="http://www.w3.org/2000/svg" xmlns:xlink="http://www.w3.org/1999/xlink">
    <!-- Generator: Sketch 58 (84663) - https://sketch.com -->
    <title>Group 29</title>
    <desc>Created with Sketch.</desc>
    <g id="Page-1_final" stroke="none" stroke-width="1" fill="none" fill-rule="evenodd">
        <g id="1-Earth-2D-hover-point" transform="translate(-170.000000, -425.000000)">
            <g id="Group-2" transform="translate(77.000000, 394.000000)">
                <g id="Recurso-1" transform="translate(93.400000, 30.600000)">
                    <g id="Group-29" transform="translate(0.016000, 0.016000)">
                        <g id="Group-27" transform="translate(9.000000, 75.000000)">
                            <g id="Group-21" stroke="#00CFCF" stroke-width="0.52">
                                <path d="M115.84,58.2 L113.488,58.2 C113.329231,89.0315519 88.2485996,113.919199 57.4167411,113.840004 C26.5848825,113.76043 1.63274153,88.7439607 1.63274153,57.912 C1.63274153,27.0800393 26.5848825,2.0635699 57.4167411,1.983996 C88.2485996,1.90480087 113.329231,26.7924481 113.488,57.624 L114.976,57.624" id="Path"></path>
                                <path d="M114.344,66.44 L112.872,66.224" id="Path"></path>
                                <path d="M112.424,77.552 L110.216,76.752" id="Path"></path>
                                <path d="M108.248,84.816 L106.936,84.12" id="Path"></path>
                                <path d="M102.72,94.64 L100.904,93.152" id="Path"></path>
                                <path d="M96.36,100.104 L95.36,99" id="Path"></path>
                                <path d="M87.88,107.528 L86.664,105.52" id="Path"></path>
                                <path d="M80.064,110.56 L79.488,109.184" id="Path"></path>
                                <path d="M69.584,114.712 L69.112,112.408" id="Path"></path>
                                <path d="M61.208,114.936 L61.12,113.448" id="Path"></path>
                                <path d="M49.944,115.352 L50.264,113.024" id="Path"></path>
                                <path d="M41.968,112.792 L42.376,111.36" id="Path"></path>
                                <path d="M31.208,109.424 L32.288,107.336" id="Path"></path>
                                <path d="M24.552,104.328 L25.424,103.12" id="Path"></path>
                                <path d="M15.544,97.568 L17.256,95.96" id="Path"></path>
                                <path d="M10.96,90.552 L12.176,89.704" id="Path"></path>
                                <path d="M4.712,81.176 L6.864,80.232" id="Path"></path>
                                <path d="M2.736,73.024 L4.176,72.632" id="Path"></path>
                                <path d="M2.48689958e-14,62.096 L2.344,61.928" id="Path"></path>
                                <path d="M0.864,53.76 L2.344,53.864" id="Path"></path>
                                <path d="M1.904,42.536 L4.176,43.16" id="Path"></path>
                                <path d="M5.496,34.968 L6.864,35.56" id="Path"></path>
                                <path d="M10.256,24.744 L12.176,26.088" id="Path"></path>
                                <path d="M16.168,18.816 L17.256,19.832" id="Path"></path>
                                <path d="M24.056,10.76 L25.424,12.672" id="Path"></path>
                                <path d="M31.608,7.136 L32.288,8.456" id="Path"></path>
                                <path d="M41.728,2.176 L42.376,4.432" id="Path"></path>
                                <path d="M50.064,1.296 L50.264,2.768" id="Path"></path>
                                <path d="M61.256,2.55351296e-14 L61.12,2.344" id="Path"></path>
                                <path d="M69.416,1.928 L69.112,3.384" id="Path"></path>
                                <path d="M80.4,4.44 L79.488,6.608" id="Path"></path>
                                <path d="M87.432,9 L86.664,10.272" id="Path"></path>
                                <path d="M96.944,15.056 L95.36,16.792" id="Path"></path>
                                <path d="M102.056,21.696 L100.904,22.64" id="Path"></path>
                                <path d="M109.008,30.568 L106.936,31.68" id="Path"></path>
                                <path d="M111.616,38.536 L110.216,39.04" id="Path"></path>
                                <path d="M115.2,49.224 L112.872,49.568" id="Path"></path>
                            </g>
                            <path d="M93.392,73.488 C96.0175854,68.0884652 97.3851787,62.164051 97.392,56.16 L98.552,56.16 C98.5361965,61.0151898 97.6669671,65.8297998 95.984,70.384 C95.552,70.928 95.184,71.464 94.712,71.984 C94.24,72.504 93.848,73 93.392,73.488 Z" id="Path" fill="#00CFCF" fill-rule="nonzero"></path>
                            <path d="M95.448,71.76 C93.3711692,76.783061 90.3018898,81.3352812 86.424,85.144 L85.624,84.344 C87.0321776,82.9346499 88.3444439,81.4326262 89.552,79.848 C90.732672,78.2431582 91.8018491,76.5592044 92.752,74.808 C93.208,74.328 93.688,73.848 94.136,73.344 C94.584,72.84 95.024,72.296 95.448,71.76 Z" id="Path" fill="#00CFCF" fill-rule="nonzero"></path>
                            <path d="M89.656,74.232 C91.2204573,71.4933397 92.4199656,68.5618059 93.224,65.512 C94.0182705,62.4578564 94.4241404,59.3157245 94.432,56.16 L96.424,56.16 C96.4205583,59.4866516 96.0040381,62.8000025 95.184,66.024 C94.3171353,69.2282533 93.0398953,72.3070739 91.384,75.184 L89.656,74.232 Z" id="Path" fill="#00CFCF" fill-rule="nonzero"></path>
                            <path d="M76.224,87.8 C78.949097,86.207705 81.4622961,84.2777832 83.704,82.056 C85.9323599,79.8210192 87.8654077,77.3099389 89.456,74.584 L91.184,75.584 C87.8221954,81.361911 83.0137647,86.1648274 77.232,89.52 L76.224,87.8 Z" id="Path" fill="#00CFCF" fill-rule="nonzero"></path>
                            <path d="M57.84,92.784 C60.9941223,92.7609775 64.1330434,92.3444255 67.184,91.544 C70.2361734,90.7431529 73.17042,89.5463246 75.912,87.984 L76.896,89.712 C74.0074056,91.3593327 70.9177388,92.6258541 67.704,93.48 C64.481359,94.3108296 61.1679873,94.7381014 57.84,94.752 L57.84,92.784 Z" id="Path" fill="#00CFCF" fill-rule="nonzero"></path>
                            <path d="M99.432,58.704 C99.496,57.856 99.488,57.008 99.52,56.16 L101.992,56.16 C101.992,57.056 101.992,57.96 101.904,58.856 L99.432,58.704 Z" id="Path" fill="#00CFCF" fill-rule="nonzero"></path>
                            <polygon id="Path" fill="#00CFCF" fill-rule="nonzero" points="99.136 61.752 99.296 60.488 99.392 59.224 101.864 59.4 101.76 60.744 101.592 62.08"></polygon>
                            <path d="M98.624,64.784 C98.792,63.984 98.936,63.12 99.072,62.28 L101.52,62.64 C101.384,63.528 101.224,64.416 101.048,65.296 L98.624,64.784 Z" id="Path" fill="#00CFCF" fill-rule="nonzero"></path>
                            <polygon id="Path" fill="#00CFCF" fill-rule="nonzero" points="97.88 67.736 98.224 66.512 98.504 65.272 100.928 65.816 100.624 67.128 100.256 68.424"></polygon>
                            <path d="M96.928,70.648 C97.208,69.848 97.488,69.048 97.728,68.248 L100.128,68.96 C99.872,69.824 99.576,70.672 99.272,71.52 L96.928,70.648 Z" id="Path" fill="#00CFCF" fill-rule="nonzero"></path>
                            <polygon id="Path" fill="#00CFCF" fill-rule="nonzero" points="95.752 73.472 96.272 72.312 96.736 71.128 99.048 72.024 98.552 73.272 98 74.504"></polygon>
                            <path d="M94.384,76.216 C94.776,75.464 95.184,74.712 95.536,73.944 L97.776,75.008 C97.392,75.808 96.976,76.608 96.552,77.408 L94.384,76.216 Z" id="Path" fill="#00CFCF" fill-rule="nonzero"></path>
                            <polygon id="Path" fill="#00CFCF" fill-rule="nonzero" points="92.8 78.84 93.488 77.768 94.12 76.664 96.28 77.888 95.608 79.048 94.88 80.184"></polygon>
                            <path d="M91.048,81.344 C91.56,80.672 92.04,79.976 92.52,79.272 L94.584,80.648 C94.08,81.392 93.56,82.128 92.984,82.84 L91.048,81.344 Z" id="Path" fill="#00CFCF" fill-rule="nonzero"></path>
                            <path d="M57.84,97.84 C70.6540459,97.8430053 82.7544334,91.9403773 90.64,81.84 L92.592,83.368 C84.2293508,94.0685205 71.4046863,100.321504 57.824,100.32 L57.84,97.84 Z" id="Path" fill="#00CFCF" fill-rule="nonzero"></path>
                            <polygon id="Path" fill="#00CFCF" fill-rule="nonzero" points="84.584 85.376 85.368 84.632 86.128 85.424 85.328 86.184"></polygon>
                            <polygon id="Path" fill="#00CFCF" fill-rule="nonzero" points="83.584 86.256 84.392 85.552 85.136 86.368 84.296 87.096"></polygon>
                            <path d="M82.56,87.104 C82.84,86.888 83.12,86.664 83.36,86.424 L84.072,87.224 C83.8,87.472 83.512,87.704 83.216,87.928 L82.56,87.104 Z" id="Path" fill="#00CFCF" fill-rule="nonzero"></path>
                            <polygon id="Path" fill="#00CFCF" fill-rule="nonzero" points="81.504 87.928 82.352 87.272 83.032 88.136 82.16 88.816"></polygon>
                            <polygon id="Path" fill="#00CFCF" fill-rule="nonzero" points="80.416 88.704 81.296 88.08 81.944 88.968 81.048 89.608"></polygon>
                            <path d="M79.304,89.448 C79.608,89.248 79.92,89.072 80.208,88.856 L80.824,89.76 C80.528,89.984 80.208,90.168 79.904,90.368 L79.304,89.448 Z" id="Path" fill="#00CFCF" fill-rule="nonzero"></path>
                            <path d="M78.176,90.16 C78.488,89.984 78.784,89.776 79.088,89.584 L79.68,90.512 C79.368,90.712 79.064,90.92 78.744,91.104 L78.176,90.16 Z" id="Path" fill="#00CFCF" fill-rule="nonzero"></path>
                            <polygon id="Path" fill="#00CFCF" fill-rule="nonzero" points="77.024 90.824 77.952 90.288 78.512 91.232 77.552 91.784"></polygon>
                            <polygon id="Path" fill="#00CFCF" fill-rule="nonzero" points="75.84 91.448 76.792 90.952 77.32 91.92 76.344 92.424"></polygon>
                            <path d="M74.648,92.04 C74.976,91.896 75.288,91.728 75.608,91.568 L76.104,92.544 C75.776,92.712 75.448,92.888 75.112,93.032 L74.648,92.04 Z" id="Path" fill="#00CFCF" fill-rule="nonzero"></path>
                            <polygon id="Path" fill="#00CFCF" fill-rule="nonzero" points="73.432 92.584 74.408 92.144 74.864 93.144 73.864 93.6"></polygon>
                            <polygon id="Path" fill="#00CFCF" fill-rule="nonzero" points="72.192 93.088 73.184 92.688 73.616 93.704 72.592 94.112"></polygon>
                            <path d="M70.936,93.584 C71.2790806,93.4816732 71.6156895,93.3587842 71.944,93.216 L72.336,94.248 C72,94.384 71.656,94.512 71.304,94.624 L70.936,93.584 Z" id="Path" fill="#00CFCF" fill-rule="nonzero"></path>
                            <polygon id="Path" fill="#00CFCF" fill-rule="nonzero" points="69.672 93.976 70.688 93.632 71.048 94.672 70 95.024"></polygon>
                            <polygon id="Path" fill="#00CFCF" fill-rule="nonzero" points="68.392 94.344 69.424 94.048 69.744 95.104 68.688 95.4"></polygon>
                            <path d="M67.096,94.672 C67.448,94.592 67.8,94.52 68.136,94.416 L68.424,95.48 C68.072,95.584 67.712,95.664 67.352,95.744 L67.096,94.672 Z" id="Path" fill="#00CFCF" fill-rule="nonzero"></path>
                            <polygon id="Path" fill="#00CFCF" fill-rule="nonzero" points="65.8 94.976 66.848 94.736 67.096 95.808 66.016 96.048"></polygon>
                            <polygon id="Path" fill="#00CFCF" fill-rule="nonzero" points="64.488 95.208 65.544 95.024 65.752 96.096 64.672 96.296"></polygon>
                            <path d="M63.184,95.408 C63.536,95.36 63.896,95.328 64.24,95.256 L64.416,96.344 C64.056,96.416 63.688,96.448 63.328,96.496 L63.184,95.408 Z" id="Path" fill="#00CFCF" fill-rule="nonzero"></path>
                            <polygon id="Path" fill="#00CFCF" fill-rule="nonzero" points="61.84 95.576 62.904 95.44 63.048 96.536 61.952 96.672"></polygon>
                            <polygon id="Path" fill="#00CFCF" fill-rule="nonzero" points="60.512 95.672 61.584 95.592 61.68 96.688 60.584 96.768"></polygon>
                            <path d="M59.184,95.744 C59.544,95.744 59.904,95.744 60.256,95.696 L60.32,96.792 C59.96,96.792 59.592,96.792 59.224,96.84 L59.184,95.744 Z" id="Path" fill="#00CFCF" fill-rule="nonzero"></path>
                            <polygon id="Path" fill="#00CFCF" fill-rule="nonzero" points="57.84 95.776 58.912 95.744 58.944 96.848 57.84 96.872"></polygon>
                            <path d="M40.512,91.72 C45.913388,94.340338 51.8365834,95.70765 57.84,95.72 L57.84,96.88 C52.9907042,96.8722788 48.1808633,96.008349 43.632,94.328 C43.088,93.896 42.544,93.528 42.032,93.056 C41.52,92.584 41,92.176 40.512,91.72 Z" id="Path" fill="#00CFCF" fill-rule="nonzero"></path>
                            <path d="M42.24,93.776 C37.2225649,91.7032372 32.6715676,88.6456634 28.856,84.784 L29.656,83.984 C32.4532092,86.831661 35.6689557,89.2353776 39.192,91.112 C39.672,91.568 40.144,92.056 40.656,92.504 C41.168,92.952 41.704,93.344 42.24,93.776 Z" id="Path" fill="#00CFCF" fill-rule="nonzero"></path>
                            <path d="M39.768,87.984 C42.5066603,89.5484573 45.4381941,90.7479656 48.488,91.552 C51.5420985,92.3493214 54.6836089,92.7631731 57.84,92.784 L57.84,94.768 C54.5136436,94.7462606 51.2029025,94.3109196 47.984,93.472 C44.7677033,92.6179087 41.6753841,91.3514023 38.784,89.704 L39.768,87.984 Z" id="Path" fill="#00CFCF" fill-rule="nonzero"></path>
                            <path d="M26.2,74.544 C29.3835207,80.028676 33.9412503,84.5891629 39.424,87.776 L38.384,89.496 C35.5129357,87.814294 32.8676672,85.7738888 30.512,83.424 C28.1624144,81.0690871 26.1269016,78.4205005 24.456,75.544 L26.2,74.544 Z" id="Path" fill="#00CFCF" fill-rule="nonzero"></path>
                            <path d="M21.248,56.16 C21.2598227,59.3154634 21.6656289,62.4571019 22.456,65.512 C23.2635722,68.5606202 24.4628969,71.4917053 26.024,74.232 L24.296,75.184 C22.6478536,72.29675 21.3838317,69.2066198 20.536,65.992 C19.6986974,62.7704297 19.2686761,59.4565778 19.256,56.128 L21.248,56.16 Z" id="Path" fill="#00CFCF" fill-rule="nonzero"></path>
                            <path d="M55.304,97.752 C56.104,97.816 56.992,97.808 57.84,97.84 L57.84,100.32 C56.944,100.32 56.048,100.32 55.152,100.224 L55.304,97.752 Z" id="Path" fill="#00CFCF" fill-rule="nonzero"></path>
                            <polygon id="Path" fill="#00CFCF" fill-rule="nonzero" points="52.256 97.456 53.52 97.616 54.784 97.72 54.608 100.184 53.264 100.08 51.928 99.912"></polygon>
                            <path d="M49.232,96.944 C50.032,97.112 50.904,97.264 51.736,97.392 L51.376,99.84 C50.496,99.704 49.608,99.544 48.728,99.368 L49.232,96.944 Z" id="Path" fill="#00CFCF" fill-rule="nonzero"></path>
                            <polygon id="Path" fill="#00CFCF" fill-rule="nonzero" points="46.264 96.2 47.488 96.544 48.728 96.832 48.192 99.248 46.88 98.944 45.576 98.576"></polygon>
                            <path d="M43.352,95.248 C44.152,95.528 44.952,95.808 45.752,96.048 L45.032,98.448 C44.176,98.192 43.328,97.896 42.48,97.592 L43.352,95.248 Z" id="Path" fill="#00CFCF" fill-rule="nonzero"></path>
                            <polygon id="Path" fill="#00CFCF" fill-rule="nonzero" points="40.528 94.072 41.688 94.592 42.872 95.056 41.984 97.368 40.728 96.872 39.496 96.32"></polygon>
                            <path d="M37.792,92.704 C38.536,93.104 39.288,93.504 40.056,93.856 L39,96.096 C38.2,95.712 37.4,95.296 36.6,94.872 L37.792,92.704 Z" id="Path" fill="#00CFCF" fill-rule="nonzero"></path>
                            <polygon id="Path" fill="#00CFCF" fill-rule="nonzero" points="35.168 91.12 36.24 91.808 37.344 92.44 36.12 94.6 34.952 93.928 33.816 93.2"></polygon>
                            <path d="M32.656,89.368 C33.336,89.88 34.032,90.368 34.728,90.84 L33.352,92.904 C32.616,92.4 31.88,91.88 31.16,91.304 L32.656,89.368 Z" id="Path" fill="#00CFCF" fill-rule="nonzero"></path>
                            <path d="M16.168,56.16 C16.1649947,68.9740459 22.0676227,81.0744334 32.168,88.96 L30.64,90.912 C19.939115,82.5566896 13.6854142,69.7364555 13.6879992,56.16 L16.168,56.16 Z" id="Path" fill="#00CFCF" fill-rule="nonzero"></path>
                            <polygon id="Path" fill="#00CFCF" fill-rule="nonzero" points="28.624 82.912 29.368 83.688 28.576 84.448 27.816 83.648"></polygon>
                            <polygon id="Path" fill="#00CFCF" fill-rule="nonzero" points="27.744 81.904 28.448 82.72 27.632 83.456 26.912 82.624"></polygon>
                            <path d="M26.896,80.88 C27.112,81.16 27.336,81.44 27.576,81.68 L26.736,82.392 C26.488,82.12 26.264,81.832 26.04,81.544 L26.896,80.88 Z" id="Path" fill="#00CFCF" fill-rule="nonzero"></path>
                            <polygon id="Path" fill="#00CFCF" fill-rule="nonzero" points="26.072 79.824 26.736 80.672 25.872 81.352 25.192 80.488"></polygon>
                            <polygon id="Path" fill="#00CFCF" fill-rule="nonzero" points="25.296 78.736 25.92 79.616 25.032 80.264 24.4 79.368"></polygon>
                            <path d="M24.56,77.632 C24.752,77.928 24.936,78.24 25.144,78.528 L24.24,79.184 C24.024,78.888 23.84,78.568 23.632,78.264 L24.56,77.632 Z" id="Path" fill="#00CFCF" fill-rule="nonzero"></path>
                            <path d="M23.848,76.496 C24.024,76.816 24.224,77.104 24.416,77.408 L23.488,78 C23.296,77.688 23.08,77.384 22.904,77.064 L23.848,76.496 Z" id="Path" fill="#00CFCF" fill-rule="nonzero"></path>
                            <polygon id="Path" fill="#00CFCF" fill-rule="nonzero" points="23.184 75.344 23.712 76.272 22.768 76.832 22.216 75.872"></polygon>
                            <polygon id="Path" fill="#00CFCF" fill-rule="nonzero" points="22.56 74.16 23.048 75.112 22.088 75.64 21.576 74.664"></polygon>
                            <path d="M21.968,72.968 C22.112,73.296 22.272,73.608 22.44,73.928 L21.456,74.424 C21.288,74.096 21.12,73.768 20.968,73.432 L21.968,72.968 Z" id="Path" fill="#00CFCF" fill-rule="nonzero"></path>
                            <polygon id="Path" fill="#00CFCF" fill-rule="nonzero" points="21.416 71.752 21.856 72.728 20.864 73.184 20.408 72.184"></polygon>
                            <polygon id="Path" fill="#00CFCF" fill-rule="nonzero" points="20.92 70.512 21.312 71.512 20.296 71.936 19.896 70.912"></polygon>
                            <path d="M20.456,69.256 C20.568,69.6 20.688,69.936 20.824,70.264 L19.8,70.656 C19.656,70.32 19.528,69.976 19.416,69.624 L20.456,69.256 Z" id="Path" fill="#00CFCF" fill-rule="nonzero"></path>
                            <polygon id="Path" fill="#00CFCF" fill-rule="nonzero" points="20.024 67.992 20.368 69.008 19.328 69.368 18.976 68.32"></polygon>
                            <polygon id="Path" fill="#00CFCF" fill-rule="nonzero" points="19.664 66.712 19.952 67.744 18.904 68.064 18.6 67.008"></polygon>
                            <path d="M19.328,65.424 C19.408,65.768 19.488,66.12 19.592,66.464 L18.528,66.744 C18.416,66.392 18.344,66.032 18.256,65.68 L19.328,65.424 Z" id="Path" fill="#00CFCF" fill-rule="nonzero"></path>
                            <polygon id="Path" fill="#00CFCF" fill-rule="nonzero" points="19.032 64.12 19.272 65.168 18.2 65.416 17.952 64.336"></polygon>
                            <polygon id="Path" fill="#00CFCF" fill-rule="nonzero" points="18.792 62.808 18.984 63.864 17.904 64.072 17.712 62.992"></polygon>
                            <path d="M18.592,61.488 C18.64,61.84 18.68,62.2 18.752,62.544 L17.664,62.72 C17.592,62.36 17.552,62 17.504,61.632 L18.592,61.488 Z" id="Path" fill="#00CFCF" fill-rule="nonzero"></path>
                            <polygon id="Path" fill="#00CFCF" fill-rule="nonzero" points="18.432 60.16 18.56 61.224 17.472 61.368 17.336 60.272"></polygon>
                            <polygon id="Path" fill="#00CFCF" fill-rule="nonzero" points="18.328 58.832 18.408 59.904 17.312 60 17.232 58.904"></polygon>
                            <path d="M18.264,57.496 C18.264,57.856 18.264,58.216 18.312,58.568 L17.208,58.632 C17.208,58.272 17.208,57.904 17.16,57.536 L18.264,57.496 Z" id="Path" fill="#00CFCF" fill-rule="nonzero"></path>
                            <polygon id="Path" fill="#00CFCF" fill-rule="nonzero" points="18.232 56.16 18.256 57.232 17.16 57.264 17.128 56.16"></polygon>
                            <path d="M22.288,38.832 C19.6639933,44.2320926 18.2964848,50.1561396 18.288,56.16 L17.128,56.16 C17.1397242,51.3110648 18.0035292,46.5019182 19.68,41.952 C20.112,41.408 20.52,40.864 20.952,40.352 C21.384,39.84 21.832,39.32 22.288,38.832 Z" id="Path" fill="#00CFCF" fill-rule="nonzero"></path>
                            <path d="M20.232,40.56 C22.3146022,35.5423913 25.3832161,30.9938785 29.256,27.184 L30.056,27.984 C28.6478224,29.3933501 27.3355561,30.8953738 26.128,32.48 C24.9454073,34.083527 23.876144,35.7676167 22.928,37.52 C22.464,38 21.984,38.48 21.536,38.984 C21.088,39.488 20.656,40.024 20.232,40.56 Z" id="Path" fill="#00CFCF" fill-rule="nonzero"></path>
                            <path d="M26.024,38.088 C24.4628969,40.8282947 23.2635722,43.7593798 22.456,46.808 C21.6666937,49.8631037 21.2609048,53.0046083 21.248,56.16 L19.256,56.16 C19.2686709,52.8340558 19.6986978,49.5228492 20.536,46.304 C21.383782,43.0868248 22.6477884,39.9940431 24.296,37.104 L26.024,38.088 Z" id="Path" fill="#00CFCF" fill-rule="nonzero"></path>
                            <path d="M39.464,24.528 C36.7326825,26.1110235 34.2183522,28.0418141 31.984,30.272 C29.7531566,32.5067906 27.8174381,35.0178477 26.224,37.744 L24.512,36.736 C27.871219,30.9608975 32.6770445,26.1605864 38.456,22.808 L39.464,24.528 Z" id="Path" fill="#00CFCF" fill-rule="nonzero"></path>
                            <path d="M57.84,19.568 C54.6842734,19.5835181 51.5427634,19.991995 48.488,20.784 C45.4393798,21.5915722 42.5082947,22.7908969 39.768,24.352 L38.784,22.616 C41.6740431,20.9677884 44.7668248,19.703782 47.984,18.856 C51.2031922,18.0213965 54.5143933,17.5940581 57.84,17.584 L57.84,19.568 Z" id="Path" fill="#00CFCF" fill-rule="nonzero"></path>
                            <path d="M16.248,53.624 C16.184,54.424 16.192,55.312 16.168,56.16 L13.688,56.16 C13.688,55.264 13.688,54.368 13.776,53.472 L16.248,53.624 Z" id="Path" fill="#00CFCF" fill-rule="nonzero"></path>
                            <polygon id="Path" fill="#00CFCF" fill-rule="nonzero" points="16.544 50.576 16.384 51.84 16.288 53.104 13.816 52.928 13.92 51.584 14.096 50.248"></polygon>
                            <path d="M17.056,47.56 C16.896,48.36 16.744,49.224 16.616,50.064 L14.16,49.704 C14.296,48.816 14.456,47.928 14.632,47.048 L17.056,47.56 Z" id="Path" fill="#00CFCF" fill-rule="nonzero"></path>
                            <polygon id="Path" fill="#00CFCF" fill-rule="nonzero" points="17.808 44.584 17.464 45.808 17.176 47.048 14.76 46.512 15.064 45.2 15.424 43.896"></polygon>
                            <path d="M18.752,41.672 C18.472,42.472 18.192,43.272 17.952,44.072 L15.552,43.352 C15.808,42.496 16.112,41.648 16.408,40.8 L18.752,41.672 Z" id="Path" fill="#00CFCF" fill-rule="nonzero"></path>
                            <polygon id="Path" fill="#00CFCF" fill-rule="nonzero" points="19.936 38.848 19.416 40.008 18.944 41.192 16.632 40.304 17.128 39.048 17.68 37.816"></polygon>
                            <path d="M21.304,36.112 C20.904,36.856 20.504,37.608 20.144,38.376 L17.904,37.32 C18.288,36.52 18.704,35.72 19.128,34.92 L21.304,36.112 Z" id="Path" fill="#00CFCF" fill-rule="nonzero"></path>
                            <polygon id="Path" fill="#00CFCF" fill-rule="nonzero" points="22.88 33.488 22.192 34.56 21.56 35.664 19.4 34.44 20.08 33.272 20.8 32.136"></polygon>
                            <path d="M24.64,30.984 C24.128,31.656 23.64,32.352 23.16,33.048 L21.096,31.672 C21.608,30.936 22.12,30.2 22.696,29.48 L24.64,30.984 Z" id="Path" fill="#00CFCF" fill-rule="nonzero"></path>
                            <path d="M57.84,14.488 C45.0259541,14.4849947 32.9255666,20.3876227 25.04,30.488 L23.096,28.952 C31.4432288,18.2434841 44.2624987,11.9829104 57.84,11.984 L57.84,14.488 Z" id="Path" fill="#00CFCF" fill-rule="nonzero"></path>
                            <polygon id="Path" fill="#00CFCF" fill-rule="nonzero" points="31.096 26.944 30.32 27.688 29.552 26.896 30.352 26.136"></polygon>
                            <polygon id="Path" fill="#00CFCF" fill-rule="nonzero" points="32.096 26.064 31.288 26.768 30.552 25.952 31.384 25.232"></polygon>
                            <path d="M33.128,25.216 C32.84,25.432 32.56,25.656 32.328,25.896 L31.616,25.056 C31.896,24.808 32.184,24.584 32.472,24.36 L33.128,25.216 Z" id="Path" fill="#00CFCF" fill-rule="nonzero"></path>
                            <polygon id="Path" fill="#00CFCF" fill-rule="nonzero" points="34.176 24.392 33.336 25.056 32.648 24.192 33.52 23.512"></polygon>
                            <polygon id="Path" fill="#00CFCF" fill-rule="nonzero" points="35.264 23.624 34.392 24.24 33.736 23.352 34.64 22.72"></polygon>
                            <path d="M36.376,22.88 C36.08,23.08 35.768,23.256 35.48,23.472 L34.856,22.56 C35.152,22.344 35.472,22.16 35.776,21.952 L36.376,22.88 Z" id="Path" fill="#00CFCF" fill-rule="nonzero"></path>
                            <path d="M37.504,22.168 C37.192,22.344 36.896,22.552 36.592,22.736 L35.984,21.808 C36.296,21.616 36.592,21.4 36.912,21.224 L37.504,22.168 Z" id="Path" fill="#00CFCF" fill-rule="nonzero"></path>
                            <polygon id="Path" fill="#00CFCF" fill-rule="nonzero" points="38.664 21.504 37.728 22.04 37.168 21.088 38.128 20.544"></polygon>
                            <polygon id="Path" fill="#00CFCF" fill-rule="nonzero" points="39.84 20.88 38.888 21.368 38.36 20.408 39.344 19.896"></polygon>
                            <path d="M41.04,20.288 C40.712,20.432 40.392,20.6 40.072,20.76 L39.584,19.776 C39.904,19.608 40.232,19.44 40.568,19.296 L41.04,20.288 Z" id="Path" fill="#00CFCF" fill-rule="nonzero"></path>
                            <polygon id="Path" fill="#00CFCF" fill-rule="nonzero" points="42.256 19.736 41.28 20.184 40.816 19.184 41.824 18.728"></polygon>
                            <polygon id="Path" fill="#00CFCF" fill-rule="nonzero" points="43.496 19.24 42.496 19.632 42.064 18.624 43.096 18.216"></polygon>
                            <path d="M44.784,18.776 C44.44,18.888 44.104,19.008 43.776,19.144 L43.384,18.12 C43.728,17.976 44.072,17.848 44.424,17.736 L44.784,18.776 Z" id="Path" fill="#00CFCF" fill-rule="nonzero"></path>
                            <polygon id="Path" fill="#00CFCF" fill-rule="nonzero" points="46.008 18.352 44.992 18.696 44.632 17.656 45.68 17.296"></polygon>
                            <polygon id="Path" fill="#00CFCF" fill-rule="nonzero" points="47.288 17.984 46.256 18.272 45.936 17.224 47 16.92"></polygon>
                            <path d="M48.584,17.648 C48.232,17.728 47.888,17.808 47.544,17.912 L47.256,16.848 C47.608,16.744 47.968,16.664 48.328,16.576 L48.584,17.648 Z" id="Path" fill="#00CFCF" fill-rule="nonzero"></path>
                            <polygon id="Path" fill="#00CFCF" fill-rule="nonzero" points="49.888 17.352 48.84 17.592 48.592 16.52 49.664 16.272"></polygon>
                            <polygon id="Path" fill="#00CFCF" fill-rule="nonzero" points="51.2 17.112 50.144 17.304 49.928 16.224 51.016 16.032"></polygon>
                            <path d="M52.52,16.92 C52.16,16.92 51.808,17 51.456,17.072 L51.28,15.984 C51.64,15.912 52.008,15.872 52.368,15.824 L52.52,16.92 Z" id="Path" fill="#00CFCF" fill-rule="nonzero"></path>
                            <polygon id="Path" fill="#00CFCF" fill-rule="nonzero" points="53.84 16.752 52.776 16.88 52.64 15.792 53.736 15.656"></polygon>
                            <polygon id="Path" fill="#00CFCF" fill-rule="nonzero" points="55.176 16.648 54.104 16.728 54 15.64 55.096 15.552"></polygon>
                            <path d="M56.504,16.584 C56.152,16.584 55.792,16.584 55.432,16.632 L55.368,15.528 C55.736,15.528 56.104,15.528 56.472,15.488 L56.504,16.584 Z" id="Path" fill="#00CFCF" fill-rule="nonzero"></path>
                            <polygon id="Path" fill="#00CFCF" fill-rule="nonzero" points="57.84 16.552 56.768 16.576 56.736 15.48 57.84 15.448"></polygon>
                            <path d="M75.184,20.608 C69.7845584,17.9821511 63.8600828,16.6145436 57.856,16.608 L57.856,15.448 C62.7082963,15.4591824 67.5206221,16.3257801 72.072,18.008 C72.616,18.432 73.152,18.808 73.672,19.272 C74.192,19.736 74.68,20.152 75.184,20.608 Z" id="Path" fill="#00CFCF" fill-rule="nonzero"></path>
                            <path d="M73.44,18.552 C78.4604641,20.6336658 83.0117727,23.7023305 86.824,27.576 L86.024,28.376 C84.6223734,26.9595805 83.1197566,25.6467961 81.528,24.448 C79.9278486,23.2645557 78.2463576,22.195245 76.496,21.248 C76.016,20.784 75.536,20.304 75.032,19.856 C74.528,19.408 73.976,18.976 73.44,18.552 Z" id="Path" fill="#00CFCF" fill-rule="nonzero"></path>
                            <path d="M75.912,24.344 C73.1687877,22.7850346 70.2349907,21.5883896 67.184,20.784 C64.1291019,19.9936289 60.9874634,19.5878227 57.832,19.576 L57.832,17.584 C61.1605778,17.5966761 64.4744297,18.0266974 67.696,18.864 C70.9106198,19.7118317 74.00075,20.9758536 76.888,22.624 L75.912,24.344 Z" id="Path" fill="#00CFCF" fill-rule="nonzero"></path>
                            <path d="M89.48,37.784 C86.2997962,32.2973973 81.7448238,27.7341531 76.264,24.544 L77.264,22.832 C83.0360431,26.196004 87.8332587,31.0042476 91.184,36.784 L89.48,37.784 Z" id="Path" fill="#00CFCF" fill-rule="nonzero"></path>
                            <path d="M94.432,56.16 C94.4233753,53.0043257 94.0175177,49.8622895 93.224,46.808 C92.4199656,43.7581941 91.2204573,40.8266603 89.656,38.088 L91.384,37.104 C93.042501,39.9937704 94.3197895,43.086153 95.184,46.304 C96.0148232,49.523922 96.4421002,52.8346471 96.456,56.16 L94.432,56.16 Z" id="Path" fill="#00CFCF" fill-rule="nonzero"></path>
                            <path d="M60.384,14.568 C59.536,14.512 58.688,14.512 57.84,14.488 L57.84,11.984 C58.736,11.984 59.632,11.984 60.528,12.072 L60.384,14.568 Z" id="Path" fill="#00CFCF" fill-rule="nonzero"></path>
                            <polygon id="Path" fill="#00CFCF" fill-rule="nonzero" points="63.432 14.872 62.168 14.712 60.896 14.608 61.08 12.136 62.424 12.24 63.76 12.416"></polygon>
                            <path d="M66.448,15.384 C65.584,15.184 64.784,15.064 63.984,14.936 L64.344,12.48 C65.232,12.616 66.112,12.776 67,12.952 L66.448,15.384 Z" id="Path" fill="#00CFCF" fill-rule="nonzero"></path>
                            <polygon id="Path" fill="#00CFCF" fill-rule="nonzero" points="69.416 16.128 68.192 15.784 66.952 15.496 67.496 13.08 68.808 13.384 70.104 13.744"></polygon>
                            <path d="M72.328,17.08 C71.528,16.792 70.728,16.512 69.928,16.28 L70.648,13.88 C71.512,14.136 72.36,14.44 73.208,14.736 L72.328,17.08 Z" id="Path" fill="#00CFCF" fill-rule="nonzero"></path>
                            <polygon id="Path" fill="#00CFCF" fill-rule="nonzero" points="75.152 18.256 73.992 17.736 72.808 17.264 73.704 14.952 74.952 15.448 76.184 16"></polygon>
                            <path d="M77.896,19.624 C77.144,19.224 76.392,18.824 75.624,18.464 L76.688,16.224 C77.488,16.616 78.288,17.024 79.088,17.448 L77.896,19.624 Z" id="Path" fill="#00CFCF" fill-rule="nonzero"></path>
                            <polygon id="Path" fill="#00CFCF" fill-rule="nonzero" points="80.52 21.2 79.448 20.512 78.344 19.88 79.56 17.728 80.728 18.4 81.864 19.128"></polygon>
                            <path d="M83.024,22.96 C82.344,22.448 81.656,21.96 80.952,21.48 L82.328,19.424 C83.072,19.928 83.808,20.44 84.52,20.984 L83.024,22.96 Z" id="Path" fill="#00CFCF" fill-rule="nonzero"></path>
                            <path d="M99.52,56.16 C99.5230053,43.3459541 93.6203773,31.2455666 83.52,23.36 L85.048,21.408 C95.751937,29.7635487 102.00379,42.588997 101.992017,56.168 L99.52,56.16 Z" id="Path" fill="#00CFCF" fill-rule="nonzero"></path>
                            <polygon id="Path" fill="#00CFCF" fill-rule="nonzero" points="87.056 29.416 86.312 28.64 87.104 27.872 87.864 28.672"></polygon>
                            <polygon id="Path" fill="#00CFCF" fill-rule="nonzero" points="87.936 30.416 87.232 29.608 88.048 28.872 88.768 29.704"></polygon>
                            <path d="M88.784,31.448 C88.568,31.168 88.344,30.88 88.104,30.648 L88.904,29.936 C89.152,30.216 89.384,30.504 89.608,30.792 L88.784,31.448 Z" id="Path" fill="#00CFCF" fill-rule="nonzero"></path>
                            <polygon id="Path" fill="#00CFCF" fill-rule="nonzero" points="89.608 32.496 88.952 31.656 89.808 30.968 90.496 31.84"></polygon>
                            <polygon id="Path" fill="#00CFCF" fill-rule="nonzero" points="90.384 33.584 89.76 32.712 90.648 32.056 91.288 32.96"></polygon>
                            <path d="M91.128,34.696 C90.928,34.4 90.752,34.088 90.536,33.8 L91.44,33.176 C91.664,33.472 91.848,33.792 92.048,34.096 L91.128,34.696 Z" id="Path" fill="#00CFCF" fill-rule="nonzero"></path>
                            <path d="M91.84,35.824 C91.664,35.512 91.456,35.216 91.264,34.912 L92.192,34.328 C92.384,34.64 92.6,34.936 92.776,35.256 L91.84,35.824 Z" id="Path" fill="#00CFCF" fill-rule="nonzero"></path>
                            <polygon id="Path" fill="#00CFCF" fill-rule="nonzero" points="92.504 36.984 91.968 36.056 92.912 35.496 93.464 36.448"></polygon>
                            <polygon id="Path" fill="#00CFCF" fill-rule="nonzero" points="93.128 38.16 92.632 37.208 93.6 36.68 94.104 37.664"></polygon>
                            <path d="M93.712,39.36 C93.576,39.032 93.408,38.712 93.24,38.392 L94.224,37.904 C94.392,38.232 94.568,38.552 94.712,38.896 L93.712,39.36 Z" id="Path" fill="#00CFCF" fill-rule="nonzero"></path>
                            <polygon id="Path" fill="#00CFCF" fill-rule="nonzero" points="94.264 40.576 93.824 39.6 94.824 39.136 95.272 40.144"></polygon>
                            <polygon id="Path" fill="#00CFCF" fill-rule="nonzero" points="94.76 41.816 94.368 40.816 95.384 40.392 95.784 41.416"></polygon>
                            <path d="M95.224,43.064 C95.12,42.72 94.992,42.384 94.856,42.056 L95.888,41.664 C96.024,42.008 96.152,42.352 96.264,42.704 L95.224,43.064 Z" id="Path" fill="#00CFCF" fill-rule="nonzero"></path>
                            <polygon id="Path" fill="#00CFCF" fill-rule="nonzero" points="95.656 44.328 95.312 43.312 96.352 42.96 96.704 44"></polygon>
                            <polygon id="Path" fill="#00CFCF" fill-rule="nonzero" points="96.024 45.608 95.728 44.576 96.784 44.256 97.08 45.32"></polygon>
                            <path d="M96.352,46.904 C96.272,46.552 96.2,46.208 96.096,45.864 L97.152,45.576 C97.264,45.928 97.344,46.288 97.424,46.648 L96.352,46.904 Z" id="Path" fill="#00CFCF" fill-rule="nonzero"></path>
                            <polygon id="Path" fill="#00CFCF" fill-rule="nonzero" points="96.656 48.208 96.416 47.16 97.488 46.912 97.728 47.984"></polygon>
                            <polygon id="Path" fill="#00CFCF" fill-rule="nonzero" points="96.888 49.52 96.696 48.464 97.776 48.248 97.976 49.336"></polygon>
                            <path d="M97.088,50.84 C97.04,50.48 97.008,50.128 96.936,49.776 L98.016,49.6 C98.096,49.96 98.128,50.328 98.176,50.688 L97.088,50.84 Z" id="Path" fill="#00CFCF" fill-rule="nonzero"></path>
                            <polygon id="Path" fill="#00CFCF" fill-rule="nonzero" points="97.256 52.16 97.12 51.096 98.208 50.96 98.344 52.056"></polygon>
                            <polygon id="Path" fill="#00CFCF" fill-rule="nonzero" points="97.352 53.496 97.272 52.424 98.368 52.32 98.448 53.424"></polygon>
                            <path d="M97.416,54.824 C97.416,54.472 97.416,54.112 97.376,53.752 L98.472,53.688 C98.472,54.056 98.472,54.424 98.52,54.792 L97.416,54.824 Z" id="Path" fill="#00CFCF" fill-rule="nonzero"></path>
                            <polygon id="Path" fill="#00CFCF" fill-rule="nonzero" points="97.456 56.16 97.424 55.088 98.528 55.056 98.552 56.16"></polygon>
                        </g>
                        <g id="Group-28" transform="translate(0.169600, 0.785504)">
                            <polygon id="Fill-14" fill="#00CFCF" points="3.90798505e-14 4.9968 21.99168 4.9968 21.99168 4.4408921e-15 3.90798505e-14 4.4408921e-15"></polygon>
                            <polyline id="Stroke-16" stroke="#00CFCF" stroke-width="1.07712" points="17.867232 1.98288 68.330592 32.68656 68.330592 128.98512"></polyline>
                        </g>
                    </g>
                </g>
            </g>
        </g>
    </g>
</svg>