<svg width="300" height="147" xmlns="http://www.w3.org/2000/svg" class="svg" preserveAspectRatio="xMidYMid " version="1.0">

 <g>
  <title>Layer 1</title>
  <g id="svg_1" fill="#262323" transform="translate(0 300) scale(0.1 -0.1)">
   <path fill="#00cfcf" class="node" id="node1" d="m755,2947c-3,-7 -4,-102 -3,-212l3,-200l283,-3l282,-2l-2,212l-3,213l-278,3c-220,2 -279,0 -282,-11z"/>
   <path fill="#00cfcf" class="node" id="node2" d="m1377,2953c-4,-3 -7,-100 -7,-215l0,-208l283,2l282,3l3,213l2,212l-278,0c-153,0 -282,-3 -285,-7z"/>
   <path fill="#00cfcf" class="node" id="node3" d="m2225,2861c-30,-13 -46,-35 -48,-68c-2,-28 -2,-28 68,-33l70,-5l0,-35l0,-35l-73,-3l-72,-3l2,-162l3,-162l225,-3c124,-1 235,0 248,3l22,5l0,225c0,222 0,224 -24,252l-24,28l-189,2c-103,1 -197,-2 -208,-6z"/>
   <path fill="#00cfcf" class="node" id="node4" d="m752,2373l3,-128l280,0l280,0l0,125l0,125l-283,3l-283,2l3,-127z"/>
   <path fill="#00cfcf" class="node" id="node5" d="m1372,2373l3,-128l280,0l280,0l0,125l0,125l-283,3l-283,2l3,-127z"/>
   <path fill="#00cfcf" class="node" id="node6" d="m45,2300c-15,-24 121,-213 232,-321c84,-83 196,-164 238,-175c11,-2 496,-3 1079,-2l1058,3l29,55c70,136 133,394 105,438c-5,9 -80,12 -309,12c-166,0 -307,-4 -313,-8c-6,-4 -21,-26 -33,-49l-21,-43l-713,0l-713,0l-38,50l-38,50l-278,0c-171,0 -281,-4 -285,-10zm573,-213c-2,-17 -10,-22 -33,-22c-35,0 -47,31 -20,51c25,18 57,0 53,-29zm520,0c-2,-17 -10,-22 -33,-22c-35,0 -47,31 -20,51c25,18 57,0 53,-29zm-264,18c10,-27 -5,-46 -33,-43c-20,2 -27,9 -29,31c-3,24 0,27 26,27c17,0 32,-6 36,-15z"/>
   <path fill="#00cfcf" class="node" id="node7" d="m209,1756c-2,-3 -17,-7 -32,-10c-74,-13 -107,-36 -107,-73c0,-33 33,-43 89,-26c69,20 114,16 213,-22c126,-49 188,-49 328,0c125,44 173,44 289,-4c116,-49 181,-44 361,24c65,25 114,21 205,-16c122,-50 195,-51 329,-5c132,46 171,46 282,1c130,-53 193,-50 369,19c65,25 125,20 225,-19c96,-38 150,-44 170,-20c20,24 4,64 -28,70c-15,4 -61,19 -102,34c-131,49 -175,55 -250,33c-36,-11 -90,-29 -120,-41c-84,-32 -171,-26 -251,18c-8,5 -44,16 -79,25c-74,19 -120,13 -250,-35c-102,-37 -160,-38 -237,-3c-32,14 -86,32 -120,40c-69,16 -117,8 -246,-40c-89,-34 -146,-33 -238,3c-159,62 -181,62 -352,-1c-97,-35 -154,-36 -238,-2c-118,47 -195,65 -210,50z"/>
  </g>
  <g id="svg_2" fill="#FFFFFF" transform="translate(0.000000,300.000000) scale(0.100000,-0.100000)">
   <path class="node" id="node10" d="m575,1346c-27,-20 -15,-51 20,-51c23,0 31,5 33,22c4,29 -28,47 -53,29z"/>
   <path class="node" id="node11" d="m1095,1346c-27,-20 -15,-51 20,-51c23,0 31,5 33,22c4,29 -28,47 -53,29z"/>
   <path class="node" id="node12" d="m822,1323c2,-22 9,-29 29,-31c17,-2 29,3 32,12c11,27 -4,46 -35,46c-26,0 -29,-3 -26,-27z"/>
  </g>
 </g>
</svg>