<svg width="40" height="40" xmlns="http://www.w3.org/2000/svg">
 <g id="Layer_1">
  <title>Layer 1</title>
  <path fill="#00CFCF" stroke="#000" stroke-width="0" opacity="undefined" d="m20,38.13947c-10.22099,0 -18.5,-8.27901 -18.5,-18.5c0,-10.22099 8.27901,-18.5 18.5,-18.5c10.22099,0 18.5,8.27901 18.5,18.5c0,10.22099 -8.27901,18.5 -18.5,18.5z" id="svg_1"/>
 </g>

 <g>
  <title>Layer 2</title>
  <g id="svg_2" stroke="null">
   <path d="m25.59115,24.30041c-0.6741,0 -1.22207,0.54707 -1.22207,1.21913s0.5482,1.21879 1.22207,1.21879s1.22207,-0.54673 1.22207,-1.21879s-0.54797,-1.21913 -1.22207,-1.21913z" id="svg_3" stroke="null"/>
   <path d="m24.70087,16.23962l-0.00023,0c0,-0.37894 -0.30935,-0.68735 -0.6892,-0.68735l-10.56429,0c-0.37997,0 -0.68897,0.30852 -0.68897,0.68735l0,6.93708c0,0.37894 0.30935,0.68735 0.68897,0.68735l0.22683,0c0.53847,-0.80674 1.45806,-1.33955 2.50056,-1.33955s1.96209,0.53315 2.50056,1.33955l4.41572,0c0.37848,-0.56693 0.94488,-0.99884 1.61005,-1.2052l0,-6.41923z" id="svg_4" stroke="null"/>
   <path d="m16.17431,24.30041c-0.6741,0 -1.22241,0.54707 -1.22241,1.21913s0.5482,1.21879 1.22241,1.21879c0.6741,0 1.22241,-0.54673 1.22241,-1.21879s-0.5482,-1.21913 -1.22241,-1.21913z" id="svg_5" stroke="null"/>
   <path d="m26.50559,17.66226l0,0.00011l0,5.00481c0.65487,0.20933 1.21223,0.63644 1.58624,1.19653l2.489,0l0,-2.70283l-2.36631,-3.49862l-1.70893,0z" id="svg_6" stroke="null"/>
   <path d="m19.99971,2.43428c-9.48093,0 -17.16688,7.66587 -17.16688,17.12099s7.68594,17.12156 17.16688,17.12156c9.48116,0 17.16745,-7.66621 17.16745,-17.12156s-7.68629,-17.12099 -17.16745,-17.12099zm11.4714,23.20602l-2.88281,0c-0.06409,1.59568 -1.38172,2.8745 -2.99715,2.8745s-2.93306,-1.27882 -2.99715,-2.8745l-3.42255,0c-0.06409,1.59568 -1.38207,2.8745 -2.99738,2.8745c-1.62046,0 -2.94187,-1.2875 -2.99806,-2.89025c-1.19895,-0.1308 -2.13959,-1.12108 -2.19396,-2.33804l-1.66052,0l0,-1.77625l1.65479,0l0,-1.05808l-4.11152,0l0,-1.77625l4.11232,0l0,-1.05831l-6.30685,0l0,-1.77625l6.34187,0c0.1917,-1.16936 1.20902,-2.06548 2.43464,-2.06548l10.56429,0c1.24164,0 2.26926,0.91917 2.44208,2.11045l2.23424,0c0.29596,0 0.57292,0.14678 0.73819,0.39139l2.78336,4.1152c0.09911,0.14678 0.15233,0.31971 0.15233,0.49674l0,3.86238c0.00034,0.49069 -0.39828,0.88824 -0.89017,0.88824l0.00001,0.00001z" id="svg_7" stroke="null"/>
  </g>
 </g>
</svg>