<?xml version="1.0" encoding="UTF-8"?>
<svg width="27px" height="27px" viewBox="0 0 27 27" version="1.1" xmlns="http://www.w3.org/2000/svg" xmlns:xlink="http://www.w3.org/1999/xlink">
    <!-- Generator: Sketch 58 (84663) - https://sketch.com -->
    <title>Group 28</title>
    <desc>Created with Sketch.</desc>
    <g id="Page-1_final" stroke="none" stroke-width="1" fill="none" fill-rule="evenodd">
        <g id="1-Earth-2D-route-problem-02" transform="translate(-932.000000, -691.000000)" fill-rule="nonzero">
            <g id="Group-33" transform="translate(879.000000, 175.000000)">
                <g id="Group-31">
                    <g id="Group-25">
                        <g id="Group-31-Copy" transform="translate(0.000000, 26.000000)">
                            <g id="Group-7" transform="translate(0.000000, 0.150500)">
                                <g id="Group-23" transform="translate(53.000000, 339.849500)">
                                    <g id="Group-29" transform="translate(0.000000, 150.000000)">
                                        <g id="Group-28">
                                            <circle id="Oval-Copy-2" fill="#FE685A" cx="13.36608" cy="13.36608" r="13.36608"></circle>
                                            <g id="Group-16" transform="translate(14.000000, 14.000000) rotate(-360.000000) translate(-14.000000, -14.000000) translate(12.000000, 6.000000)" fill="#000000">
                                                <path d="M1.79035339,11.0918258 L1.66120648,11.0918258 C1.01606433,11.0927133 0.483185167,10.5885663 0.447936333,9.94460899 L0.0027348924,1.81990521 C-0.0239238375,1.34686013 0.145211253,0.883590066 0.470744447,0.539395716 C0.796277565,0.194905175 1.24918039,2.84217094e-14 1.72311404,2.84217094e-14 C2.1967515,2.84217094e-14 2.64995059,0.194905175 2.97548378,0.539395716 C3.30072071,0.883590066 3.47015199,1.34686013 3.44349319,1.81990521 L2.9988842,9.94875587 C2.96156196,10.5894549 2.43194111,11.0903436 1.79035339,11.0918258 Z" id="Path"></path>
                                                <path d="M3.03591025,14.731635 C3.03591025,15.4016588 2.49266384,15.9449052 1.82264011,15.9449052 C1.15261645,15.9449052 0.609369963,15.4016588 0.609369963,14.731635 C0.609369963,14.0613152 1.15261645,13.5183649 1.82264011,13.5183649 C2.49266384,13.5183649 3.03591025,14.0613152 3.03591025,14.731635 Z" id="Path"></path>
                                            </g>
                                        </g>
                                    </g>
                                </g>
                            </g>
                        </g>
                    </g>
                </g>
            </g>
        </g>
    </g>
</svg>