<?xml version="1.0" encoding="UTF-8"?>
<svg width="486px" height="76px" viewBox="0 0 486 76" version="1.1" xmlns="http://www.w3.org/2000/svg" xmlns:xlink="http://www.w3.org/1999/xlink">
    <!-- Generator: Sketch 58 (84663) - https://sketch.com -->
    <title>Group 22</title>
    <desc>Created with Sketch.</desc>
    <g id="Page-1_final" stroke="none" stroke-width="1" fill="none" fill-rule="evenodd">
        <g id="Group-22" transform="translate(1.000000, 1.000000)">
            <g id="Group-19">
                <polygon id="Fill-3" fill="#00CFCF" points="130.9416 64.1926 134.2996 60.8346 159.3306 60.8346 168.5756 70.0796 210.6846 70.0796 213.7626 73.1566 153.8186 73.1566 144.8076 64.1926"></polygon>
                <polygon id="Fill-4" fill="#00CFCF" points="106.5466 3.2033 110.6596 7.3173 125.1396 7.3173 120.9466 3.1243"></polygon>
                <polygon id="Fill-5" fill="#00CFCF" points="126.8679 3.2033 130.9819 7.3173 145.4609 7.3173 141.2679 3.1243"></polygon>
                <polygon id="Fill-6" fill="#00CFCF" points="147.1897 3.2033 151.3027 7.3173 165.7827 7.3173 161.5897 3.1243"></polygon>
                <polygon id="Fill-7" fill="#00CFCF" points="167.511 3.2033 171.625 7.3173 186.104 7.3173 181.911 3.1243"></polygon>
                <polygon id="Fill-7-Copy" fill="#00CFCF" points="188 3.2033 192.114 7.3173 206.593 7.3173 202.4 3.1243"></polygon>
                <polygon id="Fill-8" fill="#00D9FF" points="22.8098 0.3386 19.9818 3.1676 10.1568 3.1676 6.4478 6.8766 6.4478 29.4386 3.5378 32.3486 3.5378 26.9726 1.9068 25.3416 1.9068 6.8776 8.5068 0.2766"></polygon>
                <polygon id="Fill-9" fill="#00CFCF" points="474.8235 27.8889 474.8235 32.6449 479.6215 37.4429 479.6215 32.7799"></polygon>
                <polygon id="Fill-10" fill="#00CFCF" points="474.8235 36.262 474.8235 41.018 479.6215 45.816 479.6215 41.153"></polygon>
                <polygon id="Fill-11" fill="#00CFCF" points="474.8235 44.635 474.8235 49.391 479.6215 54.189 479.6215 49.526"></polygon>
                <polygon id="Fill-12" fill="#00CFCF" points="474.8235 53.008 474.8235 57.764 479.6215 62.562 479.6215 57.899"></polygon>
                <polygon id="Fill-13" fill="#00CFCF" points="3.3049 64.3699 8.0609 64.3699 12.8589 69.1679 8.1959 69.1679"></polygon>
                <polygon id="Fill-14" fill="#00CFCF" points="11.678 64.3699 16.434 64.3699 21.232 69.1679 16.569 69.1679"></polygon>
                <polygon id="Fill-15" fill="#00CFCF" points="20.051 64.3699 24.807 64.3699 29.605 69.1679 24.942 69.1679"></polygon>
                <polygon id="Fill-16" fill="#00CFCF" points="28.4241 64.3699 33.1801 64.3699 37.9781 69.1679 33.3151 69.1679"></polygon>
                <polygon id="Stroke-17" stroke="#00CFCF" stroke-width="2.678" points="2.0295 6.8777 8.5685 0.3387 96.8465 0.3387 107.7985 11.2907 209.1255 11.2907 212.7675 7.6487 472.5325 7.6487 476.6465 11.7627 476.6465 23.7117 482.7145 29.7797 482.7145 66.0397 475.5505 73.2047 153.8195 73.2047 144.8075 64.1927 71.9645 64.1927 67.0545 69.1017 8.0895 69.1017 0.3385 61.3517 0.3385 45.6257 3.4665 42.4987 3.4665 26.9727 1.8705 25.3777"></polygon>
            </g>
        </g>
    </g>
</svg>