<svg width="28" height="28" xmlns="http://www.w3.org/2000/svg" version="1.1">
 <!-- Generator: sketchtool 58 (101010) - https://sketch.com -->
 <title>47099BC7-FE36-4BCE-ACDB-49EEE8D93417</title>
 <desc>Created with sketchtool.</desc>
 <defs>
  <polygon id="path-1" points="0 0.5404 383.8884 0.5404 383.8884 74.2896274 0 74.2896274"/>
 </defs>
 <g>
  <title>Layer 1</title>
  <g id="call-(1)" fill-rule="nonzero" stroke-width="0.5">
   <path d="m23.20099,19.47075l-3.73125,-2.48832c-0.47351,-0.31323 -1.10823,-0.21016 -1.45829,0.23685l-1.08688,1.39745c-0.13968,0.18417 -0.39358,0.2376 -0.59565,0.12535l-0.20675,-0.11398c-0.68537,-0.37357 -1.53814,-0.83865 -3.25631,-2.55744c-1.71817,-1.71878 -2.18419,-2.5722 -2.55776,-3.25631l-0.11337,-0.20674c-0.11379,-0.20204 -0.06138,-0.45702 0.12287,-0.59782l1.39651,-1.08655c0.44684,-0.3501 0.55005,-0.98464 0.23717,-1.45829l-2.48832,-3.73126c-0.32065,-0.48232 -0.96397,-0.62712 -1.46037,-0.32871l-1.56028,0.93726c-0.49025,0.28821 -0.84992,0.75499 -1.00361,1.30251c-0.56185,2.04718 -0.13917,5.58029 5.06542,10.7855c4.14014,4.13982 7.22228,5.25317 9.34074,5.25317c0.48755,0.00203 0.97319,-0.0614 1.44385,-0.18866c0.54763,-0.1535 1.01448,-0.51321 1.30252,-1.00361l0.93819,-1.55934c0.29884,-0.49651 0.15412,-1.14022 -0.32843,-1.46106zm-0.20091,1.14585l-0.93604,1.56027c-0.20682,0.35396 -0.54259,0.6142 -0.93697,0.72623c-1.88989,0.51887 -5.19167,0.0891 -10.18829,-4.90752c-4.99662,-4.99662 -5.42635,-8.29811 -4.90748,-10.18829c0.11217,-0.39484 0.37274,-0.73105 0.72713,-0.93819l1.56027,-0.93604c0.21539,-0.1296 0.49461,-0.06678 0.63375,0.14253l1.35169,2.02935l1.1345,1.70158c0.13587,0.20545 0.09123,0.48081 -0.1026,0.63284l-1.39683,1.08655c-0.42509,0.32505 -0.54648,0.91318 -0.28476,1.37996l0.11091,0.20152c0.39262,0.72008 0.88074,1.61586 2.66281,3.39765c1.78208,1.78175 2.67758,2.26991 3.39732,2.66249l0.20182,0.1112c0.46674,0.26168 1.05491,0.14033 1.37995,-0.28476l1.08655,-1.39684c0.15207,-0.19371 0.42732,-0.23832 0.63285,-0.1026l3.73093,2.48832c0.20945,0.13904 0.27227,0.4184 0.14249,0.63375z" id="Shape" stroke="#00CFCF" fill="#018BFF"/>
   <path d="m15.69579,8.32339c2.88291,0.0032 5.21917,2.3395 5.22241,5.22241c0,0.16967 0.13752,0.30719 0.30719,0.30719c0.16966,0 0.30718,-0.13752 0.30718,-0.30719c-0.00356,-3.22211 -2.61468,-5.83326 -5.83678,-5.83679c-0.16967,0 -0.30719,0.13752 -0.30719,0.30719c0,0.16967 0.13752,0.30719 0.30719,0.30719z" id="Path" stroke="#7AD1FF" fill="#7AD1FF"/>
   <path d="m15.69579,10.16659c1.86537,0.0022 3.37701,1.51384 3.37921,3.37921c0,0.16967 0.13755,0.30719 0.30719,0.30719c0.16966,0 0.30718,-0.13752 0.30718,-0.30719c-0.00255,-2.20457 -1.78905,-3.99107 -3.99358,-3.99359c-0.16967,0 -0.30719,0.13752 -0.30719,0.30719c0,0.16967 0.13752,0.30719 0.30719,0.30719z" id="Path" stroke="#7AD1FF" fill="#7AD1FF"/>
   <path d="m15.69579,12.00979c0.84787,0.00101 1.53496,0.6881 1.53601,1.53601c0,0.16967 0.13755,0.30719 0.30719,0.30719c0.16963,0 0.30718,-0.13752 0.30718,-0.30719c-0.00136,-1.18706 -0.96332,-2.14905 -2.15038,-2.15039c-0.16967,0 -0.30719,0.13752 -0.30719,0.30719c0,0.16967 0.13752,0.30719 0.30719,0.30719z" id="Path" stroke="#7AD1FF" fill="#7AD1FF"/>
  </g>
 </g>
</svg>