<?xml version="1.0" encoding="UTF-8"?>
<svg width="171px" height="645px" viewBox="0 0 171 645" version="1.1" xmlns="http://www.w3.org/2000/svg" xmlns:xlink="http://www.w3.org/1999/xlink">
    <!-- Generator: Sketch 58 (84663) - https://sketch.com -->
    <title>Group 16</title>
    <desc>Created with Sketch.</desc>
    <g id="Page-1_final" stroke="none" stroke-width="1" fill="none" fill-rule="evenodd" opacity="0.5">
        <g id="0-Earth-3D-3" transform="translate(-274.000000, -214.000000)" fill-rule="nonzero">
            <g id="Group-6" transform="translate(19.000000, 176.000000)">
                <g id="Group-12" transform="translate(0.000000, 37.000000)">
                    <g id="Group-16" transform="translate(255.909611, 0.000000)">
                        <g id="Group" opacity="0.2" transform="translate(23.222997, 452.526882)" fill="#FFFFFF">
                            <path d="M128.176058,160.049462 C131.226231,157.001567 136.152211,156.938124 139.280014,159.906452 C142.22038,163.07661 142.130109,168.000827 139.075522,171.06129 C137.64769,172.595122 135.65484,173.479914 133.55846,173.510771 C131.462081,173.541627 129.444005,172.715874 127.971565,171.224731 C126.495567,169.72582 125.685508,167.696498 125.723978,165.594178 C125.762447,163.491859 126.646208,161.493474 128.176058,160.049462 L128.176058,160.049462 Z" id="Path"></path>
                            <path d="M108.278913,179.192473 C111.523086,176.125889 116.629602,176.225922 119.750957,179.417204 C122.892537,182.591508 122.96475,187.677737 119.914551,190.939785 C118.384202,192.467591 116.29824,193.308696 114.135128,193.270174 C111.972015,193.231652 109.917383,192.316809 108.442507,190.735484 C105.211809,187.590959 105.138624,182.427122 108.278913,179.192473 Z" id="Path"></path>
                            <path d="M107.358696,136.75914 C108.968769,135.417389 111.033084,134.744556 113.125391,134.87957 C116.2608,135.111653 118.941023,137.222665 119.898749,140.214438 C120.856475,143.206211 119.899804,146.479284 117.481087,148.486022 C114.220264,151.429445 109.190564,151.182763 106.233986,147.934409 C104.838123,146.350717 104.183642,144.247938 104.434449,142.152688 C104.671231,140.043694 105.719934,138.109441 107.358696,136.75914 Z" id="Path"></path>
                            <path d="M86.0914493,154.349462 C87.724906,153.001466 89.833228,152.368089 91.939942,152.592473 C94.0628792,152.849455 96.0152873,153.88297 97.4203478,155.493548 C98.8580229,157.071525 99.6078532,159.156339 99.5042589,161.287614 C99.4006646,163.41889 98.4521674,165.421308 96.8682174,166.852688 C95.2147207,168.271952 93.0625695,168.973098 90.8894857,168.800488 C88.7164019,168.627878 86.7021808,167.595795 85.2939275,165.933333 C83.7855489,164.265232 83.0440972,162.042961 83.249,159.804301 C83.4045103,157.672637 84.4327827,155.699318 86.0914493,154.349462 L86.0914493,154.349462 Z" id="Path"></path>
                            <path d="M88.299971,111.997849 C90.5263708,110.259718 93.5231482,109.869813 96.1208703,110.980288 C98.7185924,112.090763 100.50557,114.525628 100.784469,117.334726 C101.063369,120.143823 99.7899914,122.881965 97.4612464,124.480645 C95.2348466,126.218777 92.2380692,126.608682 89.6403471,125.498207 C87.042625,124.387732 85.2556478,121.952867 84.9767479,119.143769 C84.6978481,116.334671 85.9712259,113.59653 88.299971,111.997849 Z" id="Path"></path>
                            <path d="M65.7648696,127.933333 C69.4466558,125.23664 74.6194864,126.032418 77.31871,129.710753 C80.0179336,133.389088 79.2214094,138.55707 75.5396232,141.253763 C71.8578369,143.950457 66.6850064,143.154679 63.9857827,139.476344 C61.2865591,135.798009 62.0830834,130.630027 65.7648696,127.933333 L65.7648696,127.933333 Z" id="Path"></path>
                            <path d="M71.2452754,85.8064516 C73.593132,84.1252239 76.6820246,83.8880125 79.2594842,85.1910009 C81.8369438,86.4939892 83.4751999,89.1209256 83.5099804,92.0066527 C83.5447609,94.8923798 81.9702935,97.5579653 79.4249855,98.9225806 C77.078918,100.720589 73.914765,101.032581 71.2621477,99.7274521 C68.6095305,98.4223232 66.9281651,95.7262611 66.924579,92.772189 C66.9210043,89.8181168 68.5958296,87.1179947 71.2452754,85.8064516 L71.2452754,85.8064516 Z" id="Path"></path>
                            <path d="M47.5650145,100.107527 C51.4121195,97.9794176 56.2532304,99.2261476 58.5912008,102.947098 C60.9291712,106.668048 59.9487605,111.565738 56.3582029,114.102151 C52.4900685,116.528046 47.3859038,115.36182 44.9577319,111.497312 C42.52956,107.632803 43.6968801,102.533423 47.5650145,100.107527 L47.5650145,100.107527 Z" id="Path"></path>
                            <path d="M56.1128116,58.4913978 C58.563915,57.2031289 61.5167561,57.3191416 63.8590282,58.7957353 C66.2013004,60.2723289 67.5771566,62.8851737 67.4683253,65.6500364 C67.359494,68.414899 65.7825092,70.911731 63.3314058,72.2 C59.5423282,74.1914913 54.8547366,72.7371389 52.8613768,68.9516129 C50.8680171,65.1660869 52.323734,60.4828891 56.1128116,58.4913978 Z" id="Path"></path>
                            <path d="M31.4305362,70.872043 C35.4680779,68.7451533 40.4669545,70.2909746 42.59584,74.3247315 C44.7247255,78.3584884 43.1774543,83.3526795 39.139913,85.4795699 C35.1023714,87.6064596 30.1034948,86.0606383 27.9746093,82.0268814 C25.8457238,77.9931245 27.3929949,72.9989334 31.4305362,70.872043 L31.4305362,70.872043 Z" id="Path"></path>
                            <path d="M43.2502174,30.0526882 C45.8072553,28.9578419 48.7546972,29.3090471 50.9822704,30.974008 C53.2098435,32.638969 54.3791265,35.3647386 54.0496617,38.1245458 C53.7201969,40.884353 51.9420379,43.2589173 49.385,44.3537634 C46.8279621,45.4486097 43.8805202,45.0974046 41.652947,43.4324436 C39.4253739,41.7674826 38.2560909,39.041713 38.5855557,36.2819058 C38.9150204,33.5220986 40.6931795,31.1475343 43.2502174,30.0526882 Z" id="Path"></path>
                            <path d="M17.6886232,40.5129032 C21.8786315,38.7075853 26.7401767,40.6375751 28.5471884,44.8236559 C30.3542001,49.0097368 28.4223996,53.8667251 24.2323913,55.672043 C21.5219312,56.8398789 18.3937452,56.4743459 16.0261907,54.7131368 C13.6586362,52.9519277 12.411401,50.062612 12.7543066,47.1335669 C13.0972122,44.2045219 14.9781631,41.6807391 17.6886232,40.5129032 Z" id="Path"></path>
                            <path d="M32.4121014,0.755913978 C35.0275859,-0.152808404 37.9296457,0.401533943 40.0251029,2.21012562 C42.1205601,4.01871729 43.091065,6.80679019 42.5710377,9.5241042 C42.0510104,12.2414182 40.1194555,14.4751487 37.503971,15.383871 C34.8884866,16.2925934 31.9864268,15.738251 29.8909696,13.9296593 C27.7955124,12.1210677 26.8250075,9.33299476 27.3450348,6.61568074 C27.8650621,3.89836673 29.796617,1.66463625 32.4121014,0.755913978 Z" id="Path"></path>
                            <path d="M6.13478261,9.25483871 C10.449023,7.75980983 15.1595032,10.0419541 16.6559348,14.3521505 C18.1523663,18.662347 15.8680809,23.368412 11.5538406,24.8634409 C7.23960022,26.3584697 2.52911994,24.0763255 1.03268841,19.766129 C-0.463743132,15.4559326 1.82054225,10.7498676 6.13478261,9.25483871 L6.13478261,9.25483871 Z" id="Path"></path>
                        </g>
                        <path d="M47.2508959,423.209677 C49.9683652,422.393334 52.9151202,423.125977 54.9326525,425.119569 C56.9501848,427.113161 57.7158814,430.048917 56.9287108,432.772654 C56.1415402,435.496391 53.9273749,437.57257 51.1567075,438.184946 C48.4392381,439.001289 45.4924831,438.268647 43.4749508,436.275055 C41.4574185,434.281463 40.6917219,431.345706 41.4788925,428.621969 C42.2660631,425.898233 44.4802284,423.822054 47.2508959,423.209677 L47.2508959,423.209677 Z" id="Path" fill="#00CECE"></path>
                        <path d="M20.4009973,429.686022 C24.8168819,428.557698 29.3122087,431.219438 30.4415909,435.631183 C31.5709731,440.042928 28.9067368,444.534042 24.4908524,445.662366 C20.0749678,446.790689 15.579641,444.12895 14.4502588,439.717204 C13.3208765,435.305459 15.9851129,430.814345 20.4009973,429.686022 Z" id="Path" fill="#00CECE"></path>
                        <path d="M40.9934176,392.625806 C43.7625971,392.011567 46.6464225,392.957802 48.5118546,395.09274 C50.3772867,397.227677 50.9262643,400.210195 49.9430972,402.868479 C48.95993,405.526762 46.6017098,407.436066 43.7949683,407.846237 C41.0257888,408.460476 38.1419634,407.514241 36.2765313,405.379303 C34.4110992,403.244366 33.8621216,400.261848 34.8452887,397.603564 C35.8284559,394.945281 38.1866761,393.035977 40.9934176,392.625806 Z" id="Path" fill="#00CECE"></path>
                        <path d="M13.7345335,397.03871 C18.223828,396.215034 22.5314682,399.183193 23.3559172,403.66828 C24.1803662,408.153366 21.2094222,412.456969 16.7201277,413.280645 C12.2308332,414.104321 7.92319313,411.136162 7.09874409,406.651075 C6.27429504,402.165989 9.24523912,397.862386 13.7345335,397.03871 L13.7345335,397.03871 Z" id="Path" fill="#00CECE"></path>
                        <path d="M37.2512002,361.612903 C40.0054953,361.328243 42.7025758,362.533228 44.3264774,364.773952 C45.9503791,367.014675 46.2543927,369.950719 45.1239992,372.476102 C43.9936057,375.001486 41.6005388,376.732544 38.8462437,377.017204 C35.9806481,377.52402 33.0717887,376.388707 31.3089273,374.075429 C29.5460659,371.762151 29.224717,368.65869 30.4762613,366.033869 C31.7278055,363.409048 34.3424423,361.702875 37.2512002,361.612903 L37.2512002,361.612903 Z" id="Path" fill="#00CECE"></path>
                        <path d="M9.72647557,363.962366 C14.2440046,363.48847 18.2907142,366.76305 18.7650548,371.276344 C19.2393953,375.789639 15.9617436,379.832555 11.4442147,380.306452 C6.9266857,380.780347 2.87997605,377.505768 2.40563551,372.992473 C1.93129496,368.479179 5.20894663,364.436262 9.72647557,363.962366 L9.72647557,363.962366 Z" id="Path" fill="#00CECE"></path>
                        <path d="M35.7175046,330.416129 C38.4864113,330.343139 41.0839627,331.751503 42.5316863,334.110704 C43.9794099,336.469905 44.0573621,339.421525 42.736179,341.853715 C41.414996,344.285906 38.8953968,345.829161 36.1264901,345.902151 C31.8461312,346.014983 28.2846602,342.639788 28.1717219,338.363441 C28.0587837,334.087094 31.4371457,330.528961 35.7175046,330.416129 Z" id="Path" fill="#00CECE"></path>
                        <path d="M8.09053354,330.70215 C12.5449388,330.70126 16.1811557,334.261413 16.2702437,338.710753 C16.3888078,343.178002 12.9436903,346.936074 8.47906977,347.209677 C3.91636544,347.328151 0.121430619,343.728858 0.00284548151,339.17043 C-0.115739656,334.612003 3.48693067,330.820625 8.04963499,330.70215 L8.09053354,330.70215 Z" id="Path" fill="#00CECE"></path>
                        <path d="M36.5150263,299.178495 C38.6071172,299.309844 40.5688903,300.238619 41.9954321,301.773118 C42.6530687,302.508569 43.1664048,303.361018 43.5086785,304.286022 C43.9091351,305.227896 44.0976198,306.246154 44.0608089,307.268817 C43.8295882,311.556858 40.1743137,314.852651 35.8810988,314.644086 C33.7566936,314.612383 31.7342724,313.728599 30.268906,312.191599 C28.8035395,310.654599 28.0183174,308.593488 28.0899248,306.472043 C28.1117093,305.41837 28.355587,304.381122 28.8056495,303.427957 C29.2726664,302.505931 29.9192293,301.68633 30.7074321,301.017204 C32.3340971,299.680058 34.414398,299.021426 36.5150263,299.178495 Z" id="Path" fill="#00CECE"></path>
                        <path d="M8.99030166,297.421505 C11.1061696,297.558071 13.076211,298.545854 14.4502582,300.15914 C15.1295428,300.940613 15.6442056,301.850851 15.9635046,302.835484 C16.3582501,303.850488 16.5459699,304.934074 16.515635,306.022581 C16.3613541,310.423799 12.7439722,313.9113 8.33592484,313.908604 C6.15808496,313.803124 4.1125302,312.833319 2.65349699,311.214543 C1.19446378,309.595767 0.442720768,307.462011 0.565200206,305.287097 C0.5867456,304.174291 0.830059295,303.076933 1.28092484,302.05914 C1.7464419,301.088784 2.39174693,300.215319 3.18270745,299.484946 C4.76232805,298.045313 6.85553458,297.301596 8.99030166,297.421505 L8.99030166,297.421505 Z" id="Path" fill="#00CECE"></path>
                        <path d="M39.7664611,268.104301 C44.0997533,268.595876 47.2182729,272.497224 46.739664,276.827957 C46.4476922,278.857614 45.3493153,280.684071 43.6927219,281.894624 C42.0283653,283.176303 39.9341187,283.768873 37.8442292,283.549462 C35.7351138,283.333725 33.7922373,282.308262 32.4251712,280.689247 C31.1270174,279.05972 30.5508987,276.971403 30.8301277,274.907527 C31.099135,272.815484 32.1957841,270.918291 33.8750227,269.639888 C35.5542613,268.361484 37.6761213,267.808427 39.7664611,268.104301 L39.7664611,268.104301 Z" id="Path" fill="#00CECE"></path>
                        <path d="M12.4053306,264.283871 C16.8078176,264.957158 19.8620214,269.025613 19.2762872,273.436559 C18.9751227,275.57406 17.8711475,277.516988 16.1884466,278.870968 C14.5516991,280.230616 12.4377926,280.878175 10.3195046,280.668817 C8.18226792,280.439484 6.23182021,279.347076 4.92089586,277.645161 C3.61931573,275.88438 3.06127415,273.683649 3.36675093,271.516129 C3.60316773,269.35865 4.68891739,267.383746 6.38453251,266.026993 C8.08014763,264.670239 10.2463347,264.043092 12.4053306,264.283871 Z" id="Path" fill="#00CECE"></path>
                        <path d="M45.185519,237.356989 C47.2356056,237.801181 49.0365181,239.015292 50.2160408,240.748387 C51.4164839,242.411941 51.8888587,244.491391 51.5247944,246.509677 C50.4882432,250.655523 46.3762502,253.25802 42.1814471,252.42312 C37.9866439,251.58822 35.1868711,247.61006 35.8197509,243.383871 C36.1837535,241.334934 37.3837068,239.529291 39.1325335,238.398925 C40.9317023,237.262488 43.1094156,236.887625 45.185519,237.356989 Z" id="Path" fill="#00CECE"></path>
                        <path d="M18.1106785,231.473118 C20.1873914,231.932701 21.9924399,233.206091 23.1207509,235.007527 C24.3059555,236.815854 24.7455794,239.011913 24.3477075,241.136559 C23.9103263,244.057264 21.8995506,246.500467 19.1157531,247.493671 C16.3319556,248.486876 13.2269545,247.868881 11.03667,245.885675 C8.84638548,243.90247 7.92630689,240.875933 8.64266397,238.010753 C9.02687988,235.85046 10.2461781,233.92783 12.0372437,232.658065 C13.8111723,231.442357 16.0092748,231.0135 18.1106785,231.473118 Z" id="Path" fill="#00CECE"></path>
                        <path d="M53.0993886,207.16129 C57.2514896,208.296494 59.7082801,212.566756 58.6002437,216.722581 C57.3119043,220.810105 53.0311367,223.16007 48.8868379,222.054839 C46.8284863,221.575446 45.0553866,220.277008 43.9782153,218.460262 C42.901044,216.643516 42.6132498,214.466072 43.1814901,212.432258 C43.78539,210.411484 45.1742846,208.71656 47.0379037,207.726121 C48.9015229,206.735682 51.084578,206.532257 53.0993886,207.16129 L53.0993886,207.16129 Z" id="Path" fill="#00CECE"></path>
                        <path d="M26.6380263,199.193548 C30.8615907,200.544725 33.2380841,205.012332 31.9957364,209.265591 C30.8622307,213.550286 26.5168544,216.151443 22.2005335,215.129032 C20.0731404,214.56349 18.2721708,213.148758 17.2201857,211.216774 C16.1682005,209.28479 15.9577929,207.005604 16.6383306,204.913978 C17.833433,200.587102 22.2979624,198.033122 26.6380263,199.193548 Z" id="Path" fill="#00CECE"></path>
                        <g id="Group" opacity="0.5" transform="translate(26.290389, 166.505376)" fill="#00CECE">
                            <path d="M36.8086957,11.0731183 C40.8749261,12.5472838 43.0503885,16.9662771 41.736971,21.083871 C40.1644281,25.1551684 35.6001287,27.1980579 31.5123333,25.6602151 C29.518082,24.9957489 27.8737828,23.5601459 26.9474978,21.6747533 C26.0212128,19.7893606 25.8902982,17.6116318 26.584058,15.6290323 C27.2774723,13.6261327 28.7703575,11.999677 30.7077161,11.136425 C32.6450746,10.273173 34.8538083,10.2502541 36.8086957,11.0731183 Z" id="Path"></path>
                            <path d="M11.0221594,1.14408602 C15.1628945,2.8220342 17.2521093,7.45538382 15.7663913,11.6655914 C14.2871463,15.8353149 9.75530365,18.0719467 5.54175362,16.711828 C1.32040161,15.1181886 -0.81164906,10.4101332 0.777072464,6.19032258 C1.44239443,4.1470762 2.90551108,2.45889292 4.83448169,1.50877487 C6.76345229,0.558656828 8.99475159,0.42714869 11.0221594,1.14408602 L11.0221594,1.14408602 Z" id="Path"></path>
                        </g>
                        <g id="Group" opacity="0.5" transform="translate(38.559954, 135.860215)" fill="#00CECE">
                            <path d="M36.9722899,13.0752688 C39.380722,14.0969232 41.0945739,16.2834801 41.5099061,18.8644249 C41.9252383,21.4453698 40.983753,24.0584296 39.0172174,25.7827957 C38.2955257,26.4587339 37.4478427,26.9863038 36.5224058,27.3354839 C34.5311053,28.0720446 32.3311472,28.0061077 30.3876232,27.1516129 C28.4302861,26.3277081 26.8790021,24.7631879 26.0728261,22.8 C25.6736964,21.8486455 25.4652674,20.8283004 25.4593478,19.7967742 C25.4748119,18.7465047 25.7264059,17.7131435 26.1955217,16.7731183 C27.1036635,14.8271703 28.7648973,13.3338889 30.7974384,12.6364598 C32.8299795,11.9390308 35.0590229,12.0974353 36.9722899,13.0752688 L36.9722899,13.0752688 Z" id="Path"></path>
                            <path d="M12.0241739,1.22580645 C15.9918428,3.20276256 17.6606299,7.97790632 15.7868406,11.9924731 C15.3053927,12.964521 14.6544822,13.8431184 13.8646087,14.5870968 C13.1321164,15.3143453 12.2635713,15.8905187 11.3084493,16.2827957 C9.35056359,17.1257921 7.13155235,17.1257921 5.17366667,16.2827957 C3.19460533,15.4303242 1.6504945,13.8064679 0.899768116,11.788172 C0.530051019,10.7805377 0.343083054,9.7151274 0.347556431,8.64193548 C0.401324694,7.52210354 0.679476615,6.4244333 1.1656087,5.41397849 C2.03886193,3.41070694 3.67873681,1.84024463 5.71902144,1.05330244 C7.75930607,0.266360254 10.0300559,0.328486182 12.0241739,1.22580645 Z" id="Path"></path>
                        </g>
                        <g id="Group" opacity="0.5" transform="translate(52.874447, 106.236559)" fill="#00CECE">
                            <path d="M37.0131884,14.9548387 C40.77043,17.0704517 42.2379592,21.7371114 40.3668696,25.6193548 C38.2012114,29.3479253 33.4500859,30.6639243 29.6718986,28.5817204 C27.7972793,27.6319716 26.3848541,25.9675534 25.7537531,23.9645324 C25.1226521,21.9615114 25.3261319,19.7889166 26.3182174,17.9376344 C27.3123105,16.0958486 29.0136844,14.7374192 31.0310144,14.1747918 C33.0483445,13.6121645 35.207978,13.8937703 37.0131884,14.9548387 L37.0131884,14.9548387 Z" id="Path"></path>
                            <path d="M13.0466377,1.26666667 C16.8984927,3.54008187 18.2623491,8.44897215 16.1344783,12.3806452 C14.0280315,16.3069104 9.16214541,17.8243707 5.19411594,15.7924731 C3.28275125,14.7591388 1.87028219,12.9981994 1.27730876,10.9093503 C0.684335334,8.82050118 0.961152066,6.58091329 2.04492754,4.69892473 C3.01227979,2.7511236 4.73439565,1.28290806 6.81188628,0.634783004 C8.88937691,-0.013342049 11.1417489,0.214932819 13.0466377,1.26666667 L13.0466377,1.26666667 Z" id="Path"></path>
                        </g>
                        <g id="Group" opacity="0.5" transform="translate(70.256331, 77.634409)" fill="#00CECE">
                            <path d="M36.2770145,17.1204301 C39.9036347,19.4421625 40.9647964,24.2586109 38.6491304,27.8870968 C36.7769024,30.3974914 33.6337042,31.6186737 30.555762,31.0314987 C27.4778198,30.4443237 25.0061469,28.1519999 24.1914928,25.1290323 C23.645844,23.0866574 24.0192369,20.9080867 25.2139565,19.1634409 C26.4062007,17.4222746 28.2439697,16.2277305 30.3203818,15.8442802 C32.396794,15.46083 34.540547,15.9201079 36.2770145,17.1204301 L36.2770145,17.1204301 Z" id="Path"></path>
                            <path d="M13.4147246,1.65483871 C17.0127617,4.22139904 17.9184204,9.17975686 15.4596522,12.8505376 C14.2676467,14.6208963 12.4727783,15.8986321 10.4086812,16.4462366 C8.31915369,16.9612002 6.1096467,16.5967858 4.29665963,15.4381796 C2.48367257,14.2795734 1.22612025,12.4283314 0.817971014,10.3172043 C0.338124365,8.14700328 0.782545346,5.87518072 2.04492754,4.04516129 C3.22892112,2.21415352 5.09606681,0.931627123 7.2312135,0.482745817 C9.3663602,0.0338645117 11.5925229,0.455836651 13.4147246,1.65483871 L13.4147246,1.65483871 Z" id="Path"></path>
                        </g>
                        <g id="Group" opacity="0.5" transform="translate(89.683142, 50.053763)" fill="#00CECE">
                            <path d="M35.2341014,19.4494624 C38.6744215,22.074259 39.4239101,26.9458793 36.9313913,30.4817204 C34.2250155,33.8360723 29.3361979,34.4250802 25.9092319,31.8096774 C24.1998259,30.5865649 23.0561236,28.7266399 22.736699,26.6504038 C22.4172744,24.5741676 22.9491015,22.4569489 24.211942,20.7774194 C25.4705508,19.1031754 27.3586962,18.0147742 29.4394384,17.764085 C31.5201806,17.5133959 33.6131838,18.1221457 35.2341014,19.4494624 L35.2341014,19.4494624 Z" id="Path"></path>
                            <path d="M13.5987681,2.30860215 C17.0614805,5.13081591 17.6753311,10.1813176 14.9893188,13.7494624 C12.316706,17.3293537 7.26249787,18.102696 3.63997101,15.4860215 C1.91382087,14.1693674 0.792793681,12.2122843 0.531006126,10.0584075 C0.269218571,7.90453083 0.888842485,5.73628102 2.24942029,4.04516129 C3.49923057,2.27849422 5.4143681,1.09550705 7.55481984,0.767997392 C9.69527157,0.440487734 11.8770097,0.996613616 13.5987681,2.30860215 L13.5987681,2.30860215 Z" id="Path"></path>
                        </g>
                        <g id="Group" opacity="0.5" transform="translate(111.154881, 24.516129)" fill="#00CECE">
                            <path d="M34.1911884,21.3290323 C37.4208713,24.1781261 37.7406697,29.0984056 34.906913,32.3408602 C33.5313802,33.8057642 31.6562188,34.7023738 29.6514493,34.8537634 C25.2657827,35.0804355 21.4835547,31.8067796 21.0832029,27.4376344 C20.8530734,25.3389494 21.5470943,23.2439271 22.9849855,21.6967742 C25.9843399,18.5179588 30.9895012,18.3537098 34.1911884,21.3290323 Z" id="Path"></path>
                            <path d="M13.9055072,2.61505376 C17.0880153,5.68475039 17.2510826,10.7260473 14.2735942,13.9946237 C12.8207861,15.5563137 10.8533786,16.5427219 8.73184058,16.7731183 C6.60310022,16.976637 4.48363548,16.3016882 2.8654564,14.9049537 C1.24727733,13.5082192 0.271122082,11.5111775 0.163594203,9.37741935 C-0.0114691464,7.17939364 0.728303641,5.00650029 2.20852174,3.37096774 C3.64302208,1.69492345 5.69464229,0.669230205 7.89734247,0.526881404 C10.1000427,0.384532604 12.2668313,1.13761252 13.9055072,2.61505376 L13.9055072,2.61505376 Z" id="Path"></path>
                        </g>
                        <g id="Group" opacity="0.5" transform="translate(133.649084, 0.000000)" fill="#00CECE">
                            <path d="M33.7413043,23.6172043 C36.6890937,26.7602153 36.6890937,31.6494621 33.7413043,34.7924731 C30.5641528,37.7111417 25.6369725,37.5660938 22.6373478,34.4655914 C21.1295658,32.9967491 20.2792726,30.9819162 20.2792726,28.877957 C20.2792726,26.7739978 21.1295658,24.7591649 22.6373478,23.2903226 C24.1317526,21.8198598 26.1625884,21.0231688 28.2591927,21.0848893 C30.3557969,21.1466098 32.3361555,22.0613835 33.7413043,23.6172043 L33.7413043,23.6172043 Z" id="Path"></path>
                            <path d="M14.8257246,3.43225806 C17.8315439,6.73769353 17.6870887,11.8249654 14.4985362,14.9548387 C11.3154264,18.0829284 6.20960259,18.0829284 3.02649275,14.9548387 C1.51469436,13.3963661 0.696855519,11.2940317 0.758456552,9.12463062 C0.820057586,6.95522956 1.7558784,4.9025977 3.35368116,3.43225806 C4.85357714,1.87271786 6.92488893,0.99125819 9.0897029,0.99125819 C11.2545169,0.99125819 13.3258287,1.87271786 14.8257246,3.43225806 Z" id="Path"></path>
                        </g>
                    </g>
                </g>
            </g>
        </g>
    </g>
</svg>