<?xml version="1.0" encoding="UTF-8"?>
<svg width="1124px" height="817px" viewBox="0 0 1124 817" version="1.1" xmlns="http://www.w3.org/2000/svg" xmlns:xlink="http://www.w3.org/1999/xlink">
    <!-- Generator: Sketch 58 (84663) - https://sketch.com -->
    <title>Group 33</title>
    <desc>Created with Sketch.</desc>
    <g id="Page-1_final" stroke="none" stroke-width="1" fill="black" fill-rule="evenodd">
        <g id="1-Earth-2D-route-problem-033" transform="translate(-157.000000, -104.000000)">
            <g id="Group-25" transform="translate(720.000000, 511.500000) rotate(-90.000000) translate(-720.000000, -511.500000) translate(313.000000, -49.000000)">
                <g id="Group-31-Copy" transform="translate(0.000000, 0.200000)">
                    <g id="Group-7" transform="translate(0.000000, 0.180600)">
                        <g id="Group-33">
                            <polygon id="Fill-3" stroke="#FE685A" stroke-width="2.34" points="20.4745212 0.376965937 93.7972495 0.376965937 106.064853 12.1611983 357.357613 12.1611983 369.895807 0.1194 779.265255 0.1194 792.866133 13.1843731 792.866133 42.3365837 808.228311 57.0934578 808.228311 287.674046 799.795718 295.774377 799.795718 429.344763 811.5 440.590234 811.5 1083.47087 775.430246 1118.1194 20.4745212 1118.1194 0.5 1098.93428 0.5 282.515638 24.6858981 259.285081 24.6858981 86.8104232 2.1948824 65.2056033 2.1948824 16.7879332"></polygon>
                            <polygon id="Stroke-5" stroke="#00CFCF" stroke-width="4.6098" points="20.4745212 0.376965937 93.7972495 0.376965937 106.064853 12.1611983 357.357613 12.1611983 369.895807 0.1194 779.265255 0.1194 792.866133 13.1843731 792.866133 42.3365837 808.228311 57.0934578 808.228311 287.674046 799.795718 295.774377 799.795718 429.344763 811.5 440.590234 811.5 1083.47087 775.430246 1118.1194 20.4745212 1118.1194 0.5 1098.93428 0.5 282.515638 24.6858981 259.285081 24.6858981 86.8104232 2.1948824 65.2056033 2.1948824 16.7879332"></polygon>
                            <polyline id="Stroke-8" stroke="#00CFCF" stroke-width="4.6098" points="34.9868715 83.1194 12.5 61.3027366 12.5 21.7330409 23.9192874 11.3794915 88.0694645 11.3794915 100.334807 23.2792727 360.964116 23.2792727 373.5 11.1194"></polyline>
                            <polyline id="Stroke-9" stroke="#00CFCF" stroke-width="4.6098" points="494.5 1108.1194 24.8528413 1108.1194 11.5 1095.29886 11.5 287.365201 35.7109522 264.1194"></polyline>
                            <polyline id="Stroke-10" stroke="#00CFCF" stroke-width="4.6098" points="774.5 11.1194 781.575238 17.8252958 781.575238 47.0380912 797.177236 61.8256333 797.177236 283.851876 788.608004 291.969041 788.608004 434.848191 800.5 446.1194"></polyline>
                            <polygon id="Fill-11" fill="#00CFCF" points="5.55870675 183.724718 14.5 192.1194 14.5 182.610276 5.5 174.1194"></polygon>
                            <path d="M13.9491751,191.747874 L13.9491751,182.71037 L6.06040447,174.503063 L6.11309207,183.632812 L13.9491751,191.747874 Z M14.5,182.484614 L14.5,193.1194 L5.55987227,183.863422 L5.5,173.1194 L14.5,182.484614 Z" id="Fill-12" fill="#00CFCF"></path>
                            <polygon id="Fill-13" fill="#00CFCF" points="5.55870675 165.724718 14.5 174.1194 14.5 164.610276 5.5 156.1194"></polygon>
                            <path d="M13.9491751,173.745614 L13.9491751,164.709206 L6.06040447,156.502895 L6.11309207,165.633963 L13.9491751,173.745614 Z M14.5,164.483478 L14.5,175.1194 L5.55987227,165.862118 L5.5,155.1194 L14.5,164.483478 Z" id="Fill-14" fill="#00CFCF"></path>
                            <polygon id="Fill-15" fill="#00CFCF" points="5.55870675 147.724718 14.5 156.1194 14.5 146.610276 5.5 138.1194"></polygon>
                            <path d="M13.9491751,155.745614 L13.9491751,146.709206 L6.06040447,138.505322 L6.11309207,147.633963 L13.9491751,155.745614 Z M14.5,146.483478 L14.5,157.1194 L5.55987227,147.862118 L5.5,137.1194 L14.5,146.483478 Z" id="Fill-16" fill="#00CFCF"></path>
                            <polygon id="Fill-17" fill="#00CFCF" points="5.55870675 129.724718 14.5 138.1194 14.5 128.610276 5.5 120.1194"></polygon>
                            <path d="M13.9491751,137.747874 L13.9491751,128.71037 L6.06040447,120.503063 L6.11309207,129.632812 L13.9491751,137.747874 Z M14.5,128.484614 L14.5,139.1194 L5.55987227,129.863422 L5.5,119.1194 L14.5,128.484614 Z" id="Fill-18" fill="#00CFCF"></path>
                            <polygon id="Fill-19" fill="#00CFCF" points="5.55870675 111.724718 14.5 120.1194 14.5 110.610276 5.5 102.1194"></polygon>
                            <path d="M13.9491751,119.747874 L13.9491751,110.71037 L6.06040447,102.503063 L6.11309207,111.632812 L13.9491751,119.747874 Z M14.5,110.482187 L14.5,121.1194 L5.55987227,111.863422 L5.5,101.1194 L14.5,110.482187 Z" id="Fill-20" fill="#00CFCF"></path>
                            <polygon id="Fill-21" fill="#00CFCF" points="5.5 83.1194 5.64479255 92.7259702 14.5 101.1194 14.5 91.6113828"></polygon>
                            <path d="M13.951946,100.74352 L13.951946,91.711732 L6.06711676,83.5122658 L6.19340747,92.6338382 L13.951946,100.74352 Z M14.5,91.483632 L14.5,102.1194 L5.6477363,92.8643648 L5.5,82.1194 L14.5,91.483632 Z" id="Fill-22" fill="#00CFCF"></path>
                            <polygon id="Fill-23" fill="#00CFCF" points="804.558707 421.723624 813.5 430.1194 813.5 420.611383 804.5 412.1194"></polygon>
                            <path d="M804.559872,421.860995 L813.5,431.1194 L813.5,420.482187 L804.5,411.1194 L804.559872,421.860995 Z M805.110697,421.632812 L805.060404,412.503063 L812.949175,420.71037 L812.949175,429.745447 L805.110697,421.632812 Z" id="Fill-24" fill="#00CFCF"></path>
                            <polygon id="Fill-25" fill="#00CFCF" points="804.558707 402.724718 813.5 411.1194 813.5 401.612622 804.5 393.1194"></polygon>
                            <path d="M804.559872,402.863422 L813.5,412.1194 L813.5,401.482187 L804.5,392.1194 L804.559872,402.863422 Z M805.110697,402.635239 L805.060404,393.503063 L812.949175,401.71037 L812.949175,410.747874 L805.110697,402.635239 Z" id="Fill-26" fill="#00CFCF"></path>
                            <polygon id="Fill-27" fill="#00CFCF" points="804.558707 384.724876 813.5 393.1194 813.5 383.614837 804.5 375.1194"></polygon>
                            <path d="M804.559872,384.864546 L813.5,394.1194 L813.5,383.483478 L804.5,374.1194 L804.559872,384.864546 Z M805.110697,384.63639 L805.060404,375.505322 L812.949175,383.71406 L812.949175,392.748041 L805.110697,384.63639 Z" id="Fill-28" fill="#00CFCF"></path>
                            <polygon id="Fill-29" fill="#00CFCF" points="804.558707 366.72597 813.5 375.1194 813.5 365.611383 804.5 357.1194"></polygon>
                            <path d="M804.559872,366.864546 L813.5,376.1194 L813.5,365.483478 L804.5,356.1194 L804.559872,366.864546 Z M805.110697,366.633963 L805.060404,357.505322 L812.949175,365.711633 L812.949175,374.748041 L805.110697,366.633963 Z" id="Fill-30" fill="#00CFCF"></path>
                        </g>
                    </g>
                </g>
            </g>
        </g>
    </g>
</svg>