<svg width="28" height="28" xmlns="http://www.w3.org/2000/svg" version="1.1">
 <!-- Generator: sketchtool 58 (101010) - https://sketch.com -->
 <title>47099BC7-FE36-4BCE-ACDB-49EEE8D93417</title>
 <desc>Created with sketchtool.</desc>
 <defs>
  <polygon id="path-1" points="0 0.5404 383.8884 0.5404 383.8884 74.2896274 0 74.2896274"/>
 </defs>
 <g>
  <title>Layer 1</title>
  <path d="m22.18418,9.61344c0,4.52005 -8.18418,16.95732 -8.18418,16.95732c0,0 -8.18419,-12.43727 -8.18419,-16.95732c0,-4.52006 3.66413,-8.18419 8.18419,-8.18419c4.52005,0 8.18418,3.66413 8.18418,8.18419z" id="Stroke-5" stroke="#00CFCF"/>
  <path d="m14,11.46281c-1.45506,0 -2.635,-1.17892 -2.635,-2.63296c0,-1.45607 1.17994,-2.63601 2.635,-2.63601c1.45608,0 2.635,1.17994 2.635,2.63601c0,1.45404 -1.17892,2.63296 -2.635,2.63296z" id="Stroke-3" stroke="#7AD1FF"/>
 </g>
</svg>