<?xml version="1.0" encoding="UTF-8"?>
<svg width="46px" height="45px" viewBox="0 0 46 45" version="1.1" xmlns="http://www.w3.org/2000/svg" xmlns:xlink="http://www.w3.org/1999/xlink">
    <!-- Generator: Sketch 58 (84663) - https://sketch.com -->
    <title>Recurso 4</title>
    <desc>Created with Sketch.</desc>
    <g id="Page-1_final" stroke="none" stroke-width="1" fill="none" fill-rule="evenodd">
        <g id="Recurso-4" fill-rule="nonzero">
            <path d="M23.7,0.18 C18.117134,0.00904288905 12.6727493,1.93562727 8.44,5.58 L23.11,21.83 L23.7,0.18 Z" id="Path" fill="#00CECE"></path>
            <path d="M43.93,14.67 C41.1438861,7.18476516 34.5611055,1.76589646 26.68,0.47 C25.6872461,0.309157567 24.6851805,0.212291218 23.68,0.18 L23.09,21.83 L43.93,14.67 Z" id="Path" fill="#00CECE" opacity="0.8"></path>
            <path d="M8.44,5.58 C1.68253385,11.3871237 -0.937638411,20.6778999 1.79,29.16 L23.11,21.83 L8.44,5.58 Z" id="Path" fill="#00CECE" opacity="0.3"></path>
            <path d="M23.11,21.83 L38.24,38.58 C44.7973273,32.4939973 47.0430292,23.057313 43.93,14.67 L23.11,21.83 Z" id="Path" fill="#00CECE" opacity="0.2"></path>
            <path d="M22.5,44.56 C28.3298696,44.6979342 33.9812578,42.5436566 38.24,38.56 L23.11,21.83 L22.5,44.56 Z" id="Path" fill="#00CECE" opacity="0.8"></path>
            <path d="M1.79,29.16 C4.74286214,38.155809 13.0349461,44.3218203 22.5,44.56 L23.11,21.83 L1.79,29.16 Z" id="Path" fill="#00CECE" opacity="0.6"></path>
            <ellipse id="Oval" fill="#000000" transform="translate(23.056437, 21.829027) rotate(-88.060000) translate(-23.056437, -21.829027) " cx="23.0564373" cy="21.8290275" rx="18.54" ry="18.62"></ellipse>
            <path d="M24.54,26.45 L28.27,33.76 C28.6165894,34.4293581 29.4387956,34.6930003 30.11,34.35 L30.11,34.35 C30.7780804,34.0074269 31.0421757,33.188284 30.7,32.52 L27,25.21 L24.54,26.45 Z" id="Path" fill="#00DAC8"></path>
            <path d="M22.37,25.4700302 C19.1059361,25.4799163 16.3506285,23.046263 15.957351,19.805963 C15.5640734,16.5656629 17.6572108,13.5435504 20.828878,12.7723574 C24.0005452,12.0011643 27.2476149,13.7248018 28.3860447,16.7839176 C29.5244744,19.8430333 28.1942043,23.2700976 25.29,24.76 C24.386276,25.2236246 23.3857043,25.4669143 22.37,25.4700302 Z M22.37,13.2099844 C21.4513288,13.2078542 20.5457025,13.4274 19.73,13.85 C16.8706336,15.3143995 15.7347483,18.815967 17.19,21.68 C17.8937748,23.0533986 19.1125435,24.0924079 20.58,24.57 C22.0423339,25.0446997 23.6337569,24.9150815 25,24.21 C27.8593664,22.7456005 28.9952517,19.244033 27.54,16.38 L27.54,16.38 C26.838857,15.0045221 25.6190932,13.9646644 24.15,13.49 C23.5681883,13.3037278 22.9609023,13.2092611 22.35,13.2099844 L22.37,13.2099844 Z" id="Shape" fill="#00DAC8"></path>
            <path d="M17.92,20.64 C17.7680364,20.6379434 17.6384819,20.5292848 17.61,20.38 C17.284519,18.3882328 17.9056291,16.3585338 19.29,14.89 C19.344977,14.8292644 19.4230776,14.794615 19.505,14.794615 C19.5869224,14.794615 19.665023,14.8292644 19.72,14.89 C19.7780364,14.9464775 19.8107752,15.0240189 19.8107752,15.105 C19.8107752,15.1859811 19.7780364,15.2635225 19.72,15.32 C18.4570753,16.655966 17.8943079,18.5071745 18.2,20.32 C18.2243185,20.484906 18.1138793,20.639521 17.95,20.67 L17.92,20.64 Z" id="Path" fill="#00DAC8"></path>
            <path d="M22.37,26.9300456 C19.8393121,26.9385903 17.4580884,25.7327329 15.9673651,23.6876903 C14.4766419,21.6426476 14.0573601,19.0066429 14.84,16.6 C15.822338,13.5596646 18.5393246,11.410387 21.7241387,11.1542886 C24.9089528,10.8981901 27.9344645,12.5856998 29.39,15.43 L29.39,15.43 C30.647315,17.8734606 30.5427367,20.7950847 29.1139379,23.142397 C27.6851392,25.4897093 25.1379649,26.9245359 22.39,26.9300456 L22.37,26.9300456 Z M22.37,11.739979 C18.5488935,11.7309187 15.3636461,14.6625011 15.0563176,18.4712393 C14.7489891,22.2799775 17.4229864,25.6843445 21.1961128,26.2880448 C24.9692393,26.891745 28.5719503,24.4916513 29.4683381,20.7771626 C30.3647259,17.0626739 28.2531827,13.283605 24.62,12.1 C23.8871688,11.8605599 23.1209554,11.7390459 22.35,11.739979 L22.37,11.739979 Z" id="Shape" fill="#00DAC8"></path>
        </g>
    </g>
</svg>