<svg width="385" height="164" xmlns="http://www.w3.org/2000/svg" version="1.1">
 <!-- Generator: sketchtool 58 (101010) - https://sketch.com -->
 <title>47099BC7-FE36-4BCE-ACDB-49EEE8D93417</title>
 <desc>Created with sketchtool.</desc>
 <defs>
  <polygon points="0 0.5404 383.8884 0.5404 383.8884 74.2896274 0 74.2896274" id="path-1"/>
 </defs>
 <g>
  <title>Layer 1</title>
  <g fill="#4DFFFF" id="Group-29-Copy">
   <polygon points="226.78106689453125,157.60833740234375 6.636466979980469,157.60833740234375 6.636466979980469,140.8548126220703 7.986473083496094,140.8548126220703 7.986473083496094,156.25830078125 226.22216796875,156.25830078125 242.82177734375,139.65872192382812 242.82177734375,123.917724609375 244.17178344726562,123.917724609375 244.17178344726562,140.21762084960938 " id="Fill-9"/>
   <path id="Fill-13" d="m7.3112,143.16575c-1.2744,0 -2.3112,-1.0368 -2.3112,-2.3112c0,-1.2744 1.0368,-2.3112 2.3112,-2.3112c1.2744,0 2.3112,1.0368 2.3112,2.3112c0,1.2744 -1.0368,2.3112 -2.3112,2.3112"/>
   <polygon points="380.67529296875,95.74700927734375 379.3252868652344,95.74700927734375 379.3252868652344,18.389297485351562 280.6097717285156,18.389297485351562 268.17626953125,5.955802917480469 269.12939453125,5 281.1686706542969,17.03929901123047 380.67529296875,17.03929901123047 " id="Fill-14"/>
   <polygon points="380.67529296875,140.77435302734375 363.8191833496094,140.77435302734375 363.8191833496094,139.4243621826172 379.3252868652344,139.4243621826172 379.3252868652344,123.91825866699219 380.67529296875,123.91825866699219 " id="Fill-15"/>
  </g>
 </g>
</svg>