<?xml version="1.0" encoding="UTF-8"?>
<svg width="498px" height="738px" viewBox="0 0 498 738" version="1.1" xmlns="http://www.w3.org/2000/svg" xmlns:xlink="http://www.w3.org/1999/xlink">
    <!-- Generator: sketchtool 58 (101010) - https://sketch.com -->
    <title>47099BC7-FE36-4BCE-ACDB-49EEE8D93417</title>
    <desc>Created with sketchtool.</desc>
    <defs>
        <polygon id="path-1" points="0 0.5404 383.8884 0.5404 383.8884 74.2896274 0 74.2896274"></polygon>
    </defs>
    <g id="Page-1_final" stroke="none" stroke-width="1" fill="none" fill-rule="evenodd">
        <g id="1-Earth-2D-zoom-california" transform="translate(-878.000000, -175.000000)">
            <g id="Group-12" transform="translate(77.000000, 175.000000)">
                <g id="Group-25" transform="translate(802.000000, 0.000000)">
                    <g id="Group-31-Copy" transform="translate(0.000000, 0.000000)">
                        <g id="Group-7" transform="translate(0.000000, 0.150500)">
                            <polygon id="Fill-3" stroke="#55f9e2" stroke-width="1.5" points="12.65705 0.4914 57.36755 0.4914 64.84805 7.9719 218.08055 7.9719 225.72605 0.3279 475.35005 0.3279 483.64355 8.6214 483.64355 27.1269 493.01105 36.4944 493.01105 182.8644 487.86905 188.0064 487.86905 272.7954 495.00605 279.9339 495.00605 688.0274 473.01155 710.0219 12.65705 710.0219 0.47705 697.8434 0.47705 179.5899 15.22505 164.8434 15.22505 55.3584 1.51055 41.6439 1.51055 10.9089"></polygon>
                            <polygon id="Stroke-5" stroke="#55f9e2" stroke-width="2.955" fill="#000000" points="12.65705 0.4914 57.36755 0.4914 64.84805 7.9719 218.08055 7.9719 225.72605 0.3279 475.35005 0.3279 483.64355 8.6214 483.64355 27.1269 493.01105 36.4944 493.01105 182.8644 487.86905 188.0064 487.86905 272.7954 495.00605 279.9339 495.00605 688.0274 473.01155 710.0219 12.65705 710.0219 0.47705 697.8434 0.47705 179.5899 15.22505 164.8434 15.22505 55.3584 1.51055 41.6439 1.51055 10.9089"></polygon>
                            
                        </g>
                 
                        <polyline id="Stroke-8" stroke="#55f9e2" stroke-width="2.955" points="22.13165 52.64675 8.41715 38.93225 8.41715 14.05775 15.38165 7.54925 54.50615 7.54925 61.98665 15.02975 220.94165 15.02975 228.58715 7.38575"></polyline>
                        <polyline id="Stroke-9" stroke="#55f9e2" stroke-width="2.955" points="301.5725 703.26565 15.518 703.26565 7.385 695.13265 7.385 182.60165 22.1315 167.85515"></polyline>
                        <polyline id="Stroke-10" stroke="#55f9e2" stroke-width="2.955" points="472.4891 7.3853 476.7371 11.6333 476.7371 30.1388 486.1046 39.5063 486.1046 180.1538 480.9596 185.2958 480.9596 275.8058 488.0996 282.9458"></polyline>
                        <polygon id="Fill-11" fill="#55f9e2" points="3.97205 116.59535 9.22655 121.96235 9.22655 115.88285 3.93755 110.45435"></polygon>
                        <path d="M9.05345,121.53845 L9.05345,115.95395 L4.11245,110.88245 L4.14545,116.52395 L9.05345,121.53845 Z M9.39845,115.81445 L9.39845,122.38595 L3.79895,116.66645 L3.76145,110.02745 L9.39845,115.81445 Z" id="Fill-12" fill="#55f9e2"></path>
                        <polygon id="Fill-13" fill="#55f9e2" points="3.97205 105.08825 9.22655 110.45525 9.22655 104.37575 3.93755 98.94725"></polygon>
                        <path d="M9.05345,110.0306 L9.05345,104.4461 L4.11245,99.3746 L4.14545,105.0176 L9.05345,110.0306 Z M9.39845,104.3066 L9.39845,110.8796 L3.79895,105.1586 L3.76145,98.5196 L9.39845,104.3066 Z" id="Fill-14" fill="#55f9e2"></path>
                        <polygon id="Fill-15" fill="#55f9e2" points="3.97205 93.5804 9.22655 98.9474 9.22655 92.8679 3.93755 87.4394"></polygon>
                        <path d="M9.05345,98.52275 L9.05345,92.93825 L4.11245,87.86825 L4.14545,93.50975 L9.05345,98.52275 Z M9.39845,92.79875 L9.39845,99.37175 L3.79895,93.65075 L3.76145,87.01175 L9.39845,92.79875 Z" id="Fill-16" fill="#55f9e2"></path>
                        <polygon id="Fill-17" fill="#55f9e2" points="3.97205 82.0733 9.22655 87.4403 9.22655 81.3608 3.93755 75.9323"></polygon>
                        <path d="M9.05345,87.01565 L9.05345,81.43115 L4.11245,76.35965 L4.14545,82.00115 L9.05345,87.01565 Z M9.39845,81.29165 L9.39845,87.86315 L3.79895,82.14365 L3.76145,75.50465 L9.39845,81.29165 Z" id="Fill-18" fill="#55f9e2"></path>
                        <polygon id="Fill-19" fill="#55f9e2" points="3.97205 70.56545 9.22655 75.93245 9.22655 69.85295 3.93755 64.42445"></polygon>
                        <path d="M9.05345,75.50855 L9.05345,69.92405 L4.11245,64.85255 L4.14545,70.49405 L9.05345,75.50855 Z M9.39845,69.78305 L9.39845,76.35605 L3.79895,70.63655 L3.76145,63.99755 L9.39845,69.78305 Z" id="Fill-20" fill="#55f9e2"></path>
                        <polygon id="Fill-21" fill="#55f9e2" points="3.9119 52.9178 3.9974 59.0588 9.2264 64.4243 9.2264 58.3463"></polygon>
                        <path d="M9.05345,63.99935 L9.05345,58.41635 L4.08995,53.34785 L4.16945,58.98635 L9.05345,63.99935 Z M9.39845,58.27535 L9.39845,64.84985 L3.82595,59.12885 L3.73295,52.48685 L9.39845,58.27535 Z" id="Fill-22" fill="#55f9e2"></path>
                        <polygon id="Fill-23" fill="#55f9e2" points="491.0615 267.15725 496.316 272.52425 496.316 266.44625 491.027 261.01775"></polygon>
                        <path d="M490.8887,267.22745 L496.4882,272.94845 L496.4882,266.37545 L490.8512,260.58995 L490.8887,267.22745 Z M491.2337,267.08645 L491.2022,261.44495 L496.1432,266.51645 L496.1432,272.09945 L491.2337,267.08645 Z" id="Fill-24" fill="#55f9e2"></path>
                        <polygon id="Fill-25" fill="#55f9e2" points="491.0615 255.64985 496.316 261.01685 496.316 254.93885 491.027 249.50885"></polygon>
                        <path d="M490.8887,255.7214 L496.4882,261.4409 L496.4882,254.8679 L490.8512,249.0824 L490.8887,255.7214 Z M491.2337,255.5804 L491.2022,249.9374 L496.1432,255.0089 L496.1432,260.5934 L491.2337,255.5804 Z" id="Fill-26" fill="#55f9e2"></path>
                        <polygon id="Fill-27" fill="#55f9e2" points="491.0615 244.14245 496.316 249.50795 496.316 243.43295 491.027 238.00295"></polygon>
                        <path d="M490.8887,244.214 L496.4882,249.9335 L496.4882,243.3605 L490.8512,237.5735 L490.8887,244.214 Z M491.2337,244.073 L491.2022,238.43 L496.1432,243.503 L496.1432,249.086 L491.2337,244.073 Z" id="Fill-28" fill="#55f9e2"></path>
                        <polygon id="Fill-29" fill="#55f9e2" points="491.0615 232.6364 496.316 238.0019 496.316 231.9239 491.027 226.4954"></polygon>
                        <path d="M490.8887,232.7066 L496.4882,238.4261 L496.4882,231.8531 L490.8512,226.0661 L490.8887,232.7066 Z M491.2337,232.5641 L491.2022,226.9226 L496.1432,231.9941 L496.1432,237.5786 L491.2337,232.5641 Z" id="Fill-30" fill="#55f9e2"></path>
                    </g>
           
                    <!-- <g id="Group-3" transform="translate(61.000000, 0.000000)">
                        <polygon id="Fill-1" fill="#55f9e2" points="0.000576 0.189856 0.000576 12.686176 13.439 24.660625 155.577856 25.182496 155.577856 0.189856"></polygon>
                        <text id="California" font-family="DINCondensed-Bold, DIN Condensed" font-size="17.28" font-style="condensed" font-weight="bold" letter-spacing="2.5" fill="#000000">
                            <tspan x="38" y="18.08">CALIFORNIA</tspan>
                        </text>
                    </g> -->
              
                    <!-- <g id="Group-15" transform="translate(56.000000, 285.000000)">
                        <g id="Group-9">
                            <polyline id="Stroke-1" stroke="#00FFFF" stroke-width="1.972" points="6.82125 0.4857 0.48525 0.4857 0.48525 7.1202"></polyline>
                            <polyline id="Stroke-3" stroke="#00FFFF" stroke-width="1.972" points="6.82125 47.08905 0.48525 47.08905 0.48525 40.45305"></polyline>
                            <polyline id="Stroke-5" stroke="#00FFFF" stroke-width="1.972" points="157.2204 0.4857 163.5549 0.4857 163.5549 7.1202"></polyline>
                            <polyline id="Stroke-7" stroke="#00FFFF" stroke-width="1.972" points="157.2204 47.08905 163.5549 47.08905 163.5549 40.45305"></polyline>
                            <text id="details" font-family="DINCondensed-Bold, DIN Condensed" font-size="24" font-style="condensed" font-weight="bold" letter-spacing="3.47222222" fill="#00CFCF">
                                <tspan x="42" y="31">DETAILS</tspan>
                            </text>
                        </g>
                    </g> -->
                    <!-- <g id="Group-15-Copy" transform="translate(256.000000, 285.000000)">
                        <g id="Group-9">
                            <polyline id="Stroke-1" stroke="#00FFFF" stroke-width="1.972" points="6.82125 0.4857 0.48525 0.4857 0.48525 7.1202"></polyline>
                            <polyline id="Stroke-3" stroke="#00FFFF" stroke-width="1.972" points="6.82125 47.08905 0.48525 47.08905 0.48525 40.45305"></polyline>
                            <polyline id="Stroke-5" stroke="#00FFFF" stroke-width="1.972" points="178.2204 0.4857 184.5549 0.4857 184.5549 7.1202"></polyline>
                            <polyline id="Stroke-7" stroke="#00FFFF" stroke-width="1.972" points="178.2204 47.08905 184.5549 47.08905 184.5549 40.45305"></polyline>
                            <text id="MAGIC-PLACE" font-family="DINCondensed-Bold, DIN Condensed" font-size="24" font-style="condensed" font-weight="bold" letter-spacing="3.47222222" fill="#00CFCF">
                                <tspan x="28" y="31">MAGIC PLACE</tspan>
                            </text>
                        </g>
                    </g> -->
                </g>
            </g>
        </g>
    </g>
</svg>