<svg width="100" height="100" xmlns="http://www.w3.org/2000/svg" version="1.1">
 <!-- Generator: sketchtool 58 (101010) - https://sketch.com -->
 <title>47099BC7-FE36-4BCE-ACDB-49EEE8D93417</title>
 <desc>Created with sketchtool.</desc>
 <defs>
  <polygon points="0 0.5404 383.8884 0.5404 383.8884 74.2896274 0 74.2896274" id="path-1"/>
 </defs>
 <g>
  <title>Layer 1</title>
  <g id="stadistics-svg" fill="#55f9e2" >
   <path stroke="null" id="Shape" d="m50,96.13c-25.4769,0 -46.13,-20.6531 -46.13,-46.13c0,-25.4769 20.6531,-46.13 46.13,-46.13c25.4769,0 46.13,20.6531 46.13,46.13c-0.02633,25.46598 -20.66402,46.10367 -46.13,46.13zm0,-91.66292c-25.14714,0 -45.53292,20.38578 -45.53292,45.53292c0,25.14714 20.38578,45.53292 45.53292,45.53292c25.14714,0 45.53292,-20.38578 45.53292,-45.53292c-0.0329,-25.13351 -20.39942,-45.50003 -45.53292,-45.53292z"/>
   <path stroke="null" opacity="0.1" id="Shape" d="m50,15.62044c-18.98731,0 -34.37957,15.39225 -34.37957,34.37957c0,18.98731 15.39225,34.37957 34.37957,34.37957c18.98731,0 34.37957,-15.39225 34.37957,-34.37957c0.00316,-9.119 -3.61794,-17.86542 -10.06605,-24.31352c-6.4481,-6.44811 -15.19451,-10.06921 -24.31352,-10.06605zm0,67.27839c-18.16951,0 -32.89882,-14.72931 -32.89882,-32.89882c0,-18.16951 14.72931,-32.89882 32.89882,-32.89882c18.16951,0 32.89882,14.72931 32.89882,32.89882c0,8.7253 -3.46611,17.09325 -9.63584,23.26298c-6.16973,6.16973 -14.53767,9.63584 -23.26298,9.63584z"/>
   <path stroke="null" id="Shape" d="m50,90.1712c-22.18594,0 -40.17119,-17.98525 -40.17119,-40.17119c0,-22.18594 17.98525,-40.17119 40.17119,-40.17119c22.18594,0 40.17119,17.98525 40.17119,40.17119c-0.02632,22.17502 -17.99617,40.14487 -40.17119,40.17119zm0,-79.74531c-21.85619,0 -39.57412,17.71793 -39.57412,39.57412c0,21.85619 17.71793,39.57412 39.57412,39.57412c21.85619,0 39.57412,-17.71793 39.57412,-39.57412c-0.02632,-21.84527 -17.72885,-39.5478 -39.57412,-39.57412z"/>
   <path stroke="null" id="Shape" d="m50,86.98282c-20.44483,0 -37.01864,-16.57381 -37.01864,-37.01864c0,-20.44483 16.57381,-37.01864 37.01864,-37.01864c20.44483,0 37.01864,16.57381 37.01864,37.01864c0,9.81795 -3.90016,19.23379 -10.84251,26.17613c-6.94234,6.94234 -16.35818,10.84251 -26.17613,10.84251l0,0zm0,-73.35661c-14.71774,0 -27.98605,8.86639 -33.61717,22.46428c-5.63113,13.59788 -2.51593,29.24898 7.89279,39.65428c10.40873,10.40531 26.06085,13.51537 39.65687,7.87979c13.59604,-5.63559 22.45807,-18.90682 22.45325,-33.62455c-0.01976,-20.08517 -16.30057,-36.36064 -36.38574,-36.3738z"/>
   <rect stroke="null" height="3.20032" width="1.19415" y="10.12735" x="49.70146" id="Rectangle"/>
   <rect stroke="null" height="3.20032" width="1.19415" y="86.68428" x="49.70146" id="Rectangle"/>
   <rect stroke="null" height="2.68" width="1" y="19.87623" x="74.75545" transform="matrix(1.18961 -0.104077 0.104077 1.18961 -44.7639 -5.56839)" id="Rectangle"/>
   <rect stroke="null" height="2.68" width="1" y="147.59582" x="85.94444" transform="matrix(1.18961 -0.104077 0.104077 1.18961 -64.6864 -80.0817)" id="Rectangle"/>
   <rect stroke="null" height="2.68" width="1" y="20.92908" x="69.26944" transform="matrix(1.17601 -0.207362 0.207362 1.17601 -43.0103 0.54535)" id="Rectangle"/>
   <rect stroke="null" height="2.68" width="1" y="147.1855" x="91.51608" transform="matrix(1.17601 -0.207362 0.207362 1.17601 -82.0704 -67.9356)" id="Rectangle"/>
   <rect stroke="null" height="2.69137" width="1" y="22.43527" x="64.11747" transform="matrix(1.15343 -0.309168 0.309168 1.15343 -41.3271 5.51498)" id="Rectangle"/>
   <polygon stroke="null" points="60.03085708618164,88.59491729736328 59.2068977355957,85.5020751953125 59.780086517333984,85.34683227539062 60.61599349975586,88.43968200683594 " id="Path"/>
   <rect stroke="null" height="2.68" width="1" y="24.38062" x="58.50278" transform="matrix(1.12213 -0.408423 0.408423 1.12213 -39.5182 9.1588)" id="Rectangle"/>
   <rect stroke="null" height="2.67893" width="1" y="145.09959" x="102.08115" transform="matrix(1.12295 -0.406173 0.406173 1.12295 -111.458 -36.7728)" id="Rectangle"/>
   <rect stroke="null" height="2.68" width="1" y="26.82177" x="53.30521" transform="matrix(1.08227 -0.504669 0.504669 1.08227 -38.3479 11.8544)" id="Rectangle"/>
   <rect stroke="null" height="2.68" width="1" y="143.04381" x="107.48221" transform="matrix(1.08236 -0.504481 0.504481 1.08236 -123.27 -17.2269)" id="Rectangle"/>
   <rect stroke="null" height="2.68" width="1" y="29.70831" x="48.29789" transform="matrix(1.03416 -0.597075 0.597075 1.03416 -37.8799 13.7312)" id="Rectangle"/>
   <rect stroke="null" height="2.68" width="1" y="140.75004" x="112.39841" transform="matrix(1.03427 -0.596894 0.596894 1.03427 -132.184 3.43409)" id="Rectangle"/>
   <polygon stroke="null" points="28.72025489807129,20.134319305419922 26.88126564025879,17.50719451904297 27.370866775512695,17.160890579223633 29.209856033325195,19.788015365600586 " id="Path"/>
   <rect stroke="null" height="2.68" width="1" y="138.0348" x="117.05986" transform="matrix(0.97819 -0.684936 0.684936 0.97819 -138.249 25.3752)" id="Rectangle"/>
   <rect stroke="null" height="2.68" width="1" y="36.70101" x="38.98523" transform="matrix(0.914906 -0.767425 0.767425 0.914906 -39.6827 15.9957)" id="Rectangle"/>
   <rect stroke="null" height="2.68" width="1" y="134.89494" x="121.39787" transform="matrix(0.914772 -0.767585 0.767585 0.914772 -141.238 48.0694)" id="Rectangle"/>
   <rect stroke="null" height="2.68" width="1" y="40.73532" x="34.74246" transform="matrix(0.844244 -0.844539 0.844539 0.844244 -42.1286 16.9665)" id="Rectangle"/>
   <rect stroke="null" height="2.68" width="1" y="131.40373" x="125.39427" transform="matrix(0.844391 -0.844391 0.844391 0.844391 -141.107 71.0773)" id="Rectangle"/>
   <rect stroke="null" height="2.68" width="1" y="45.11683" x="30.79699" transform="matrix(0.767585 -0.914772 0.914772 0.767585 -45.6495 18.1389)" id="Rectangle"/>
   <rect stroke="null" height="2.68" width="1" y="127.5145" x="129.02897" transform="matrix(0.767585 -0.914772 0.914772 0.767585 -137.774 93.9492)" id="Rectangle"/>
   <rect stroke="null" height="2.68" width="1" y="49.78757" x="27.23862" transform="matrix(0.684936 -0.97819 0.97819 0.684936 -50.1856 19.9098)" id="Rectangle"/>
   <rect stroke="null" height="2.68" width="1" y="123.34103" x="132.25606" transform="matrix(0.684936 -0.97819 0.97819 0.684936 -131.362 116.174)" id="Rectangle"/>
   <rect stroke="null" height="2.68" width="1" y="54.74921" x="24.04618" transform="matrix(0.597255 -1.03406 1.03406 0.597255 -55.6494 22.4895)" id="Rectangle"/>
   <rect stroke="null" height="2.68" width="1" y="118.86616" x="135.07942" transform="matrix(0.597075 -1.03416 1.03416 0.597075 -121.958 137.328)" id="Rectangle"/>
   <rect stroke="null" height="2.68" width="1" y="59.92617" x="21.24973" transform="matrix(0.504669 -1.08227 1.08227 0.504669 -61.8406 26.1785)" id="Rectangle"/>
   <rect stroke="null" height="2.68" width="1" y="114.11066" x="137.44173" transform="matrix(0.504669 -1.08227 1.08227 0.504669 -109.746 156.936)" id="Rectangle"/>
   <rect stroke="null" height="2.68" width="1" y="65.27829" x="18.87888" transform="matrix(0.408423 -1.12213 1.12213 0.408423 -68.532 31.166)" id="Rectangle"/>
   <rect stroke="null" height="2.68" width="1" y="109.13277" x="139.345" transform="matrix(0.408227 -1.1222 1.1222 0.408227 -94.9967 174.65)" id="Rectangle"/>
   <polygon stroke="null" points="14.497934341430664,40.793113708496094 11.405086517333984,39.969146728515625 11.56032657623291,39.39595413208008 14.653173446655273,40.21991729736328 " id="Path"/>
   <polygon stroke="null" points="88.4396858215332,60.615989685058594 85.34684371948242,59.780086517333984 85.5020637512207,59.2068977355957 88.59491348266602,60.030860900878906 " id="Path"/>
   <rect stroke="null" height="2.68" width="1" y="76.38092" x="15.4958" transform="matrix(0.207362 -1.17601 1.17601 0.207362 -82.3529 45.7454)" id="Rectangle"/>
   <rect stroke="null" height="2.66562" width="1" y="98.97726" x="140.77687" transform="matrix(0.2041 -1.17658 1.17658 0.2041 -59.6871 202.284)" id="Rectangle"/>
   <rect stroke="null" height="2.68" width="1" y="82.08401" x="14.49003" transform="matrix(0.104077 -1.18961 1.18961 0.104077 -88.9035 55.5253)" id="Rectangle"/>
   <rect stroke="null" height="2.68" width="1" y="93.26224" x="142.22272" transform="matrix(0.104285 -1.18959 1.18959 0.104285 -39.2575 212.966)" id="Rectangle"/>
   <rect stroke="null" height="1.19415" width="3.20032" y="49.70147" x="10.12735" id="Rectangle"/>
   <rect stroke="null" height="1.19415" width="3.20032" y="49.70147" x="86.68428" id="Rectangle"/>
   <rect stroke="null" height="1" width="2.68" y="90.42569" x="15.37846" transform="matrix(1.18951 -0.105115 0.105115 1.18951 -17.5492 -52.7677)" id="Rectangle"/>
   <rect stroke="null" height="1" width="2.68" y="79.24645" x="143.10032" transform="matrix(1.18951 -0.105115 0.105115 1.18951 -92.0416 -32.7192)" id="Rectangle"/>
   <rect stroke="null" height="1" width="2.66562" y="95.85782" x="15.74854" transform="matrix(1.17658 -0.2041 0.2041 1.17658 -27.6587 -53.1802)" id="Rectangle"/>
   <rect stroke="null" height="1" width="2.68" y="74.02235" x="142.43831" transform="matrix(1.17594 -0.207772 0.207772 1.17594 -96.8049 -14.0989)" id="Rectangle"/>
   <polygon stroke="null" points="11.56032657623291,60.615989685058594 11.405086517333984,60.030860900878906 14.497934341430664,59.2068977355957 14.653173446655273,59.780086517333984 " id="Path"/>
   <polygon stroke="null" points="85.5020637512207,40.793113708496094 85.34684371948242,40.21991729736328 88.4396858215332,39.39595413208008 88.59491348266602,39.969146728515625 " id="Path"/>
   <rect stroke="null" height="1" width="2.68" y="107.6506" x="19.08749" transform="matrix(1.1222 -0.408227 0.408227 1.1222 -52.9397 -49.6548)" id="Rectangle"/>
   <rect stroke="null" height="1" width="2.68" y="63.80504" x="139.56187" transform="matrix(1.1222 -0.408227 0.408227 1.1222 -98.3054 22.5508)" id="Rectangle"/>
   <rect stroke="null" height="1" width="2.68" y="113.12188" x="21.20307" transform="matrix(1.08262 -0.503914 0.503914 1.08262 -66.2265 -45.1953)" id="Rectangle"/>
   <rect stroke="null" height="1" width="2.68" y="58.94744" x="137.40712" transform="matrix(1.08262 -0.503914 0.503914 1.08262 -95.3494 39.6656)" id="Rectangle"/>
   <rect stroke="null" height="1" width="2.68" y="118.37882" x="23.73522" transform="matrix(1.03396 -0.597436 0.597436 1.03396 -79.9498 -38.5311)" id="Rectangle"/>
   <rect stroke="null" height="1" width="2.68" y="54.28422" x="134.78992" transform="matrix(1.03396 -0.597436 0.597436 1.03396 -90.175 55.8186)" id="Rectangle"/>
   <rect stroke="null" height="1" width="2.68" y="123.38871" x="26.67711" transform="matrix(0.977472 -0.68596 0.68596 0.977472 -93.546 -29.6719)" id="Rectangle"/>
   <rect stroke="null" height="1" width="2.68" y="49.84832" x="131.70362" transform="matrix(0.977592 -0.685789 0.685789 0.977592 -83.0596 70.3183)" id="Rectangle"/>
   <rect stroke="null" height="1" width="2.68" y="128.07698" x="29.98146" transform="matrix(0.914638 -0.767744 0.767744 0.914638 -106.488 -18.7295)" id="Rectangle"/>
   <rect stroke="null" height="1" width="2.68" y="45.67644" x="128.19461" transform="matrix(0.914638 -0.767744 0.767744 0.914638 -74.4138 82.8404)" id="Rectangle"/>
   <rect stroke="null" height="1" width="2.68" y="132.48004" x="33.63797" transform="matrix(0.844391 -0.844391 0.844391 0.844391 -118.672 -5.47713)" id="Rectangle"/>
   <rect stroke="null" height="1" width="2.68" y="41.82783" x="124.30757" transform="matrix(0.844244 -0.844539 0.844539 0.844244 -64.5378 93.5277)" id="Rectangle"/>
   <rect stroke="null" height="1" width="2.68" y="136.53324" x="37.62414" transform="matrix(0.767744 -0.914638 0.914638 0.767744 -129.616 9.95304)" id="Rectangle"/>
   <rect stroke="null" height="1" width="2.68" y="38.29738" x="120.04385" transform="matrix(0.767744 -0.914638 0.914638 0.767744 -53.8318 102.103)" id="Rectangle"/>
   <rect stroke="null" height="1" width="2.68" y="140.14982" x="41.89203" transform="matrix(0.685789 -0.977592 0.977592 0.685789 -138.848 27.322)" id="Rectangle"/>
   <rect stroke="null" height="1" width="2.67638" y="34.84922" x="114.97929" transform="matrix(0.681586 -0.980527 0.980527 0.681586 -41.9993 108.593)" id="Rectangle"/>
   <rect stroke="null" height="1" width="2.68" y="143.38509" x="46.41616" transform="matrix(0.597436 -1.03396 1.03396 0.597436 -146.175 46.702)" id="Rectangle"/>
   <rect stroke="null" height="1" width="2.68" y="32.37049" x="110.50146" transform="matrix(0.597436 -1.03396 1.03396 0.597436 -31.4142 113.003)" id="Rectangle"/>
   <rect stroke="null" height="1" width="2.68" y="146.21685" x="51.15759" transform="matrix(0.503914 -1.08262 1.08262 0.503914 -151.197 67.7277)" id="Rectangle"/>
   <rect stroke="null" height="1" width="2.68" y="30.00242" x="105.35354" transform="matrix(0.503914 -1.08262 1.08262 0.503914 -20.3321 115.575)" id="Rectangle"/>
   <rect stroke="null" height="1" width="2.68" y="148.53274" x="56.09941" transform="matrix(0.408227 -1.1222 1.1222 0.408227 -153.503 89.689)" id="Rectangle"/>
   <rect stroke="null" height="1" width="2.68" y="28.04838" x="99.95187" transform="matrix(0.408227 -1.1222 1.1222 0.408227 -10.0137 116.147)" id="Rectangle"/>
   <rect stroke="null" height="1" width="2.68" y="150.37083" x="61.18307" transform="matrix(0.307659 -1.15384 1.15384 0.307659 -152.936 112.762)" id="Rectangle"/>
   <rect stroke="null" height="1" width="2.68" y="26.53238" x="94.37987" transform="matrix(0.309874 -1.15324 1.15324 0.309874 -0.638667 115.111)" id="Rectangle"/>
   <rect stroke="null" height="1" width="2.68" y="151.74337" x="66.3947" transform="matrix(0.207567 -1.17597 1.17597 0.207567 -149.446 135.796)" id="Rectangle"/>
   <rect stroke="null" height="1" width="2.68" y="25.4757" x="88.66593" transform="matrix(0.207567 -1.17597 1.17597 0.207567 7.71616 112.804)" id="Rectangle"/>
   <rect stroke="null" height="1" width="2.68" y="152.61544" x="71.67812" transform="matrix(0.104907 -1.18953 1.18953 0.104907 -142.831 158.956)" id="Rectangle"/>
   <rect stroke="null" height="1" width="2.68" y="24.87831" x="82.85412" transform="matrix(0.104907 -1.18953 1.18953 0.104907 14.6167 109.382)" id="Rectangle"/>
   <path stroke="null" id="Shape" d="m50,76.23547c-14.50923,0 -26.27129,-11.76206 -26.27129,-26.27129c0,-14.50923 11.76206,-26.27129 26.27129,-26.27129c14.50923,0 26.27129,11.76206 26.27129,26.27129c0,6.96758 -2.76786,13.64979 -7.69468,18.57661c-4.92682,4.92682 -11.60903,7.69468 -18.57661,7.69468zm0,-51.87386c-14.15969,0 -25.63839,11.4787 -25.63839,25.63839c0,14.15969 11.4787,25.63839 25.63839,25.63839c14.15969,0 25.63839,-11.4787 25.63839,-25.63839c-0.01317,-14.15423 -11.48416,-25.62522 -25.63839,-25.63839z"/>
   <path stroke="null" id="Path" d="m68.35408,31.70563c-4.84218,-4.86578 -11.42983,-7.592 -18.29437,-7.57092l0,-2.3883c7.48039,-0.00565 14.65401,2.97297 19.93036,8.27547l-1.63598,1.68375z"/>
  </g>
 </g>
</svg>