
<svg width="810px" height="252px" viewBox="0 0 810 252" version="1.1" xmlns="http://www.w3.org/2000/svg" xmlns:xlink="http://www.w3.org/1999/xlink">
    <!-- Generator: Sketch 58 (84663) - https://sketch.com -->
    
    <desc>Created with Sketch.</desc>
    <defs>
        <path d="M103.7988,0.029 L26.6364,3.9812 L26.5986,3.9833 C26.5986,3.9833 26.1618,4.019 25.3974,4.082 L25.3974,4.082 C24.6309,4.1261 23.541,4.2416 22.2411,4.4516 L22.2411,4.4516 C19.6434,4.8485 16.212,5.6885 12.9654,7.064 L12.9654,7.064 C9.7335,8.4563 6.6969,10.3484 4.7481,12.251 L4.7481,12.251 C3.7653,13.1897 3.0324,14.0948 2.6229,14.8718 L2.6229,14.8718 C2.1819,15.6026 2.0979,16.2326 2.0748,16.1969 L2.0748,16.1969 L2.0622,16.2389 C2.0622,16.2389 1.5687,18.4733 0.5838,22.94 L0.5838,22.94 L109.4688,22.94 L109.494,22.94 C109.4898,22.9211 109.4877,22.9064 109.4835,22.8917 L109.4835,22.8917 L103.8555,0.0479 L103.8492,0.0269 C103.8303,0.029 103.8135,0.029 103.7988,0.029 M3.8808,16.64 L3.8913,16.6085 C3.9312,16.6022 3.9165,16.3271 4.2546,15.7706 L4.2546,15.7706 C4.5381,15.2141 5.1618,14.4287 6.0375,13.5929 L6.0375,13.5929 C7.7742,11.8919 10.6344,10.0943 13.6983,8.7776 L13.6983,8.7776 C16.7748,7.4735 20.0487,6.6692 22.5309,6.287 L22.5309,6.287 C23.772,6.0896 24.8136,5.9783 25.5444,5.9384 L25.5444,5.9384 C26.2773,5.8775 26.6931,5.8439 26.6931,5.8439 L26.6931,5.8439 L26.7309,5.8397 L102.4086,1.9652 L107.1168,21.0773 L2.9001,21.0773 C3.5532,18.1184 3.8808,16.64 3.8808,16.64" id="path-1"></path>
        <polygon id="path-3" points="0 216.3 776.6451 216.3 776.6451 0.7539 0 0.7539"></polygon>
        <path d="M5.7057,0.0756 L5.6637,0.0798 C5.6637,0.0798 5.5419,0.0903 5.3319,0.1092 L5.3319,0.1092 C5.1198,0.147 4.8069,0.1239 4.4562,0.2436 L4.4562,0.2436 C3.7401,0.4074 2.8539,0.8715 2.142,1.5456 L2.142,1.5456 C1.4679,2.2575 1.0038,3.1416 0.8421,3.8598 L0.8421,3.8598 C0.7182,4.2105 0.7455,4.5234 0.7077,4.7334 L0.7077,4.7334 C0.6867,4.9455 0.6741,5.0673 0.6741,5.0673 L0.6741,5.0673 L0.672,5.1072 L0.672,11.4996 L0.6741,11.5395 C0.6741,11.5395 0.6867,11.6613 0.7077,11.8734 L0.7077,11.8734 C0.7455,12.0855 0.7182,12.3984 0.8421,12.747 L0.8421,12.747 C1.0038,13.4652 1.4679,14.3493 2.142,15.0612 L2.142,15.0612 C2.8539,15.7353 3.7401,16.1994 4.4562,16.3632 L4.4562,16.3632 C4.8069,16.485 5.1198,16.4598 5.3319,16.4976 L5.3319,16.4976 C5.5419,16.5165 5.6637,16.5291 5.6637,16.5291 L5.6637,16.5291 L5.7057,16.5312 L47.0694,16.5312 C48.3882,16.527 49.4844,15.9999 50.2299,15.3825 L50.2299,15.3825 C51.0111,14.7777 51.408,14.0322 51.6915,13.4526 L51.6915,13.4526 C52.1577,12.2199 52.0254,11.5269 52.0779,11.5395 L52.0779,11.5395 L52.08,11.4996 L52.08,5.1072 L52.0779,5.0673 C52.0779,5.0673 52.0653,4.9455 52.0464,4.7334 L52.0464,4.7334 C52.0086,4.5234 52.0359,4.2105 51.912,3.8598 L51.912,3.8598 C51.7503,3.1416 51.2862,2.2575 50.6121,1.5456 L50.6121,1.5456 C49.9002,0.8715 49.0161,0.4074 48.2958,0.2436 L48.2958,0.2436 C47.9472,0.1239 47.6343,0.147 47.4243,0.1092 L47.4243,0.1092 C47.2101,0.0903 47.0904,0.0798 47.0904,0.0798 L47.0904,0.0798 L47.0505,0.0756 L5.7057,0.0756 Z M5.67,15.2712 C5.67,15.2712 5.5797,15.2628 5.4201,15.246 L5.4201,15.246 C5.2647,15.2103 5.0232,15.246 4.7649,15.1452 L4.7649,15.1452 C4.2273,15.0255 3.5721,14.6727 3.0303,14.175 L3.0303,14.175 C2.5326,13.6332 2.1777,12.978 2.058,12.4383 L2.058,12.4383 C1.9572,12.1821 1.995,11.9406 1.9572,11.7852 L1.9572,11.7852 C1.9404,11.6256 1.9341,11.5353 1.9341,11.5353 L1.9341,11.5353 L1.9278,11.4996 L1.9278,5.1072 L1.9341,5.0736 C1.9341,5.0736 1.9404,4.9812 1.9572,4.8216 L1.9572,4.8216 C1.995,4.6662 1.9572,4.4268 2.058,4.1706 L2.058,4.1706 C2.1777,3.6309 2.5326,2.9757 3.0303,2.4318 L3.0303,2.4318 C3.5721,1.9362 4.2273,1.5813 4.7649,1.4616 L4.7649,1.4616 C5.0232,1.3629 5.2647,1.3965 5.4201,1.3629 L5.4201,1.3629 C5.5797,1.3461 5.67,1.3356 5.67,1.3356 L5.67,1.3356 L5.7057,1.3335 L47.0505,1.3335 L47.0862,1.3356 C47.0862,1.3356 47.1765,1.3461 47.3361,1.3629 L47.3361,1.3629 C47.4894,1.3965 47.7309,1.3629 47.9892,1.4616 L47.9892,1.4616 C48.5289,1.5813 49.1862,1.9362 49.7259,2.4318 L49.7259,2.4318 C50.2215,2.9757 50.5764,3.6309 50.6961,4.1706 L50.6961,4.1706 C50.7948,4.4268 50.7591,4.6662 50.7948,4.8216 L50.7948,4.8216 C50.8116,4.9812 50.82,5.0736 50.82,5.0736 L50.82,5.0736 L50.8242,5.1072 L50.8242,11.4996 L50.82,11.5353 C50.778,11.5248 50.8767,12.0435 50.5323,12.9675 L50.5323,12.9675 C50.1858,13.8201 49.0938,15.2145 47.0694,15.2733 L47.0694,15.2733 L5.7057,15.2733 L5.67,15.2712 Z" id="path-5"></path>
        <polygon id="path-7" points="0.2856 0.8753 0.2856 1.4948 0.2856 2.2928 0.2856 3.0908 0.2856 3.5612 0.2856 3.7964 34.6521 3.7964 34.6521 3.5612 34.6521 3.0908 34.6521 2.2928 34.6521 1.4948 34.6521 0.8753"></polygon>
        <polygon id="path-9" points="0.2856 0.0504 0.2856 0.6699 0.2856 1.47 0.2856 2.2659 0.2856 2.7363 0.2856 2.9715 34.6521 2.9715 34.6521 2.7363 34.6521 2.2659 34.6521 1.47 34.6521 0.6699 34.6521 0.0504"></polygon>
        <polygon id="path-11" points="0.2856 0.3255 0.2856 0.9429 0.2856 1.743 0.2856 2.541 0.2856 3.0135 0.2856 3.2466 34.6521 3.2466 34.6521 3.0135 34.6521 2.541 34.6521 1.743 34.6521 0.9429 34.6521 0.3255"></polygon>
        <polygon id="path-13" points="0.2856 0.6006 0.2856 1.2201 0.2856 2.0202 0.2856 2.8182 0.2856 3.2886 0.2856 3.5238 34.6521 3.5238 34.6521 3.2886 34.6521 2.8182 34.6521 2.0202 34.6521 1.2201 34.6521 0.6006"></polygon>
        <polygon id="path-15" points="0.2856 0.8757 0.2856 1.4952 0.2856 2.2932 0.2856 3.0933 0.2856 3.5637 0.2856 3.7989 34.6521 3.7989 34.6521 3.5637 34.6521 3.0933 34.6521 2.2932 34.6521 1.4952 34.6521 0.8757"></polygon>
        <polygon id="path-17" points="0.2856 0.1508 0.2856 0.7703 0.2856 1.5704 0.2856 2.3684 0.2856 2.8388 0.2856 3.0719 34.6521 3.0719 34.6521 2.8388 34.6521 2.3684 34.6521 1.5704 34.6521 0.7703 34.6521 0.1508"></polygon>
        <polygon id="path-19" points="0.2856 0.428 0.2856 1.0475 0.2856 1.8455 0.2856 2.6456 0.2856 3.116 0.2856 3.3512 34.6521 3.3512 34.6521 3.116 34.6521 2.6456 34.6521 1.8455 34.6521 1.0475 34.6521 0.428"></polygon>
        <polygon id="path-21" points="0 216.3 776.6451 216.3 776.6451 0.7539 0 0.7539"></polygon>
    </defs>
    <g id="Page-1_final" stroke="none" stroke-width="1" fill="none" fill-rule="evenodd">
        <g id="1-Earth-2D-route-problem-033" transform="translate(-285.000000, -397.000000)">
            <g id="Group-36" transform="translate(285.000000, 397.000000)">
                <g id="truck-2" transform="translate(421.000000, 132.500000) scale(-1, 1) translate(-421.000000, -132.500000) translate(32.500000, 23.500000)">
                    <polygon id="Stroke-1" stroke="#00CFCF" stroke-width="2.1" points="204.9684 145.4099 269.0457 145.4099 269.0457 141.023 204.9684 141.023"></polygon>
                    <polygon id="Stroke-2" stroke="#00CFCF" stroke-width="2.1" points="499.47786 161.3048 393.10446 161.3048 393.10446 156.6743 494.17116 156.6743"></polygon>
                    <polygon id="Stroke-3" stroke="#00CFCF" stroke-width="2.1" points="502.77969 167.92778 393.10299 167.92778 393.10299 163.29308 499.58769 163.29308"></polygon>
                    <g id="Group-8" transform="translate(15.700000, 1.346100)" stroke="#00CFCF" stroke-width="2.1">
                        <path d="M37.75361,5.19752 C21.63401,6.02282 6.78491,14.76092 4.58621,24.71282 L0.60671,42.73502 L132.96131,42.73502 L122.63771,0.84842 L37.75361,5.19752 Z" id="Stroke-4"></path>
                        <polygon id="Stroke-6" points="2.02904 36.29054 0.60524 42.73544 132.96194 42.73544 131.31554 36.05534"></polygon>
                    </g>
                    <g id="Group-11" transform="translate(27.300000, 11.846100)">
                        <mask id="mask-2" fill="white">
                            <use xlink:href="#path-1"></use>
                        </mask>
                        <g id="Clip-10"></g>
                        <path d="M103.7988,0.029 L26.6364,3.9812 L26.5986,3.9833 C26.5986,3.9833 26.1618,4.019 25.3974,4.082 L25.3974,4.082 C24.6309,4.1261 23.541,4.2416 22.2411,4.4516 L22.2411,4.4516 C19.6434,4.8485 16.212,5.6885 12.9654,7.064 L12.9654,7.064 C9.7335,8.4563 6.6969,10.3484 4.7481,12.251 L4.7481,12.251 C3.7653,13.1897 3.0324,14.0948 2.6229,14.8718 L2.6229,14.8718 C2.1819,15.6026 2.0979,16.2326 2.0748,16.1969 L2.0748,16.1969 L2.0622,16.2389 C2.0622,16.2389 1.5687,18.4733 0.5838,22.94 L0.5838,22.94 L109.4688,22.94 L109.494,22.94 C109.4898,22.9211 109.4877,22.9064 109.4835,22.8917 L109.4835,22.8917 L103.8555,0.0479 L103.8492,0.0269 C103.8303,0.029 103.8135,0.029 103.7988,0.029 M3.8808,16.64 L3.8913,16.6085 C3.9312,16.6022 3.9165,16.3271 4.2546,15.7706 L4.2546,15.7706 C4.5381,15.2141 5.1618,14.4287 6.0375,13.5929 L6.0375,13.5929 C7.7742,11.8919 10.6344,10.0943 13.6983,8.7776 L13.6983,8.7776 C16.7748,7.4735 20.0487,6.6692 22.5309,6.287 L22.5309,6.287 C23.772,6.0896 24.8136,5.9783 25.5444,5.9384 L25.5444,5.9384 C26.2773,5.8775 26.6931,5.8439 26.6931,5.8439 L26.6931,5.8439 L26.7309,5.8397 L102.4086,1.9652 L107.1168,21.0773 L2.9001,21.0773 C3.5532,18.1184 3.8808,16.64 3.8808,16.64" id="Fill-9" mask="url(#mask-2)"></path>
                    </g>
                    <g id="Group-31" transform="translate(0.000000, 0.346100)">
                        <polygon id="Stroke-12" stroke="#00CFCF" stroke-width="2.1" points="16.30566 43.73607 1.04916 127.02417 1.04916 185.47137 148.26756 185.47137 148.66026 43.73607"></polygon>
                        <mask id="mask-4" fill="white">
                            <use xlink:href="#path-3"></use>
                        </mask>
                        <g id="Clip-15"></g>
                        <polygon id="Stroke-14" stroke="#00CFCF" stroke-width="2.1" mask="url(#mask-4)" points="84.9975 127.5582 148.6611 127.5582 148.6611 122.2305 84.9975 122.2305"></polygon>
                        <path d="M84.99246,150.72435 C71.09256,150.72435 59.07636,158.93325 53.52396,170.75835 L50.63646,180.28605 C50.38446,181.97865 50.24796,183.70695 50.24796,185.46675 L56.86086,185.46675 L119.74116,185.46675 C119.74116,166.31055 104.15496,150.72435 84.99246,150.72435 Z" id="Stroke-16" stroke="#00CFCF" stroke-width="2.1" mask="url(#mask-4)"></path>
                        <path d="M114.77592,185.46759 C114.77592,201.91479 101.43882,215.24979 84.99162,215.24979 C68.54862,215.24979 55.21362,201.91479 55.21362,185.46759 C55.21362,169.01829 68.54862,155.68749 84.99162,155.68749 C101.43882,155.68749 114.77592,169.01829 114.77592,185.46759 Z" id="Stroke-17" stroke="#00CFCF" stroke-width="2.1" mask="url(#mask-4)"></path>
                        <path d="M84.99246,202.84089 C75.41226,202.84089 67.62126,195.04569 67.62126,185.46759 C67.62126,175.88949 75.41226,168.09429 84.99246,168.09429 C94.57266,168.09429 102.36786,175.88949 102.36786,185.46759 C102.36786,195.04569 94.57266,202.84089 84.99246,202.84089 Z" id="Stroke-18" stroke="#00CFCF" stroke-width="2.1" mask="url(#mask-4)"></path>
                        <path d="M84.99246,202.84488 C75.41226,202.84488 67.62336,195.04548 67.62336,185.46738 C67.62336,175.88928 75.41226,168.09408 84.99246,168.09408 C94.57266,168.09408 102.36786,175.88928 102.36786,185.46738 C102.36786,195.04548 94.57266,202.84488 84.99246,202.84488 Z" id="Stroke-19" stroke="#00CFCF" stroke-width="2.1" mask="url(#mask-4)"></path>
                        <path d="M84.99246,190.42947 C82.25616,190.42947 80.02806,188.20557 80.02806,185.46717 C80.02806,182.73087 82.25616,180.50277 84.99246,180.50277 C87.73296,180.50277 89.95896,182.73087 89.95896,185.46717 C89.95896,188.20557 87.73296,190.42947 84.99246,190.42947 Z" id="Stroke-20" stroke="#00CFCF" stroke-width="2.1" mask="url(#mask-4)"></path>
                        <polygon id="Stroke-21" stroke="#00CFCF" stroke-width="2.1" mask="url(#mask-4)" points="9.6012 179.8923 39.3855 179.8923 39.3855 162.708 9.6012 162.708"></polygon>
                        <path d="M92.64801,88.80501 L43.94901,88.80501 L36.38481,99.40581 L16.30461,99.40581 L24.26571,53.73501 L92.64801,53.73501 C96.68421,53.73501 99.95391,57.00681 99.95391,61.04301 L99.95391,81.49911 C99.95391,85.53321 96.68421,88.80501 92.64801,88.80501 Z" id="Stroke-22" stroke="#00CFCF" stroke-width="2.1" mask="url(#mask-4)"></path>
                        <path d="M17.80275,98.14854 L35.73885,98.14854 L42.92295,88.07484 C43.16025,87.74514 43.54245,87.54984 43.94775,87.54984 L92.64885,87.54984 C95.98365,87.54984 98.69685,84.83454 98.69685,81.49974 L98.69685,61.04364 C98.69685,57.70674 95.98365,54.99354 92.64885,54.99354 L25.32495,54.99354 L17.80275,98.14854 Z M36.38565,100.66224 L16.30545,100.66224 C15.93585,100.66224 15.58095,100.49844 15.34365,100.21284 C15.10635,99.92934 15.00345,99.55554 15.06855,99.19014 L23.02965,53.52144 C23.13255,52.91664 23.65755,52.47774 24.26655,52.47774 L92.64885,52.47774 C97.37175,52.47774 101.21055,56.32074 101.21055,61.04364 L101.21055,81.49974 C101.21055,86.22054 97.37175,90.06144 92.64885,90.06144 L44.59665,90.06144 L37.41255,100.13514 C37.17525,100.46694 36.79305,100.66224 36.38565,100.66224 Z" id="Stroke-23" stroke="#00CFCF" stroke-width="2.1" mask="url(#mask-4)"></path>
                        <polygon id="Stroke-24" stroke="#00CFCF" stroke-width="2.1" mask="url(#mask-4)" points="87.09456 88.80501 79.62066 88.80501 82.48296 54.75771 89.95896 54.75771"></polygon>
                        <path d="M15.55092,47.8653 L4.12062,110.2857 L8.40672,110.2857 L9.75492,103.2465 C10.12452,101.5035 18.75342,60.5325 19.19652,57.435 C19.80342,53.2476 17.40312,50.1459 17.12592,49.8057 L15.55092,47.8653 Z" id="Stroke-25" stroke="#00CFCF" stroke-width="2.1" mask="url(#mask-4)"></path>
                        <path d="M14.85582,51.64908 C14.85582,51.64908 16.74372,53.97588 16.30482,57.01668 C15.86592,60.05748 6.89682,102.64128 6.89682,102.64128 L5.51502,102.64128 L14.85582,51.64908 Z" id="Stroke-26" stroke="#00CFCF" stroke-width="2.1" mask="url(#mask-4)"></path>
                        <path d="M75.3620973,108.16134 C75.36627,108.85434 74.88537,109.41714 74.29317,109.41924 L60.95607,109.473846 C60.36177,109.47594 59.8787426,108.91734 59.8787426,108.22644 C59.87457,107.53134 60.35337,106.97064 60.94347,106.96644 L74.28687,106.90974 C74.87907,106.90974 75.3620973,107.47044 75.3620973,108.16134 Z" id="Stroke-27" stroke="#00CFCF" stroke-width="2.1" mask="url(#mask-4)"></path>
                        <path d="M73.98384,108.19326 C73.98384,108.63426 73.68144,108.98706 73.30554,108.98706 C72.93384,108.98706 72.62934,108.63426 72.62934,108.19326 C72.62934,107.75646 72.93384,107.40366 73.30554,107.40366 C73.68144,107.40366 73.98384,107.75646 73.98384,108.19326 Z" id="Stroke-28" stroke="#00CFCF" stroke-width="2.1" mask="url(#mask-4)"></path>
                        <polygon id="Stroke-29" stroke="#00CFCF" stroke-width="2.1" mask="url(#mask-4)" points="131.1786 122.2305 135.6054 122.2305 135.6054 43.7367 131.1786 43.7367"></polygon>
                        <path d="M139.4694,114.60288 L98.0868,114.60288 C95.6655,114.60288 93.702,112.63938 93.702,110.21808 L93.702,103.78998 C93.702,101.36658 95.6655,99.40518 98.0868,99.40518 L139.4694,99.40518 C141.8865,99.40518 143.8521,101.36658 143.8521,103.78998 L143.8521,110.21808 C143.8521,112.63938 141.8865,114.60288 139.4694,114.60288 Z" id="Stroke-30" stroke="#00CFCF" stroke-width="2.1" mask="url(#mask-4)"></path>
                    </g>
                    <g id="Group-34" transform="translate(92.400000, 99.046100)">
                        <mask id="mask-6" fill="white">
                            <use xlink:href="#path-5"></use>
                        </mask>
                        <g id="Clip-33"></g>
                        <path d="M5.7057,0.0756 L5.6637,0.0798 C5.6637,0.0798 5.5419,0.0903 5.3319,0.1092 L5.3319,0.1092 C5.1198,0.147 4.8069,0.1239 4.4562,0.2436 L4.4562,0.2436 C3.7401,0.4074 2.8539,0.8715 2.142,1.5456 L2.142,1.5456 C1.4679,2.2575 1.0038,3.1416 0.8421,3.8598 L0.8421,3.8598 C0.7182,4.2105 0.7455,4.5234 0.7077,4.7334 L0.7077,4.7334 C0.6867,4.9455 0.6741,5.0673 0.6741,5.0673 L0.6741,5.0673 L0.672,5.1072 L0.672,11.4996 L0.6741,11.5395 C0.6741,11.5395 0.6867,11.6613 0.7077,11.8734 L0.7077,11.8734 C0.7455,12.0855 0.7182,12.3984 0.8421,12.747 L0.8421,12.747 C1.0038,13.4652 1.4679,14.3493 2.142,15.0612 L2.142,15.0612 C2.8539,15.7353 3.7401,16.1994 4.4562,16.3632 L4.4562,16.3632 C4.8069,16.485 5.1198,16.4598 5.3319,16.4976 L5.3319,16.4976 C5.5419,16.5165 5.6637,16.5291 5.6637,16.5291 L5.6637,16.5291 L5.7057,16.5312 L47.0694,16.5312 C48.3882,16.527 49.4844,15.9999 50.2299,15.3825 L50.2299,15.3825 C51.0111,14.7777 51.408,14.0322 51.6915,13.4526 L51.6915,13.4526 C52.1577,12.2199 52.0254,11.5269 52.0779,11.5395 L52.0779,11.5395 L52.08,11.4996 L52.08,5.1072 L52.0779,5.0673 C52.0779,5.0673 52.0653,4.9455 52.0464,4.7334 L52.0464,4.7334 C52.0086,4.5234 52.0359,4.2105 51.912,3.8598 L51.912,3.8598 C51.7503,3.1416 51.2862,2.2575 50.6121,1.5456 L50.6121,1.5456 C49.9002,0.8715 49.0161,0.4074 48.2958,0.2436 L48.2958,0.2436 C47.9472,0.1239 47.6343,0.147 47.4243,0.1092 L47.4243,0.1092 C47.2101,0.0903 47.0904,0.0798 47.0904,0.0798 L47.0904,0.0798 L47.0505,0.0756 L5.7057,0.0756 Z M5.67,15.2712 C5.67,15.2712 5.5797,15.2628 5.4201,15.246 L5.4201,15.246 C5.2647,15.2103 5.0232,15.246 4.7649,15.1452 L4.7649,15.1452 C4.2273,15.0255 3.5721,14.6727 3.0303,14.175 L3.0303,14.175 C2.5326,13.6332 2.1777,12.978 2.058,12.4383 L2.058,12.4383 C1.9572,12.1821 1.995,11.9406 1.9572,11.7852 L1.9572,11.7852 C1.9404,11.6256 1.9341,11.5353 1.9341,11.5353 L1.9341,11.5353 L1.9278,11.4996 L1.9278,5.1072 L1.9341,5.0736 C1.9341,5.0736 1.9404,4.9812 1.9572,4.8216 L1.9572,4.8216 C1.995,4.6662 1.9572,4.4268 2.058,4.1706 L2.058,4.1706 C2.1777,3.6309 2.5326,2.9757 3.0303,2.4318 L3.0303,2.4318 C3.5721,1.9362 4.2273,1.5813 4.7649,1.4616 L4.7649,1.4616 C5.0232,1.3629 5.2647,1.3965 5.4201,1.3629 L5.4201,1.3629 C5.5797,1.3461 5.67,1.3356 5.67,1.3356 L5.67,1.3356 L5.7057,1.3335 L47.0505,1.3335 L47.0862,1.3356 C47.0862,1.3356 47.1765,1.3461 47.3361,1.3629 L47.3361,1.3629 C47.4894,1.3965 47.7309,1.3629 47.9892,1.4616 L47.9892,1.4616 C48.5289,1.5813 49.1862,1.9362 49.7259,2.4318 L49.7259,2.4318 C50.2215,2.9757 50.5764,3.6309 50.6961,4.1706 L50.6961,4.1706 C50.7948,4.4268 50.7591,4.6662 50.7948,4.8216 L50.7948,4.8216 C50.8116,4.9812 50.82,5.0736 50.82,5.0736 L50.82,5.0736 L50.8242,5.1072 L50.8242,11.4996 L50.82,11.5353 C50.778,11.5248 50.8767,12.0435 50.5323,12.9675 L50.5323,12.9675 C50.1858,13.8201 49.0938,15.2145 47.0694,15.2733 L47.0694,15.2733 L5.7057,15.2733 L5.67,15.2712 Z" id="Fill-32" mask="url(#mask-6)"></path>
                    </g>
                    <g id="Group-39" transform="translate(109.200000, 52.846100)">
                        <path d="M0.28497,1.23564 L34.65147,1.23564 L0.28497,1.23564 Z" id="Fill-35" fill="#00CFCF"></path>
                        <path d="M0.28497,1.23564 L34.65147,1.23564 L0.28497,1.23564 Z" id="Stroke-37" stroke="#00CFCF" stroke-width="2.1"></path>
                    </g>
                    <g id="Group-42" transform="translate(109.200000, 51.746100)">
                        <mask id="mask-8" fill="white">
                            <use xlink:href="#path-7"></use>
                        </mask>
                        <g id="Clip-41"></g>
                        <polygon id="Fill-40" mask="url(#mask-8)" points="0.2856 0.8753 0.2856 1.4948 0.2856 2.2928 0.2856 3.0908 0.2856 3.5612 0.2856 3.7964 34.6521 3.7964 34.6521 3.5612 34.6521 3.0908 34.6521 2.2928 34.6521 1.4948 34.6521 0.8753"></polygon>
                    </g>
                    <g id="Group-47" transform="translate(109.200000, 59.146100)">
                        <path d="M0.28497,1.51158 L34.65147,1.51158 L0.28497,1.51158 Z" id="Fill-43" fill="#00CFCF"></path>
                        <path d="M0.28497,1.51158 L34.65147,1.51158 L0.28497,1.51158 Z" id="Stroke-45" stroke="#00CFCF" stroke-width="2.1"></path>
                    </g>
                    <g id="Group-50" transform="translate(109.200000, 59.146100)">
                        <mask id="mask-10" fill="white">
                            <use xlink:href="#path-9"></use>
                        </mask>
                        <g id="Clip-49"></g>
                        <polygon id="Fill-48" mask="url(#mask-10)" points="0.2856 0.0504 0.2856 0.6699 0.2856 1.47 0.2856 2.2659 0.2856 2.7363 0.2856 2.9715 34.6521 2.9715 34.6521 2.7363 34.6521 2.2659 34.6521 1.47 34.6521 0.6699 34.6521 0.0504"></polygon>
                    </g>
                    <g id="Group-55" transform="translate(109.200000, 65.446100)">
                        <path d="M0.28497,1.78626 L34.65147,1.78626 L0.28497,1.78626 Z" id="Fill-51" fill="#00CFCF"></path>
                        <path d="M0.28497,1.78626 L34.65147,1.78626 L0.28497,1.78626 Z" id="Stroke-53" stroke="#00CFCF" stroke-width="2.1"></path>
                    </g>
                    <g id="Group-58" transform="translate(109.200000, 65.446100)">
                        <mask id="mask-12" fill="white">
                            <use xlink:href="#path-11"></use>
                        </mask>
                        <g id="Clip-57"></g>
                        <polygon id="Fill-56" mask="url(#mask-12)" points="0.2856 0.3255 0.2856 0.9429 0.2856 1.743 0.2856 2.541 0.2856 3.0135 0.2856 3.2466 34.6521 3.2466 34.6521 3.0135 34.6521 2.541 34.6521 1.743 34.6521 0.9429 34.6521 0.3255"></polygon>
                    </g>
                    <g id="Group-63" transform="translate(109.200000, 72.746100)">
                        <path d="M0.28497,1.06325 L34.65147,1.06325 L0.28497,1.06325 Z" id="Fill-59" fill="#00CFCF"></path>
                        <path d="M0.28497,1.06325 L34.65147,1.06325 L0.28497,1.06325 Z" id="Stroke-61" stroke="#00CFCF" stroke-width="2.1"></path>
                    </g>
                    <g id="Group-66" transform="translate(109.200000, 71.746100)">
                        <mask id="mask-14" fill="white">
                            <use xlink:href="#path-13"></use>
                        </mask>
                        <g id="Clip-65"></g>
                        <polygon id="Fill-64" mask="url(#mask-14)" points="0.2856 0.6006 0.2856 1.2201 0.2856 2.0202 0.2856 2.8182 0.2856 3.2886 0.2856 3.5238 34.6521 3.5238 34.6521 3.2886 34.6521 2.8182 34.6521 2.0202 34.6521 1.2201 34.6521 0.6006"></polygon>
                    </g>
                    <g id="Group-71" transform="translate(109.200000, 79.046100)">
                        <path d="M0.28497,1.33688 L34.65147,1.33688 L0.28497,1.33688 Z" id="Fill-67" fill="#00CFCF"></path>
                        <path d="M0.28497,1.33688 L34.65147,1.33688 L0.28497,1.33688 Z" id="Stroke-69" stroke="#00CFCF" stroke-width="2.1"></path>
                    </g>
                    <g id="Group-74" transform="translate(109.200000, 78.046100)">
                        <mask id="mask-16" fill="white">
                            <use xlink:href="#path-15"></use>
                        </mask>
                        <g id="Clip-73"></g>
                        <polygon id="Fill-72" mask="url(#mask-16)" points="0.2856 0.8757 0.2856 1.4952 0.2856 2.2932 0.2856 3.0933 0.2856 3.5637 0.2856 3.7989 34.6521 3.7989 34.6521 3.5637 34.6521 3.0933 34.6521 2.2932 34.6521 1.4952 34.6521 0.8757"></polygon>
                    </g>
                    <g id="Group-79" transform="translate(109.200000, 85.346100)">
                        <path d="M0.28497,1.61282 L34.65147,1.61282 L0.28497,1.61282 Z" id="Fill-75" fill="#00CFCF"></path>
                        <path d="M0.28497,1.61282 L34.65147,1.61282 L0.28497,1.61282 Z" id="Stroke-77" stroke="#00CFCF" stroke-width="2.1"></path>
                    </g>
                    <g id="Group-82" transform="translate(109.200000, 85.346100)">
                        <mask id="mask-18" fill="white">
                            <use xlink:href="#path-17"></use>
                        </mask>
                        <g id="Clip-81"></g>
                        <polygon id="Fill-80" mask="url(#mask-18)" points="0.2856 0.1508 0.2856 0.7703 0.2856 1.5704 0.2856 2.3684 0.2856 2.8388 0.2856 3.0719 34.6521 3.0719 34.6521 2.8388 34.6521 2.3684 34.6521 1.5704 34.6521 0.7703 34.6521 0.1508"></polygon>
                    </g>
                    <g id="Group-87" transform="translate(109.200000, 91.646100)">
                        <path d="M0.28497,1.8896 L34.65147,1.8896 L0.28497,1.8896 Z" id="Fill-83" fill="#00CFCF"></path>
                        <path d="M0.28497,1.8896 L34.65147,1.8896 L0.28497,1.8896 Z" id="Stroke-85" stroke="#00CFCF" stroke-width="2.1"></path>
                    </g>
                    <g id="Group-90" transform="translate(109.200000, 91.646100)">
                        <mask id="mask-20" fill="white">
                            <use xlink:href="#path-19"></use>
                        </mask>
                        <g id="Clip-89"></g>
                        <polygon id="Fill-88" mask="url(#mask-20)" points="0.2856 0.428 0.2856 1.0475 0.2856 1.8455 0.2856 2.6456 0.2856 3.116 0.2856 3.3512 34.6521 3.3512 34.6521 3.116 34.6521 2.6456 34.6521 1.8455 34.6521 1.0475 34.6521 0.428"></polygon>
                    </g>
                    <g id="Group-151" transform="translate(0.000000, 0.346100)">
                        <path d="M4.78443,163.94784 L4.78443,178.55544 L1.77933,179.03424 L1.77933,162.91254 L4.78443,163.94784 Z M1.05063,180.63024 L6.24393,179.79864 L6.24393,162.90624 L1.05063,161.11704 L1.05063,180.63024 Z" id="Stroke-91" stroke="#00CFCF" stroke-width="2.1"></path>
                        <polygon id="Stroke-93" stroke="#00CFCF" stroke-width="2.1" points="5.51439 179.17788 1.04979 179.89188 1.04979 161.88858 5.51439 163.42578"></polygon>
                        <mask id="mask-22" fill="white">
                            <use xlink:href="#path-21"></use>
                        </mask>
                        <g id="Clip-96"></g>
                        <polygon id="Stroke-95" stroke="#00CFCF" stroke-width="2.1" mask="url(#mask-22)" points="148.3797 185.4678 335.0151 185.4678 335.0151 145.0638 148.3797 145.0638"></polygon>
                        <polygon id="Stroke-97" stroke="#00CFCF" stroke-width="2.1" mask="url(#mask-22)" points="194.7918 185.4216 196.6545 185.4216 196.6545 145.0638 194.7918 145.0638"></polygon>
                        <polygon id="Stroke-98" stroke="#00CFCF" stroke-width="2.1" mask="url(#mask-22)" points="237.363 185.4216 239.2257 185.4216 239.2257 145.0638 237.363 145.0638"></polygon>
                        <path d="M283.84041,167.90361 L148.37991,167.90361 L148.37991,158.64261 L283.84041,158.64261 C286.25961,158.64261 288.22311,160.60611 288.22311,163.02741 L288.22311,163.52301 C288.22311,165.94221 286.25961,167.90361 283.84041,167.90361 Z" id="Stroke-99" stroke="#00CFCF" stroke-width="2.1" mask="url(#mask-22)"></path>
                        <path d="M206.3208,171.61053 L185.1255,171.61053 C183.5127,171.61053 182.2065,170.30223 182.2065,168.68733 L182.2065,158.19153 C182.2065,156.57663 183.5127,155.26833 185.1255,155.26833 L206.3208,155.26833 C207.9336,155.26833 209.2419,156.57663 209.2419,158.19153 L209.2419,168.68733 C209.2419,170.30223 207.9336,171.61053 206.3208,171.61053 Z" id="Stroke-100" stroke="#00CFCF" stroke-width="2.1" mask="url(#mask-22)"></path>
                        <path d="M298.82958,150.72435 C284.92758,150.72435 272.91138,158.93325 267.35898,170.75835 L264.47358,180.28605 C264.21738,181.97865 264.08298,183.70695 264.08298,185.46675 L270.69588,185.46675 L333.57618,185.46675 C333.57618,166.31055 317.98578,150.72435 298.82958,150.72435 Z" id="Stroke-101" stroke="#00CFCF" stroke-width="2.1" mask="url(#mask-22)"></path>
                        <path d="M328.61094,185.46759 C328.61094,201.91479 315.27594,215.24979 298.82874,215.24979 C282.38154,215.24979 269.04654,201.91479 269.04654,185.46759 C269.04654,169.01829 282.38154,155.68749 298.82874,155.68749 C315.27594,155.68749 328.61094,169.01829 328.61094,185.46759 Z" id="Stroke-102" stroke="#00CFCF" stroke-width="2.1" mask="url(#mask-22)"></path>
                        <path d="M298.82958,202.84089 C289.24938,202.84089 281.45208,195.04569 281.45208,185.46759 C281.45208,175.88949 289.24938,168.09429 298.82958,168.09429 C308.40768,168.09429 316.20078,175.88949 316.20078,185.46759 C316.20078,195.04569 308.40768,202.84089 298.82958,202.84089 Z" id="Stroke-103" stroke="#00CFCF" stroke-width="2.1" mask="url(#mask-22)"></path>
                        <path d="M298.82958,202.84488 C289.24938,202.84488 281.45628,195.04548 281.45628,185.46738 C281.45628,175.88928 289.24938,168.09408 298.82958,168.09408 C308.40978,168.09408 316.20078,175.88928 316.20078,185.46738 C316.20078,195.04548 308.40978,202.84488 298.82958,202.84488 Z" id="Stroke-104" stroke="#00CFCF" stroke-width="2.1" mask="url(#mask-22)"></path>
                        <path d="M298.82958,190.42947 C296.09328,190.42947 293.86728,188.20557 293.86728,185.46717 C293.86728,182.73087 296.09328,180.50277 298.82958,180.50277 C301.57008,180.50277 303.79188,182.73087 303.79188,185.46717 C303.79188,188.20557 301.57008,190.42947 298.82958,190.42947 Z" id="Stroke-105" stroke="#00CFCF" stroke-width="2.1" mask="url(#mask-22)"></path>
                        <path d="M335.01552,180.46581 L335.01552,145.06401 L340.31172,145.06401 C343.23702,145.06401 345.61002,148.33581 345.61002,152.36991 L345.61002,195.07761 L340.31172,195.07761 C337.38852,195.07761 335.01552,188.53611 335.01552,180.46581 Z" id="Stroke-106" stroke="#00CFCF" stroke-width="2.1" mask="url(#mask-22)"></path>
                        <path d="M347.03928,161.79744 C346.07328,161.79744 345.28788,161.01204 345.28788,160.04394 L345.28788,151.32894 C345.28788,150.36294 346.07328,149.57964 347.03928,149.57964 C348.01158,149.57964 348.79698,150.36294 348.79698,151.32894 L348.79698,160.04394 C348.79698,161.01204 348.01158,161.79744 347.03928,161.79744 Z" id="Stroke-107" stroke="#00CFCF" stroke-width="2.1" mask="url(#mask-22)"></path>
                        <path d="M347.36541,161.79744 C346.39311,161.79744 345.60981,161.01204 345.60981,160.04394 L345.60981,151.32894 C345.60981,150.36294 346.39311,149.57964 347.36541,149.57964 C348.33141,149.57964 349.11681,150.36294 349.11681,151.32894 L349.11681,160.04394 C349.11681,161.01204 348.33141,161.79744 347.36541,161.79744 Z" id="Stroke-108" stroke="#00CFCF" stroke-width="2.1" mask="url(#mask-22)"></path>
                        <path d="M265.77915,152.79768 C265.77915,153.76788 264.99795,154.54908 264.02985,154.54908 L255.31485,154.54908 C254.34675,154.54908 253.56345,153.76788 253.56345,152.79768 C253.56345,151.82958 254.34675,151.04418 255.31485,151.04418 L264.02985,151.04418 C264.99795,151.04418 265.77915,151.82958 265.77915,152.79768 Z" id="Stroke-109" stroke="#00CFCF" stroke-width="2.1" mask="url(#mask-22)"></path>
                        <path d="M265.77915,152.47764 C265.77915,153.44574 264.99795,154.22694 264.02985,154.22694 L255.31485,154.22694 C254.34675,154.22694 253.56345,153.44574 253.56345,152.47764 C253.56345,151.50954 254.34675,150.72414 255.31485,150.72414 L264.02985,150.72414 C264.99795,150.72414 265.77915,151.50954 265.77915,152.47764 Z" id="Stroke-110" stroke="#00CFCF" stroke-width="2.1" mask="url(#mask-22)"></path>
                        <path d="M164.64693,174.72252 C164.64693,175.16352 164.28993,175.52052 163.84893,175.52052 L159.87993,175.52052 C159.44103,175.52052 159.08403,175.16352 159.08403,174.72252 C159.08403,174.27942 159.44103,173.92242 159.87993,173.92242 L163.84893,173.92242 C164.28993,173.92242 164.64693,174.27942 164.64693,174.72252 Z" id="Stroke-111" stroke="#00CFCF" stroke-width="2.1" mask="url(#mask-22)"></path>
                        <path d="M164.64693,174.57594 C164.64693,175.01904 164.28993,175.37394 163.84893,175.37394 L159.87993,175.37394 C159.44103,175.37394 159.08403,175.01904 159.08403,174.57594 C159.08403,174.13704 159.44103,173.77794 159.87993,173.77794 L163.84893,173.77794 C164.28993,173.77794 164.64693,174.13704 164.64693,174.57594 Z" id="Stroke-112" stroke="#00CFCF" stroke-width="2.1" mask="url(#mask-22)"></path>
                        <path d="M126.99456,145.22319 C126.99456,146.19129 126.21126,146.97669 125.24316,146.97669 L116.53026,146.97669 C115.56216,146.97669 114.77676,146.19129 114.77676,145.22319 C114.77676,144.25299 115.56216,143.46969 116.53026,143.46969 L125.24316,143.46969 C126.21126,143.46969 126.99456,144.25299 126.99456,145.22319 Z" id="Stroke-113" stroke="#00CFCF" stroke-width="2.1" mask="url(#mask-22)"></path>
                        <path d="M126.99456,144.89916 C126.99456,145.87146 126.21126,146.65266 125.24316,146.65266 L116.53026,146.65266 C115.56216,146.65266 114.77676,145.87146 114.77676,144.89916 C114.77676,143.93316 115.56216,143.14986 116.53026,143.14986 L125.24316,143.14986 C126.21126,143.14986 126.99456,143.93316 126.99456,144.89916 Z" id="Stroke-114" stroke="#00CFCF" stroke-width="2.1" mask="url(#mask-22)"></path>
                        <polygon id="Stroke-115" stroke="#00CFCF" stroke-width="2.1" mask="url(#mask-22)" points="9.6012 179.8923 39.3855 179.8923 39.3855 178.1724 9.6012 178.1724"></polygon>
                        <polygon id="Stroke-116" stroke="#00CFCF" stroke-width="2.1" mask="url(#mask-22)" points="182.2065 140.6769 772.6467 140.6769 772.6467 6.2307 182.2065 6.2307"></polygon>
                        <polygon id="Stroke-117" stroke="#00CFCF" stroke-width="2.1" mask="url(#mask-22)" points="378.6111 154.22799 492.7965 154.22799 501.9714 168.09639 772.6467 168.09639 772.6467 140.67669 378.6111 140.67669"></polygon>
                        <polygon id="Stroke-118" stroke="#00CFCF" stroke-width="2.1" mask="url(#mask-22)" points="717.61956 168.0945 527.91396 168.0945 539.24766 152.3655 706.28796 152.3655"></polygon>
                        <path d="M587.57139,185.46759 C587.57139,201.91479 574.23639,215.24979 557.78919,215.24979 C541.33779,215.24979 528.00489,201.91479 528.00489,185.46759 C528.00489,169.01829 541.33779,155.68749 557.78919,155.68749 C574.23639,155.68749 587.57139,169.01829 587.57139,185.46759 Z" id="Stroke-119" stroke="#00CFCF" stroke-width="2.1" mask="url(#mask-22)"></path>
                        <path d="M557.78982,202.84089 C548.20542,202.84089 540.41232,195.04569 540.41232,185.46759 C540.41232,175.88949 548.20542,168.09429 557.78982,168.09429 C567.36792,168.09429 575.15892,175.88949 575.15892,185.46759 C575.15892,195.04569 567.36792,202.84089 557.78982,202.84089 Z" id="Stroke-120" stroke="#00CFCF" stroke-width="2.1" mask="url(#mask-22)"></path>
                        <path d="M557.78982,202.84488 C548.20542,202.84488 540.41652,195.04548 540.41652,185.46738 C540.41652,175.88928 548.20542,168.09408 557.78982,168.09408 C567.36792,168.09408 575.15892,175.88928 575.15892,185.46738 C575.15892,195.04548 567.36792,202.84488 557.78982,202.84488 Z" id="Stroke-121" stroke="#00CFCF" stroke-width="2.1" mask="url(#mask-22)"></path>
                        <path d="M557.78982,190.42947 C555.04932,190.42947 552.82332,188.20557 552.82332,185.46717 C552.82332,182.73087 555.04932,180.50277 557.78982,180.50277 C560.52612,180.50277 562.75212,182.73087 562.75212,185.46717 C562.75212,188.20557 560.52612,190.42947 557.78982,190.42947 Z" id="Stroke-122" stroke="#00CFCF" stroke-width="2.1" mask="url(#mask-22)"></path>
                        <path d="M651.21945,185.46759 C651.21945,201.91479 637.88445,215.24979 621.43725,215.24979 C604.98585,215.24979 591.65295,201.91479 591.65295,185.46759 C591.65295,169.01829 604.98585,155.68749 621.43725,155.68749 C637.88445,155.68749 651.21945,169.01829 651.21945,185.46759 Z" id="Stroke-123" stroke="#00CFCF" stroke-width="2.1" mask="url(#mask-22)"></path>
                        <path d="M621.43788,202.84089 C611.85768,202.84089 604.06458,195.04569 604.06458,185.46759 C604.06458,175.88949 611.85768,168.09429 621.43788,168.09429 C631.01178,168.09429 638.80698,175.88949 638.80698,185.46759 C638.80698,195.04569 631.01178,202.84089 621.43788,202.84089 Z" id="Stroke-124" stroke="#00CFCF" stroke-width="2.1" mask="url(#mask-22)"></path>
                        <path d="M621.43788,202.84488 C611.85768,202.84488 604.06458,195.04548 604.06458,185.46738 C604.06458,175.88928 611.85768,168.09408 621.43788,168.09408 C631.01598,168.09408 638.80698,175.88928 638.80698,185.46738 C638.80698,195.04548 631.01598,202.84488 621.43788,202.84488 Z" id="Stroke-125" stroke="#00CFCF" stroke-width="2.1" mask="url(#mask-22)"></path>
                        <path d="M621.43788,190.42947 C618.70158,190.42947 616.47138,188.20557 616.47138,185.46717 C616.47138,182.73087 618.70158,180.50277 621.43788,180.50277 C624.17418,180.50277 626.40438,182.73087 626.40438,185.46717 C626.40438,188.20557 624.17418,190.42947 621.43788,190.42947 Z" id="Stroke-126" stroke="#00CFCF" stroke-width="2.1" mask="url(#mask-22)"></path>
                        <path d="M714.8715,185.46759 C714.8715,201.91479 701.5323,215.24979 685.0809,215.24979 C668.6337,215.24979 655.305,201.91479 655.305,185.46759 C655.305,169.01829 668.6337,155.68749 685.0809,155.68749 C701.5323,155.68749 714.8715,169.01829 714.8715,185.46759 Z" id="Stroke-127" stroke="#00CFCF" stroke-width="2.1" mask="url(#mask-22)"></path>
                        <path d="M685.08195,202.84089 C675.50805,202.84089 667.71285,195.04569 667.71285,185.46759 C667.71285,175.88949 675.50805,168.09429 685.08195,168.09429 C694.66215,168.09429 702.45945,175.88949 702.45945,185.46759 C702.45945,195.04569 694.66215,202.84089 685.08195,202.84089 Z" id="Stroke-128" stroke="#00CFCF" stroke-width="2.1" mask="url(#mask-22)"></path>
                        <path d="M685.08195,202.84488 C675.50805,202.84488 667.71495,195.04548 667.71495,185.46738 C667.71495,175.88928 675.50805,168.09408 685.08195,168.09408 C694.66215,168.09408 702.45945,175.88928 702.45945,185.46738 C702.45945,195.04548 694.66215,202.84488 685.08195,202.84488 Z" id="Stroke-129" stroke="#00CFCF" stroke-width="2.1" mask="url(#mask-22)"></path>
                        <path d="M685.08195,190.42947 C682.34565,190.42947 680.11965,188.20557 680.11965,185.46717 C680.11965,182.73087 682.34565,180.50277 685.08195,180.50277 C687.82245,180.50277 690.05265,182.73087 690.05265,185.46717 C690.05265,188.20557 687.82245,190.42947 685.08195,190.42947 Z" id="Stroke-130" stroke="#00CFCF" stroke-width="2.1" mask="url(#mask-22)"></path>
                        <polygon id="Stroke-131" stroke="#00CFCF" stroke-width="2.1" mask="url(#mask-22)" points="367.8969 167.8488 378.6111 167.8488 378.6111 140.9247 367.8969 140.9247"></polygon>
                        <polygon id="Stroke-132" stroke="#00CFCF" stroke-width="2.1" mask="url(#mask-22)" points="367.8969 171.3642 378.6111 171.3642 378.6111 167.8509 367.8969 167.8509"></polygon>
                        <polygon id="Stroke-133" stroke="#00CFCF" stroke-width="2.1" mask="url(#mask-22)" points="367.8969 174.8775 378.6111 174.8775 378.6111 171.3621 367.8969 171.3621"></polygon>
                        <polygon id="Stroke-134" stroke="#00CFCF" stroke-width="2.1" mask="url(#mask-22)" points="367.8969 178.3929 378.6111 178.3929 378.6111 174.8775 367.8969 174.8775"></polygon>
                        <polygon id="Stroke-135" stroke="#00CFCF" stroke-width="2.1" mask="url(#mask-22)" points="367.8969 181.9104 378.6111 181.9104 378.6111 178.395 367.8969 178.395"></polygon>
                        <polygon id="Stroke-136" stroke="#00CFCF" stroke-width="2.1" mask="url(#mask-22)" points="367.8969 185.4216 378.6111 185.4216 378.6111 181.9083 367.8969 181.9083"></polygon>
                        <polygon id="Stroke-137" stroke="#00CFCF" stroke-width="2.1" mask="url(#mask-22)" points="380.65167 188.98467 365.86137 188.98467 367.89837 185.46717 378.61047 185.46717"></polygon>
                        <polygon id="Stroke-138" stroke="#00CFCF" stroke-width="2.1" mask="url(#mask-22)" points="363.7074 196.1631 383.4852 196.1631 383.4852 188.9853 363.7074 188.9853"></polygon>
                        <polygon id="Stroke-139" stroke="#00CFCF" stroke-width="2.1" mask="url(#mask-22)" points="371.5194 189.1764 375.6774 189.1764 375.6774 171.3642 371.5194 171.3642"></polygon>
                        <path d="M520.70361,194.0841 C518.69811,194.0841 517.06641,192.465 517.05381,190.4595 C516.71781,146.1705 557.28561,144.6165 557.69091,144.606 C559.79931,144.5514 561.38691,146.1474 561.43941,148.1655 C561.48981,150.1794 559.90221,151.8531 557.89251,151.9098 C556.51071,151.9518 524.07411,153.3756 524.35341,190.4049 C524.37441,192.4209 522.75111,194.0694 520.73301,194.0841 L520.70361,194.0841 Z" id="Stroke-140" stroke="#00CFCF" stroke-width="2.1" mask="url(#mask-22)"></path>
                        <path d="M724.82592,194.0841 L724.79652,194.0841 C722.77842,194.0694 721.15932,192.4209 721.17612,190.4049 C721.45542,153.3756 689.02722,151.9518 687.64542,151.9098 C685.63152,151.8489 684.04392,150.1668 684.10062,148.155 C684.15942,146.1411 685.75542,144.5871 687.84282,144.605829 C688.25232,144.6165 728.81592,146.1705 728.47572,190.4595 C728.46312,192.465 726.83142,194.0841 724.82592,194.0841 Z" id="Stroke-141" stroke="#00CFCF" stroke-width="2.1" mask="url(#mask-22)"></path>
                        <polygon id="Stroke-142" stroke="#00CFCF" stroke-width="2.1" mask="url(#mask-22)" points="755.11191 168.0945 755.11191 177.03 763.87731 177.03 763.87731 188.6136 772.64691 188.6136 772.64691 177.03 772.64691 168.0945"></polygon>
                        <polygon id="Stroke-143" stroke="#00CFCF" stroke-width="2.1" mask="url(#mask-22)" points="391.0536 167.5821 395.1507 167.5821 395.1507 154.2282 391.0536 154.2282"></polygon>
                        <path d="M773.51967,147.94962 C772.55157,147.94962 771.76827,147.16632 771.76827,146.20032 L771.76827,137.48742 C771.76827,136.51932 772.55157,135.73392 773.51967,135.73392 C774.49197,135.73392 775.27947,136.51932 775.27947,137.48742 L775.27947,146.20032 C775.27947,147.16632 774.49197,147.94962 773.51967,147.94962 Z" id="Stroke-144" stroke="#00CFCF" stroke-width="2.1" mask="url(#mask-22)"></path>
                        <path d="M773.8437,147.94962 C772.8756,147.94962 772.0923,147.16632 772.0923,146.20032 L772.0923,137.48742 C772.0923,136.51932 772.8756,135.73392 773.8437,135.73392 C774.8118,135.73392 775.5951,136.51932 775.5951,137.48742 L775.5951,146.20032 C775.5951,147.16632 774.8118,147.94962 773.8437,147.94962 Z" id="Stroke-145" stroke="#00CFCF" stroke-width="2.1" mask="url(#mask-22)"></path>
                        <polygon id="Stroke-146" stroke="#00CFCF" stroke-width="2.1" mask="url(#mask-22)" points="109.48497 46.73844 22.43997 46.73844 23.46687 43.73544 109.48497 43.73544"></polygon>
                        <path d="M3.28314,171.2403 C3.28314,174.1341 2.78334,176.4777 2.16594,176.4777 C1.55064,176.4777 1.05084,174.1341 1.05084,171.2403 C1.05084,168.3486 1.55064,166.005 2.16594,166.005 C2.78334,166.005 3.28314,168.3486 3.28314,171.2403 Z" id="Stroke-147" stroke="#00CFCF" stroke-width="2.1" mask="url(#mask-22)"></path>
                        <polygon id="Stroke-148" stroke="#00CFCF" stroke-width="2.1" mask="url(#mask-22)" points="367.899 146.1999 771.7689 146.1999 771.7689 140.9268 367.899 140.9268"></polygon>
                        <polygon id="Stroke-149" stroke="#00CFCF" stroke-width="2.1" mask="url(#mask-22)" points="552.8229 152.3655 687.7479 152.3655 687.7479 146.1978 552.8229 146.1978"></polygon>
                        <path d="M25.99359,104.40129 C26.12589,105.82719 25.07379,107.09349 23.64579,107.22579 C22.21569,107.35809 20.95359,106.30809 20.81919,104.88009 L18.33699,78.14079 C18.20469,76.71279 19.25889,75.44649 20.68689,75.31419 C22.11489,75.18189 23.38119,76.23399 23.51349,77.65989 L25.99359,104.40129 Z" id="Stroke-150" stroke="#00CFCF" stroke-width="2.1" mask="url(#mask-22)"></path>
                    </g>
                </g>
                <g id="Group-14-Copy-12" #electricSystem  sensor="Electric System" class="sensor" (mouseenter)="onMouseEnter($event)" (mouseleave)="onMouseLeave($event)" transform="translate(6.000000, 140.000000)" fill="#00CECE" fill-rule="nonzero">
                    <circle id="Oval" opacity="0.8" transform="translate(41.458823, 41.474051) rotate(-76.720000) translate(-41.458823, -41.474051) " cx="41.4588225" cy="41.4740512" r="17.88318"></circle>
                    <circle id="Oval" cx="41.47038" cy="41.47038" r="10.02456"></circle>
                </g>
                <g id="Group-14-Copy-38" #electricSystem sensor="Electric System" class="sensor" (mouseenter)="onMouseEnter($event)" (mouseleave)="onMouseLeave($event)" transform="translate(392.000000, 130.000000)" fill="#00CECE" fill-rule="nonzero">
                    <circle id="Oval" opacity="0.2" cx="41.47038" cy="41.47038" r="41.47038"></circle>
                    <circle id="Oval" opacity="0.4" cx="41.47038" cy="41.47038" r="33.61176"></circle>
                    <circle id="Oval" opacity="0.6" cx="41.47038" cy="41.47038" r="25.7418"></circle>
                    <circle id="Oval" opacity="0.8" transform="translate(41.458823, 41.474051) rotate(-76.720000) translate(-41.458823, -41.474051) " cx="41.4588225" cy="41.4740512" r="17.88318"></circle>
                    <circle id="Oval" cx="41.47038" cy="41.47038" r="10.02456"></circle>
                </g>
                <g id="Group-14-Copy-49" #coolingSystem sensor="Cooling System" class="sensor"  sensor="Cooling System" class="sensor" (mouseenter)="onMouseEnter($event)" (mouseleave)="onMouseLeave($event)" (mouseleave)="onMouseLeave($event)"  transform="translate(293.000000, 41.000000)" fill="#00CECE" fill-rule="nonzero">
                    <circle id="Oval" opacity="0.2" cx="41.47038" cy="41.47038" r="41.47038"></circle>
                    <circle id="Oval" opacity="0.4" cx="41.47038" cy="41.47038" r="33.61176"></circle>
                    <circle id="Oval" opacity="0.6" cx="41.47038" cy="41.47038" r="25.7418"></circle>
                    <circle id="Oval" opacity="0.8" transform="translate(41.458823, 41.474051) rotate(-76.720000) translate(-41.458823, -41.474051) " cx="41.4588225" cy="41.4740512" r="17.88318"></circle>
                    <circle id="Oval" cx="41.47038" cy="41.47038" r="10.02456"></circle>
                </g>
                <g id="Group-14-Copy-48" #electricSystem transform="translate(578.000000, 0.000000)"  sensor="electric System" class="sensor" (mouseenter)="onMouseEnter($event)" (mouseleave)="onMouseLeave($event)" fill="#00CECE" fill-rule="nonzero">
                    <circle id="Oval" opacity="0.2" cx="41.47038" cy="41.47038" r="41.47038"></circle>
                    <circle id="Oval" opacity="0.4" cx="41.47038" cy="41.47038" r="33.61176"></circle>
                    <circle id="Oval" opacity="0.6" cx="41.47038" cy="41.47038" r="25.7418"></circle>
                    <circle id="Oval" opacity="0.8" transform="translate(41.458823, 41.474051) rotate(-76.720000) translate(-41.458823, -41.474051) " cx="41.4588225" cy="41.4740512" r="17.88318"></circle>
                    <circle id="Oval" cx="41.47038" cy="41.47038" r="10.02456"></circle>
                </g>
                <g id="Group-14-Copy-47"  #electricSystem sensor="electric System" class="sensor" (mouseenter)="onMouseEnter($event)" (mouseleave)="onMouseLeave($event)" fill="#00CECE" fill-rule="nonzero">
                    <circle id="Oval" opacity="0.2" cx="41.47038" cy="41.47038" r="41.47038"></circle>
                    <circle id="Oval" opacity="0.4" cx="41.47038" cy="41.47038" r="33.61176"></circle>
                    <circle id="Oval" opacity="0.6" cx="41.47038" cy="41.47038" r="25.7418"></circle>
                    <circle id="Oval" opacity="0.8" transform="translate(41.458823, 41.474051) rotate(-76.720000) translate(-41.458823, -41.474051) " cx="41.4588225" cy="41.4740512" r="17.88318"></circle>
                    <circle id="Oval" cx="41.47038" cy="41.47038" r="10.02456"></circle>
                </g>
                <g id="Group-14-Copy-45" #pressureSystem sensor="Pressure System" class="sensor" (mouseenter)="onMouseEnter($event)" (mouseleave)="onMouseLeave($event)" transform="translate(467.000000, 169.000000)" fill="#00CECE" fill-rule="nonzero">
                    <circle id="Oval" opacity="0.2" cx="41.47038" cy="41.47038" r="41.47038"></circle>
                    <circle id="Oval" opacity="0.4" cx="41.47038" cy="41.47038" r="33.61176"></circle>
                    <circle id="Oval" opacity="0.6" cx="41.47038" cy="41.47038" r="25.7418"></circle>
                    <circle id="Oval" opacity="0.8" transform="translate(41.458823, 41.474051) rotate(-76.720000) translate(-41.458823, -41.474051) " cx="41.4588225" cy="41.4740512" r="17.88318"></circle>
                    <circle id="Oval" cx="41.47038" cy="41.47038" r="10.02456"></circle>
                </g>
                <g id="Group-14-Copy-46" #pressureSystem sensor="Pressure System" class="sensor" (mouseenter)="onMouseEnter($event)" (mouseleave)="onMouseLeave($event)" transform="translate(681.000000, 168.000000)" fill="#00CECE" fill-rule="nonzero">
                    <circle id="Oval" opacity="0.2" cx="41.47038" cy="41.47038" r="41.47038"></circle>
                    <circle id="Oval" opacity="0.4" cx="41.47038" cy="41.47038" r="33.61176"></circle>
                    <circle id="Oval" opacity="0.6" cx="41.47038" cy="41.47038" r="25.7418"></circle>
                    <circle id="Oval" opacity="0.8" transform="translate(41.458823, 41.474051) rotate(-76.720000) translate(-41.458823, -41.474051) " cx="41.4588225" cy="41.4740512" r="17.88318"></circle>
                    <circle id="Oval" cx="41.47038" cy="41.47038" r="10.02456"></circle>
                </g>
                <g id="Group-14-Copy-42" #pressureSystem sensor="Pressure System" class="sensor" (mouseenter)="onMouseEnter($event)" (mouseleave)="onMouseLeave($event)" transform="translate(210.000000, 169.000000)" fill="#00CECE" fill-rule="nonzero">
                    <circle id="Oval" opacity="0.2" cx="41.47038" cy="41.47038" r="41.47038"></circle>
                    <circle id="Oval" opacity="0.4" cx="41.47038" cy="41.47038" r="33.61176"></circle>
                    <circle id="Oval" opacity="0.6" cx="41.47038" cy="41.47038" r="25.7418"></circle>
                    <circle id="Oval" opacity="0.8" transform="translate(41.458823, 41.474051) rotate(-76.720000) translate(-41.458823, -41.474051) " cx="41.4588225" cy="41.4740512" r="17.88318"></circle>
                    <circle id="Oval" cx="41.47038" cy="41.47038" r="10.02456"></circle>
                </g>
                <g id="Group-14-Copy-39" #batterySystem  sensor="battery System" class="sensor" (mouseenter)="onMouseEnter($event)" (mouseleave)="onMouseLeave($event)" transform="translate(637.000000, 150.000000)" fill="#00CECE" fill-rule="nonzero">
                    <circle id="Oval" opacity="0.8" transform="translate(41.458823, 41.474051) rotate(-76.720000) translate(-41.458823, -41.474051) " cx="41.4588225" cy="41.4740512" r="17.88318"></circle>
                    <circle id="Oval" cx="41.47038" cy="41.47038" r="10.02456"></circle>
                </g>
                <g id="Group-14-Copy-41" #electricSystem sensor="electric System" class="sensor" (mouseenter)="onMouseEnter($event)" (mouseleave)="onMouseLeave($event)" transform="translate(628.000000, 29.000000)" fill="#00CECE" fill-rule="nonzero">
                    <circle id="Oval" opacity="0.8" transform="translate(41.458823, 41.474051) rotate(-76.720000) translate(-41.458823, -41.474051) " cx="41.4588225" cy="41.4740512" r="17.88318"></circle>
                    <circle id="Oval" cx="41.47038" cy="41.47038" r="10.02456"></circle>
                </g>
                <g id="Group-14-Copy-44" #breakSystem sensor="Break System" class="sensor" (mouseenter)="onMouseEnter($event)" (mouseleave)="onMouseLeave($event)" transform="translate(83.000000, 169.000000)" fill="#00CECE" fill-rule="nonzero">
                    <circle id="Oval" opacity="0.8" transform="translate(41.458823, 41.474051) rotate(-76.720000) translate(-41.458823, -41.474051) " cx="41.4588225" cy="41.4740512" r="17.88318"></circle>
                    <circle id="Oval" cx="41.47038" cy="41.47038" r="10.02456"></circle>
                </g>
                <g id="Group-14-Copy-40" #engineSystem sensor="Engine System" class="sensor" (mouseenter)="onMouseEnter($event)" (mouseleave)="onMouseLeave($event)" transform="translate(742.000000, 76.000000)" fill="#00CECE" fill-rule="nonzero">
                    <circle id="Oval" opacity="0.6" cx="41.47038" cy="41.47038" r="25.7418"></circle>
                    <circle id="Oval" opacity="0.8" transform="translate(41.458823, 41.474051) rotate(-76.720000) translate(-41.458823, -41.474051) " cx="41.4588225" cy="41.4740512" r="17.88318"></circle>
                    <circle id="Oval" cx="41.47038" cy="41.47038" r="10.02456"></circle>
                </g>
                <g id="Group-14-Copy-43" #breakSystem sensor="Break System" class="sensor" (mouseenter)="onMouseEnter($event)" (mouseleave)="onMouseLeave($event)" transform="translate(146.000000, 169.000000)" fill="#00CECE" fill-rule="nonzero">
                    <circle id="Oval" opacity="0.6" cx="41.47038" cy="41.47038" r="25.7418"></circle>
                    <circle id="Oval" opacity="0.8" transform="translate(41.458823, 41.474051) rotate(-76.720000) translate(-41.458823, -41.474051) " cx="41.4588225" cy="41.4740512" r="17.88318"></circle>
                    <circle id="Oval" cx="41.47038" cy="41.47038" r="10.02456"></circle>
                </g>
            </g>
        </g>
    </g>
</svg>
